#N canvas 873 214 827 858 10;
#X obj 279 287 send osc;
#X msg 289 153 list;
#X obj 279 261 oscformat;
#X obj 289 127 r bang;
#X obj 279 75 r avb_ch_select;
#X obj 48 569 spigot;
#X obj 159 579 ==;
#X msg 174 527 1;
#X obj 48 449 r eq_mid1_enable_val;
#X obj 159 475 r select;
#X obj 174 501 r bang;
#X obj 28 47 cnv 16 15 15 empty empty EQ\ Mid1\ Enable 20 12 0 20 #ffffff #404040 0;
#X obj 48 595 s eq_mid1_enable_1;
#X obj 299 179 r eq_mid1_enable_val;
#X obj 116 501 sel 1;
#X obj 116 527 bng 16 250 50 0 empty empty empty 0 -8 0 10 #fcfcfc #000000 #000000;
#X obj 116 553 s eq_mid1_enable_trig_1;
#X obj 230 569 spigot;
#X obj 341 579 ==;
#X obj 230 449 r eq_mid1_enable_val;
#X obj 341 475 r select;
#X obj 356 501 r bang;
#X obj 298 527 bng 16 250 50 0 empty empty empty 0 -8 0 10 #fcfcfc #000000 #000000;
#X obj 412 569 spigot;
#X obj 523 578 ==;
#X obj 412 449 r eq_mid1_enable_val;
#X obj 523 474 r select;
#X obj 538 500 r bang;
#X obj 480 526 bng 16 250 50 0 empty empty empty 0 -8 0 10 #fcfcfc #000000 #000000;
#X obj 594 569 spigot;
#X obj 705 578 ==;
#X obj 594 449 r eq_mid1_enable_val;
#X obj 705 474 r select;
#X obj 720 500 r bang;
#X obj 662 526 bng 16 250 50 0 empty empty empty 0 -8 0 10 #fcfcfc #000000 #000000;
#X obj 298 553 s eq_mid1_enable_trig_2;
#X obj 662 552 s eq_mid1_enable_trig_4;
#X msg 720 526 4;
#X obj 594 595 s eq_mid1_enable_4;
#X msg 538 526 3;
#X obj 480 552 s eq_mid1_enable_trig_3;
#X msg 356 527 2;
#X obj 230 595 s eq_mid1_enable_2;
#X obj 412 595 s eq_mid1_enable_3;
#X obj 48 780 spigot;
#X obj 159 790 ==;
#X obj 48 660 r eq_mid1_enable_val;
#X obj 159 686 r select;
#X obj 174 712 r bang;
#X obj 116 738 bng 16 250 50 0 empty empty empty 0 -8 0 10 #fcfcfc #000000 #000000;
#X obj 230 780 spigot;
#X obj 341 790 ==;
#X obj 230 660 r eq_mid1_enable_val;
#X obj 341 686 r select;
#X obj 356 712 r bang;
#X obj 298 738 bng 16 250 50 0 empty empty empty 0 -8 0 10 #fcfcfc #000000 #000000;
#X obj 412 780 spigot;
#X obj 523 790 ==;
#X obj 412 660 r eq_mid1_enable_val;
#X obj 523 686 r select;
#X obj 538 712 r bang;
#X obj 480 738 bng 16 250 50 0 empty empty empty 0 -8 0 10 #fcfcfc #000000 #000000;
#X obj 594 780 spigot;
#X obj 705 790 ==;
#X obj 594 660 r eq_mid1_enable_val;
#X obj 705 686 r select;
#X obj 720 712 r bang;
#X obj 662 738 bng 16 250 50 0 empty empty empty 0 -8 0 10 #fcfcfc #000000 #000000;
#X msg 174 738 5;
#X obj 117 764 s eq_mid1_enable_trig_5;
#X obj 48 805 s eq_mid1_enable_5;
#X obj 230 805 s eq_mid1_enable_6;
#X obj 298 764 s eq_mid1_enable_trig_6;
#X msg 356 738 6;
#X msg 538 737 7;
#X obj 480 764 s eq_mid1_enable_trig_7;
#X obj 412 805 s eq_mid1_enable_7;
#X obj 594 805 s eq_mid1_enable_8;
#X obj 662 764 s eq_mid1_enable_trig_8;
#X msg 720 738 8;
#X obj 48 991 spigot;
#X obj 159 1001 ==;
#X obj 48 871 r eq_mid1_enable_val;
#X obj 159 897 r select;
#X obj 174 923 r bang;
#X obj 116 949 bng 16 250 50 0 empty empty empty 0 -8 0 10 #fcfcfc #000000 #000000;
#X obj 230 991 spigot;
#X obj 341 1001 ==;
#X obj 230 871 r eq_mid1_enable_val;
#X obj 341 897 r select;
#X obj 356 923 r bang;
#X obj 298 949 bng 16 250 50 0 empty empty empty 0 -8 0 10 #fcfcfc #000000 #000000;
#X obj 412 991 spigot;
#X obj 523 1001 ==;
#X obj 412 871 r eq_mid1_enable_val;
#X obj 523 897 r select;
#X obj 538 923 r bang;
#X obj 480 949 bng 16 250 50 0 empty empty empty 0 -8 0 10 #fcfcfc #000000 #000000;
#X obj 594 991 spigot;
#X obj 705 1001 ==;
#X obj 594 871 r eq_mid1_enable_val;
#X obj 705 897 r select;
#X obj 720 923 r bang;
#X obj 662 949 bng 16 250 50 0 empty empty empty 0 -8 0 10 #fcfcfc #000000 #000000;
#X obj 48 1202 spigot;
#X obj 159 1212 ==;
#X obj 48 1082 r eq_mid1_enable_val;
#X obj 159 1108 r select;
#X obj 174 1134 r bang;
#X obj 116 1160 bng 16 250 50 0 empty empty empty 0 -8 0 10 #fcfcfc #000000 #000000;
#X obj 230 1202 spigot;
#X obj 341 1212 ==;
#X obj 230 1082 r eq_mid1_enable_val;
#X obj 341 1108 r select;
#X obj 356 1134 r bang;
#X obj 298 1160 bng 16 250 50 0 empty empty empty 0 -8 0 10 #fcfcfc #000000 #000000;
#X obj 412 1202 spigot;
#X obj 523 1212 ==;
#X obj 412 1082 r eq_mid1_enable_val;
#X obj 523 1108 r select;
#X obj 538 1134 r bang;
#X obj 480 1160 bng 16 250 50 0 empty empty empty 0 -8 0 10 #fcfcfc #000000 #000000;
#X obj 594 1202 spigot;
#X obj 705 1212 ==;
#X obj 594 1082 r eq_mid1_enable_val;
#X obj 705 1108 r select;
#X obj 720 1134 r bang;
#X obj 672 1160 bng 16 250 50 0 empty empty empty 0 -8 0 10 #fcfcfc #000000 #000000;
#X msg 174 949 9;
#X obj 116 975 s eq_mid1_enable_trig_9;
#X obj 48 1016 s eq_mid1_enable_9;
#X obj 230 1016 s eq_mid1_enable_10;
#X msg 356 949 10;
#X obj 298 975 s eq_mid1_enable_trig_10;
#X msg 538 949 11;
#X obj 480 975 s eq_mid1_enable_trig_11;
#X obj 412 1016 s eq_mid1_enable_11;
#X msg 720 949 12;
#X obj 662 975 s eq_mid1_enable_trig_12;
#X obj 594 1016 s eq_mid1_enable_12;
#X msg 174 1160 13;
#X obj 117 1186 s eq_mid1_enable_trig_13;
#X obj 48 1227 s eq_mid1_enable_13;
#X obj 230 1227 s eq_mid1_enable_14;
#X obj 298 1186 s eq_mid1_enable_trig_14;
#X msg 356 1160 14;
#X msg 538 1159 15;
#X obj 480 1186 s eq_mid1_enable_trig_15;
#X obj 412 1227 s eq_mid1_enable_15;
#X obj 594 1227 s eq_mid1_enable_16;
#X obj 672 1186 s eq_mid1_enable_trig_16;
#X msg 720 1160 16;
#X obj 48 1413 spigot;
#X obj 159 1423 ==;
#X obj 48 1293 r eq_mid1_enable_val;
#X obj 159 1319 r select;
#X obj 174 1345 r bang;
#X obj 116 1371 bng 16 250 50 0 empty empty empty 0 -8 0 10 #fcfcfc #000000 #000000;
#X obj 230 1413 spigot;
#X obj 341 1423 ==;
#X obj 230 1293 r eq_mid1_enable_val;
#X obj 341 1319 r select;
#X obj 356 1345 r bang;
#X obj 298 1371 bng 16 250 50 0 empty empty empty 0 -8 0 10 #fcfcfc #000000 #000000;
#X msg 174 1371 17;
#X msg 356 1371 18;
#X obj 298 1397 s eq_mid1_enable_trig_18;
#X obj 230 1438 s eq_mid1_enable_18;
#X obj 48 1438 s eq_mid1_enable_17;
#X obj 116 1397 s eq_mid1_enable_trig_17;
#X obj 298 501 sel 2;
#X obj 480 500 sel 3;
#X obj 662 500 sel 4;
#X obj 662 712 sel 8;
#X obj 480 712 sel 7;
#X obj 298 712 sel 6;
#X obj 116 712 sel 5;
#X obj 116 923 sel 9;
#X obj 298 923 sel 10;
#X obj 480 923 sel 11;
#X obj 662 923 sel 12;
#X obj 116 1134 sel 13;
#X obj 298 1134 sel 14;
#X obj 480 1134 sel 15;
#X obj 672 1134 sel 16;
#X obj 116 1345 sel 17;
#X obj 298 1345 sel 18;
#X obj 48 365 ctlout;
#X obj 48 235 r recall_eq_mid1_enable;
#X obj 48 75 r midi_ch;
#X obj 48 101 midicc_inlet;
#X text 172 101 CC#;
#X obj 48 179 s eq_mid1_enable_val;
#X obj 56 261 r reset_eq_mid1_enable_trig;
#X obj 58 127 r reset_eq_mid1_enable_trig;
#X obj 58 153 r resetall_eq_mid1_enable;
#X obj 58 287 r resetall_eq_mid1_enable;
#X obj 134 73 r ch_eq_mid1_enable_cc;
#X obj 106 339 r midi_ch;
#X obj 64 313 r ch_eq_mid1_enable_cc;
#X floatatom 134 101 5 0 0 0 - - - 0;
#X floatatom 106 365 5 0 0 0 - - - 0;
#X floatatom 64 339 5 0 0 0 - - - 0;
#X obj 48 475 list prepend set;
#X obj 48 501 list trim;
#X obj 230 475 list prepend set;
#X obj 230 501 list trim;
#X obj 412 475 list prepend set;
#X obj 412 501 list trim;
#X obj 594 475 list prepend set;
#X obj 594 501 list trim;
#X obj 48 686 list prepend set;
#X obj 48 712 list trim;
#X obj 230 686 list prepend set;
#X obj 230 712 list trim;
#X obj 412 686 list prepend set;
#X obj 412 712 list trim;
#X obj 594 686 list prepend set;
#X obj 594 712 list trim;
#X obj 48 897 list prepend set;
#X obj 48 923 list trim;
#X obj 230 897 list prepend set;
#X obj 230 923 list trim;
#X obj 412 897 list prepend set;
#X obj 412 923 list trim;
#X obj 594 897 list prepend set;
#X obj 594 923 list trim;
#X obj 48 1108 list prepend set;
#X obj 48 1134 list trim;
#X obj 230 1108 list prepend set;
#X obj 230 1134 list trim;
#X obj 412 1108 list prepend set;
#X obj 412 1134 list trim;
#X obj 594 1108 list prepend set;
#X obj 594 1134 list trim;
#X obj 48 1319 list prepend set;
#X obj 48 1345 list trim;
#X obj 230 1319 list prepend set;
#X obj 230 1345 list trim;
#X obj 299 205 / 127;
#X msg 570 105 menusave;
#X obj 548 47 cnv 16 15 15 empty empty Autosave 20 12 0 20 #ffffff #404040 0;
#X obj 570 77 inlet;
#X text 45 1526 AVB Channel 1-2;
#X obj 27 1501 cnv 16 15 15 empty empty JU-06A 20 12 0 20 #ffffff #404040 0;
#X obj 193 1501 cnv 16 15 15 empty empty TE\ OP-1 20 12 0 20 #ffffff #404040 0;
#X text 211 1526 AVB Channel 3-4;
#X obj 359 1501 cnv 16 15 15 empty empty G2\ /1-2 20 12 0 20 #ffffff #404040 0;
#X obj 525 1501 cnv 16 15 15 empty empty G2\ /3-4 20 12 0 20 #ffffff #404040 0;
#X obj 691 1501 cnv 16 15 15 empty empty Syntakt 20 12 0 20 #ffffff #404040 0;
#X obj 857 1501 cnv 16 15 15 empty empty TR-8\ /L 20 12 0 20 #ffffff #404040 0;
#X obj 1023 1501 cnv 16 15 15 empty empty TR-8\ /R 20 12 0 20 #ffffff #404040 0;
#X obj 1189 1501 cnv 16 15 15 empty empty TR-8\ /1 20 12 0 20 #ffffff #404040 0;
#X obj 1355 1501 cnv 16 15 15 empty empty TR-8\ /2 20 12 0 20 #ffffff #404040 0;
#X obj 1521 1501 cnv 16 15 15 empty empty System-1 20 12 0 20 #ffffff #404040 0;
#X obj 1687 1501 cnv 16 15 15 empty empty Tracker+ 20 12 0 20 #ffffff #404040 0;
#X obj 1853 1501 cnv 16 15 15 empty empty Voyager 20 12 0 20 #ffffff #404040 0;
#X obj 2019 1501 cnv 16 15 15 empty empty Virus\ C\ /1-2 20 12 0 20 #ffffff #404040 0;
#X obj 2185 1501 cnv 16 15 15 empty empty Virus\ C\ /3-4 20 12 0 20 #ffffff #404040 0;
#X obj 2351 1501 cnv 16 15 15 empty empty RV-70 20 12 0 20 #ffffff #404040 0;
#X obj 2517 1501 cnv 16 15 15 empty empty TE\ KO\ II 20 12 0 20 #ffffff #404040 0;
#X obj 2683 1501 cnv 16 15 15 empty empty LXP-1 20 12 0 20 #ffffff #404040 0;
#X text 377 1526 AVB Channel 5-6;
#X text 543 1526 AVB Channel 7-8;
#X text 709 1526 AVB Channel 9-10;
#X text 875 1526 AVB Channel 11;
#X text 1041 1526 AVB Channel 12;
#X text 1539 1526 AVB Channel 15-16;
#X text 1207 1526 AVB Channel 13;
#X text 1373 1526 AVB Channel 14;
#X text 1705 1526 AVB Channel 17-18;
#X text 1871 1526 AVB Channel 19-20;
#X text 2037 1526 AVB Channel 21-22;
#X text 2203 1526 AVB Channel 23-24;
#X text 2369 1526 AVB Channel 25-26;
#X text 2535 1526 AVB Channel 27-28;
#X text 2701 1526 AVB Channel 29-30;
#X obj 570 135 s pd-avb_eq_mid1_enable.pd;
#X obj 58 1610 r bang;
#X msg 48 1746 0;
#X obj 224 1610 r bang;
#X msg 214 1746 0;
#X obj 390 1610 r bang;
#X msg 380 1746 0;
#X obj 556 1610 r bang;
#X msg 546 1746 0;
#X obj 722 1610 r bang;
#X msg 712 1746 0;
#X obj 712 1775 s recall_eq_mid1_enable;
#X obj 546 1775 s recall_eq_mid1_enable;
#X obj 380 1775 s recall_eq_mid1_enable;
#X obj 214 1775 s recall_eq_mid1_enable;
#X obj 48 1775 s recall_eq_mid1_enable;
#X obj 69 1637 r eq_mid1_enable_trig_1;
#X obj 235 1637 r eq_mid1_enable_trig_2;
#X obj 401 1637 r eq_mid1_enable_trig_3;
#X obj 567 1637 r eq_mid1_enable_trig_4;
#X obj 733 1637 r eq_mid1_enable_trig_5;
#X obj 712 1581 r eq_mid1_enable_5;
#X obj 546 1581 r eq_mid1_enable_4;
#X obj 380 1581 r eq_mid1_enable_3;
#X obj 214 1581 r eq_mid1_enable_2;
#X obj 48 1581 r eq_mid1_enable_1;
#X text 45 1557 eq_mid1 Enable;
#X text 211 1557 eq_mid1 Enable;
#X text 377 1557 eq_mid1 Enable;
#X text 542 1557 eq_mid1 Enable;
#X text 709 1557 eq_mid1 Enable;
#X obj 1220 1610 r bang;
#X msg 1210 1746 0;
#X obj 1386 1610 r bang;
#X msg 1376 1746 0;
#X obj 1552 1610 r bang;
#X msg 1542 1746 0;
#X obj 1718 1610 r bang;
#X msg 1708 1746 0;
#X obj 1884 1610 r bang;
#X msg 1874 1746 0;
#X obj 2050 1610 r bang;
#X msg 2040 1746 0;
#X obj 2216 1610 r bang;
#X msg 2206 1746 0;
#X obj 2382 1610 r bang;
#X msg 2372 1746 0;
#X obj 2548 1610 r bang;
#X msg 2538 1746 0;
#X obj 2714 1610 r bang;
#X msg 2704 1746 0;
#X obj 2880 1610 r bang;
#X msg 2870 1746 0;
#X obj 2870 1581 r eq_mid1_enable_18;
#X obj 2891 1637 r eq_mid1_enable_trig_18;
#X obj 2870 1774 s recall_eq_mid1_enable;
#X obj 2725 1637 r eq_mid1_enable_trig_17;
#X obj 2704 1581 r eq_mid1_enable_17;
#X obj 2704 1775 s recall_eq_mid1_enable;
#X obj 2538 1775 s recall_eq_mid1_enable;
#X obj 2559 1637 r eq_mid1_enable_trig_16;
#X obj 2538 1581 r eq_mid1_enable_16;
#X obj 2393 1637 r eq_mid1_enable_trig_15;
#X obj 2372 1581 r eq_mid1_enable_15;
#X obj 2206 1581 r eq_mid1_enable_14;
#X obj 2227 1637 r eq_mid1_enable_trig_14;
#X obj 2040 1581 r eq_mid1_enable_13;
#X obj 2061 1637 r eq_mid1_enable_trig_13;
#X obj 2040 1775 s recall_eq_mid1_enable;
#X obj 2206 1775 s recall_eq_mid1_enable;
#X obj 2372 1775 s recall_eq_mid1_enable;
#X obj 1874 1775 s recall_eq_mid1_enable;
#X obj 1708 1775 s recall_eq_mid1_enable;
#X obj 1542 1775 s recall_eq_mid1_enable;
#X obj 1375 1775 s recall_eq_mid1_enable;
#X obj 1210 1775 s recall_eq_mid1_enable;
#X obj 1231 1637 r eq_mid1_enable_trig_8;
#X obj 1397 1637 r eq_mid1_enable_trig_9;
#X obj 1563 1637 r eq_mid1_enable_trig_10;
#X obj 1729 1637 r eq_mid1_enable_trig_11;
#X obj 1895 1637 r eq_mid1_enable_trig_12;
#X obj 1874 1581 r eq_mid1_enable_12;
#X obj 1708 1581 r eq_mid1_enable_11;
#X obj 1541 1581 r eq_mid1_enable_10;
#X obj 1376 1581 r eq_mid1_enable_9;
#X obj 1210 1581 r eq_mid1_enable_8;
#X text 1705 1557 eq_mid1 Enable;
#X text 1871 1557 eq_mid1 Enable;
#X text 2037 1557 eq_mid1 Enable;
#X text 2203 1557 eq_mid1 Enable;
#X text 2369 1557 eq_mid1 Enable;
#X text 2535 1557 eq_mid1 Enable;
#X text 2701 1557 eq_mid1 Enable;
#X text 2867 1557 eq_mid1 Enable;
#X text 1207 1557 eq_mid1 Enable;
#X text 1373 1557 eq_mid1 Enable;
#X text 1539 1557 eq_mid1 Enable;
#X obj 888 1610 r bang;
#X msg 878 1746 0;
#X obj 1054 1610 r bang;
#X msg 1044 1746 0;
#X obj 1044 1775 s recall_eq_mid1_enable;
#X obj 878 1775 s recall_eq_mid1_enable;
#X obj 899 1637 r eq_mid1_enable_trig_6;
#X obj 1065 1637 r eq_mid1_enable_trig_7;
#X obj 1044 1581 r eq_mid1_enable_7;
#X obj 878 1581 r eq_mid1_enable_6;
#X text 875 1557 eq_mid1 Enable;
#X text 1041 1557 eq_mid1 Enable;
#X msg 279 101 set /mix/chan/\$1/eq/mid1/enable;
#X obj 299 231 == 1;
#X obj 69 1662 r resetall_eq_mid1_enable;
#X obj 69 1688 list prepend set;
#X obj 69 1714 list trim;
#X obj 235 1662 r resetall_eq_mid1_enable;
#X obj 235 1688 list prepend set;
#X obj 235 1714 list trim;
#X obj 401 1662 r resetall_eq_mid1_enable;
#X obj 401 1688 list prepend set;
#X obj 401 1714 list trim;
#X obj 567 1662 r resetall_eq_mid1_enable;
#X obj 567 1688 list prepend set;
#X obj 567 1714 list trim;
#X obj 733 1662 r resetall_eq_mid1_enable;
#X obj 733 1688 list prepend set;
#X obj 733 1714 list trim;
#X obj 899 1662 r resetall_eq_mid1_enable;
#X obj 899 1688 list prepend set;
#X obj 899 1714 list trim;
#X obj 1066 1662 r resetall_eq_mid1_enable;
#X obj 1066 1688 list prepend set;
#X obj 1066 1714 list trim;
#X obj 1232 1662 r resetall_eq_mid1_enable;
#X obj 1232 1688 list prepend set;
#X obj 1232 1714 list trim;
#X obj 1398 1662 r resetall_eq_mid1_enable;
#X obj 1398 1688 list prepend set;
#X obj 1398 1714 list trim;
#X obj 1564 1662 r resetall_eq_mid1_enable;
#X obj 1564 1688 list prepend set;
#X obj 1564 1714 list trim;
#X obj 1730 1662 r resetall_eq_mid1_enable;
#X obj 1730 1688 list prepend set;
#X obj 1730 1714 list trim;
#X obj 1896 1662 r resetall_eq_mid1_enable;
#X obj 1896 1688 list prepend set;
#X obj 1896 1714 list trim;
#X obj 2062 1662 r resetall_eq_mid1_enable;
#X obj 2062 1688 list prepend set;
#X obj 2062 1714 list trim;
#X obj 2228 1662 r resetall_eq_mid1_enable;
#X obj 2228 1688 list prepend set;
#X obj 2228 1714 list trim;
#X obj 2394 1662 r resetall_eq_mid1_enable;
#X obj 2394 1688 list prepend set;
#X obj 2394 1714 list trim;
#X obj 2560 1662 r resetall_eq_mid1_enable;
#X obj 2560 1688 list prepend set;
#X obj 2560 1714 list trim;
#X obj 2726 1662 r resetall_eq_mid1_enable;
#X obj 2726 1688 list prepend set;
#X obj 2726 1714 list trim;
#X obj 2892 1662 r resetall_eq_mid1_enable;
#X obj 2892 1688 list prepend set;
#X obj 2892 1714 list trim;
#X obj 2849 1501 cnv 16 15 15 empty empty Pro-800 20 12 0 20 #ffffff #404040 0;
#X text 2867 1526 AVB Channel 32;
#X connect 1 0 2 0;
#X connect 2 0 0 0;
#X connect 3 0 1 0;
#X connect 4 0 386 0;
#X connect 5 0 12 0;
#X connect 6 0 5 1;
#X connect 7 0 6 1;
#X connect 8 0 203 0;
#X connect 9 0 6 0;
#X connect 9 0 14 0;
#X connect 10 0 7 0;
#X connect 13 0 239 0;
#X connect 14 0 15 0;
#X connect 15 0 16 0;
#X connect 17 0 42 0;
#X connect 18 0 17 1;
#X connect 19 0 205 0;
#X connect 20 0 18 0;
#X connect 20 0 170 0;
#X connect 21 0 41 0;
#X connect 22 0 35 0;
#X connect 23 0 43 0;
#X connect 24 0 23 1;
#X connect 25 0 207 0;
#X connect 26 0 24 0;
#X connect 26 0 171 0;
#X connect 27 0 39 0;
#X connect 28 0 40 0;
#X connect 29 0 38 0;
#X connect 30 0 29 1;
#X connect 31 0 209 0;
#X connect 32 0 30 0;
#X connect 32 0 172 0;
#X connect 33 0 37 0;
#X connect 34 0 36 0;
#X connect 37 0 30 1;
#X connect 39 0 24 1;
#X connect 41 0 18 1;
#X connect 44 0 70 0;
#X connect 45 0 44 1;
#X connect 46 0 211 0;
#X connect 47 0 45 0;
#X connect 47 0 176 0;
#X connect 48 0 68 0;
#X connect 49 0 69 0;
#X connect 50 0 71 0;
#X connect 51 0 50 1;
#X connect 52 0 213 0;
#X connect 53 0 51 0;
#X connect 53 0 175 0;
#X connect 54 0 73 0;
#X connect 55 0 72 0;
#X connect 56 0 76 0;
#X connect 57 0 56 1;
#X connect 58 0 215 0;
#X connect 59 0 57 0;
#X connect 59 0 174 0;
#X connect 60 0 74 0;
#X connect 61 0 75 0;
#X connect 62 0 77 0;
#X connect 63 0 62 1;
#X connect 64 0 217 0;
#X connect 65 0 63 0;
#X connect 65 0 173 0;
#X connect 66 0 79 0;
#X connect 67 0 78 0;
#X connect 68 0 45 1;
#X connect 73 0 51 1;
#X connect 74 0 57 1;
#X connect 79 0 63 1;
#X connect 80 0 130 0;
#X connect 81 0 80 1;
#X connect 82 0 219 0;
#X connect 83 0 81 0;
#X connect 83 0 177 0;
#X connect 84 0 128 0;
#X connect 85 0 129 0;
#X connect 86 0 131 0;
#X connect 87 0 86 1;
#X connect 88 0 221 0;
#X connect 89 0 87 0;
#X connect 89 0 178 0;
#X connect 90 0 132 0;
#X connect 91 0 133 0;
#X connect 92 0 136 0;
#X connect 93 0 92 1;
#X connect 94 0 223 0;
#X connect 95 0 93 0;
#X connect 95 0 179 0;
#X connect 96 0 134 0;
#X connect 97 0 135 0;
#X connect 98 0 139 0;
#X connect 99 0 98 1;
#X connect 100 0 225 0;
#X connect 101 0 99 0;
#X connect 101 0 180 0;
#X connect 102 0 137 0;
#X connect 103 0 138 0;
#X connect 104 0 142 0;
#X connect 105 0 104 1;
#X connect 106 0 227 0;
#X connect 107 0 105 0;
#X connect 107 0 181 0;
#X connect 108 0 140 0;
#X connect 109 0 141 0;
#X connect 110 0 143 0;
#X connect 111 0 110 1;
#X connect 112 0 229 0;
#X connect 113 0 111 0;
#X connect 113 0 182 0;
#X connect 114 0 145 0;
#X connect 115 0 144 0;
#X connect 116 0 148 0;
#X connect 117 0 116 1;
#X connect 118 0 231 0;
#X connect 119 0 117 0;
#X connect 119 0 183 0;
#X connect 120 0 146 0;
#X connect 121 0 147 0;
#X connect 122 0 149 0;
#X connect 123 0 122 1;
#X connect 124 0 233 0;
#X connect 125 0 123 0;
#X connect 125 0 184 0;
#X connect 126 0 151 0;
#X connect 127 0 150 0;
#X connect 128 0 81 1;
#X connect 132 0 87 1;
#X connect 134 0 93 1;
#X connect 137 0 99 1;
#X connect 140 0 105 1;
#X connect 145 0 111 1;
#X connect 146 0 117 1;
#X connect 151 0 123 1;
#X connect 152 0 168 0;
#X connect 153 0 152 1;
#X connect 154 0 235 0;
#X connect 155 0 153 0;
#X connect 155 0 185 0;
#X connect 156 0 164 0;
#X connect 157 0 169 0;
#X connect 158 0 167 0;
#X connect 159 0 158 1;
#X connect 160 0 237 0;
#X connect 161 0 159 0;
#X connect 161 0 186 0;
#X connect 162 0 165 0;
#X connect 163 0 166 0;
#X connect 164 0 153 1;
#X connect 165 0 159 1;
#X connect 170 0 22 0;
#X connect 171 0 28 0;
#X connect 172 0 34 0;
#X connect 173 0 67 0;
#X connect 174 0 61 0;
#X connect 175 0 55 0;
#X connect 176 0 49 0;
#X connect 177 0 85 0;
#X connect 178 0 91 0;
#X connect 179 0 97 0;
#X connect 180 0 103 0;
#X connect 181 0 109 0;
#X connect 182 0 115 0;
#X connect 183 0 121 0;
#X connect 184 0 127 0;
#X connect 185 0 157 0;
#X connect 186 0 163 0;
#X connect 188 0 187 0;
#X connect 189 0 190 0;
#X connect 190 0 192 0;
#X connect 193 0 187 0;
#X connect 194 0 192 0;
#X connect 195 0 192 0;
#X connect 196 0 187 0;
#X connect 197 0 200 0;
#X connect 198 0 201 0;
#X connect 199 0 202 0;
#X connect 200 0 190 1;
#X connect 201 0 187 2;
#X connect 202 0 187 1;
#X connect 203 0 204 0;
#X connect 204 0 5 0;
#X connect 205 0 206 0;
#X connect 206 0 17 0;
#X connect 207 0 208 0;
#X connect 208 0 23 0;
#X connect 209 0 210 0;
#X connect 210 0 29 0;
#X connect 211 0 212 0;
#X connect 212 0 44 0;
#X connect 213 0 214 0;
#X connect 214 0 50 0;
#X connect 215 0 216 0;
#X connect 216 0 56 0;
#X connect 217 0 218 0;
#X connect 218 0 62 0;
#X connect 219 0 220 0;
#X connect 220 0 80 0;
#X connect 221 0 222 0;
#X connect 222 0 86 0;
#X connect 223 0 224 0;
#X connect 224 0 92 0;
#X connect 225 0 226 0;
#X connect 226 0 98 0;
#X connect 227 0 228 0;
#X connect 228 0 104 0;
#X connect 229 0 230 0;
#X connect 230 0 110 0;
#X connect 231 0 232 0;
#X connect 232 0 116 0;
#X connect 233 0 234 0;
#X connect 234 0 122 0;
#X connect 235 0 236 0;
#X connect 236 0 152 0;
#X connect 237 0 238 0;
#X connect 238 0 158 0;
#X connect 239 0 387 0;
#X connect 240 0 277 0;
#X connect 242 0 240 0;
#X connect 278 0 279 0;
#X connect 279 0 292 0;
#X connect 280 0 281 0;
#X connect 281 0 291 0;
#X connect 282 0 283 0;
#X connect 283 0 290 0;
#X connect 284 0 285 0;
#X connect 285 0 289 0;
#X connect 286 0 287 0;
#X connect 287 0 288 0;
#X connect 293 0 279 0;
#X connect 294 0 281 0;
#X connect 295 0 283 0;
#X connect 296 0 285 0;
#X connect 297 0 287 0;
#X connect 298 0 287 0;
#X connect 299 0 285 0;
#X connect 300 0 283 0;
#X connect 301 0 281 0;
#X connect 302 0 279 0;
#X connect 308 0 309 0;
#X connect 309 0 352 0;
#X connect 310 0 311 0;
#X connect 311 0 351 0;
#X connect 312 0 313 0;
#X connect 313 0 350 0;
#X connect 314 0 315 0;
#X connect 315 0 349 0;
#X connect 316 0 317 0;
#X connect 317 0 348 0;
#X connect 318 0 319 0;
#X connect 319 0 345 0;
#X connect 320 0 321 0;
#X connect 321 0 346 0;
#X connect 322 0 323 0;
#X connect 323 0 347 0;
#X connect 324 0 325 0;
#X connect 325 0 336 0;
#X connect 326 0 327 0;
#X connect 327 0 335 0;
#X connect 328 0 329 0;
#X connect 329 0 332 0;
#X connect 330 0 329 0;
#X connect 331 0 329 0;
#X connect 333 0 327 0;
#X connect 334 0 327 0;
#X connect 337 0 325 0;
#X connect 338 0 325 0;
#X connect 339 0 323 0;
#X connect 340 0 323 0;
#X connect 341 0 321 0;
#X connect 342 0 321 0;
#X connect 343 0 319 0;
#X connect 344 0 319 0;
#X connect 353 0 309 0;
#X connect 354 0 311 0;
#X connect 355 0 313 0;
#X connect 356 0 315 0;
#X connect 357 0 317 0;
#X connect 358 0 317 0;
#X connect 359 0 315 0;
#X connect 360 0 313 0;
#X connect 361 0 311 0;
#X connect 362 0 309 0;
#X connect 374 0 375 0;
#X connect 375 0 379 0;
#X connect 376 0 377 0;
#X connect 377 0 378 0;
#X connect 380 0 375 0;
#X connect 381 0 377 0;
#X connect 382 0 377 0;
#X connect 383 0 375 0;
#X connect 386 0 2 0;
#X connect 387 0 2 0;
#X connect 388 0 389 0;
#X connect 389 0 390 0;
#X connect 390 0 279 0;
#X connect 391 0 392 0;
#X connect 392 0 393 0;
#X connect 393 0 281 0;
#X connect 394 0 395 0;
#X connect 395 0 396 0;
#X connect 396 0 283 0;
#X connect 397 0 398 0;
#X connect 398 0 399 0;
#X connect 399 0 285 0;
#X connect 400 0 401 0;
#X connect 401 0 402 0;
#X connect 402 0 287 0;
#X connect 403 0 404 0;
#X connect 404 0 405 0;
#X connect 405 0 375 0;
#X connect 406 0 407 0;
#X connect 407 0 408 0;
#X connect 408 0 377 0;
#X connect 409 0 410 0;
#X connect 410 0 411 0;
#X connect 411 0 309 0;
#X connect 412 0 413 0;
#X connect 413 0 414 0;
#X connect 414 0 311 0;
#X connect 415 0 416 0;
#X connect 416 0 417 0;
#X connect 417 0 313 0;
#X connect 418 0 419 0;
#X connect 419 0 420 0;
#X connect 420 0 315 0;
#X connect 421 0 422 0;
#X connect 422 0 423 0;
#X connect 423 0 317 0;
#X connect 424 0 425 0;
#X connect 425 0 426 0;
#X connect 426 0 319 0;
#X connect 427 0 428 0;
#X connect 428 0 429 0;
#X connect 429 0 321 0;
#X connect 430 0 431 0;
#X connect 431 0 432 0;
#X connect 432 0 323 0;
#X connect 433 0 434 0;
#X connect 434 0 435 0;
#X connect 435 0 325 0;
#X connect 436 0 437 0;
#X connect 437 0 438 0;
#X connect 438 0 327 0;
#X connect 439 0 440 0;
#X connect 440 0 441 0;
#X connect 441 0 329 0;
