#N canvas 1634 229 771 765 10;
#X obj 278 355 ctlout;
#X obj 278 75 r midi_ch;
#X obj 278 101 midicc_inlet;
#X obj 258 47 cnv 16 15 15 empty empty Reverb\ Level 20 12 0 20 #ffffff #404040 0;
#X obj 288 153 r resetall_level;
#X obj 288 277 r resetall_level;
#X obj 278 720 send osc;
#X obj 278 642 mtof_inlet;
#X obj 48 75 r midi_ch;
#X obj 48 101 midicc_inlet;
#X obj 28 47 cnv 16 15 15 empty empty Recall 20 12 0 20 #ffffff #404040 0;
#X obj 528 355 ctlout;
#X obj 528 75 r midi_ch;
#X obj 528 101 midicc_inlet;
#X obj 508 47 cnv 16 15 15 empty empty Reverb\ Solo 20 12 0 20 #ffffff #404040 0;
#X obj 528 720 send osc;
#X obj 528 642 / 127;
#X obj 778 355 ctlout;
#X obj 778 75 r midi_ch;
#X obj 778 101 midicc_inlet;
#X obj 758 47 cnv 16 15 15 empty empty Reverb\ Mute 20 12 0 20 #ffffff #404040 0;
#X obj 778 720 send osc;
#X obj 788 277 r resetall_mute;
#X obj 787 153 r resetall_mute;
#X obj 778 642 / 127;
#X obj 48 129 s recall_reverb;
#X obj 537 153 r resetall_solo;
#X obj 778 179 s mute_reverb_val;
#X obj 278 179 s level_reverb_val;
#X obj 528 179 s solo_reverb_val;
#X obj 278 225 r recall_reverb_level;
#X obj 778 225 r recall_reverb_mute;
#X obj 528 225 r recall_reverb_solo;
#X obj 538 277 r resetall_solo;
#X obj 278 616 r level_reverb_val;
#X obj 528 616 r solo_reverb_val;
#X obj 778 616 r mute_reverb_val;
#X obj 778 694 oscformat /mix/reverb/0/matrix/mute;
#X obj 528 694 oscformat /mix/reverb/0/matrix/solo;
#X obj 278 4929 ctlout;
#X obj 278 4649 r midi_ch;
#X obj 278 4675 midicc_inlet;
#X obj 258 4621 cnv 16 15 15 empty empty Reverb\ Enable 20 12 0 20 #ffffff #404040 0;
#X obj 278 5294 send osc;
#X obj 278 5216 / 127;
#X obj 278 5268 oscformat /mix/reverb/0/reverb/enable;
#X obj 334 329 r midi_ch;
#X floatatom 334 355 5 0 0 0 - - - 0;
#X obj 586 328 r midi_ch;
#X floatatom 586 354 5 0 0 0 - - - 0;
#X obj 836 329 r midi_ch;
#X floatatom 836 355 5 0 0 0 - - - 0;
#X floatatom 294 329 5 0 0 0 - - - 0;
#X floatatom 544 328 5 0 0 0 - - - 0;
#X floatatom 794 329 5 0 0 0 - - - 0;
#X obj 134 75 r recall_cc;
#X floatatom 134 101 5 0 0 0 - - - 0;
#X text 168 100 CC#;
#X floatatom 364 101 5 0 0 0 - - - 0;
#X text 398 100 CC#;
#X floatatom 864 101 5 0 0 0 - - - 0;
#X text 898 100 CC#;
#X floatatom 614 101 5 0 0 0 - - - 0;
#X text 648 100 CC#;
#X obj 364 75 r reverb_level_cc;
#X obj 614 74 r reverb_solo_cc;
#X obj 864 75 r reverb_mute_cc;
#X floatatom 374 4675 5 0 0 0 - - - 0;
#X text 408 4674 CC#;
#X obj 334 4903 r midi_ch;
#X floatatom 334 4929 5 0 0 0 - - - 0;
#X floatatom 294 4903 5 0 0 0 - - - 0;
#X obj 294 303 r reverb_level_cc;
#X obj 544 302 r reverb_solo_cc;
#X obj 794 303 r reverb_mute_cc;
#X obj 1028 355 ctlout;
#X obj 1028 75 r midi_ch;
#X obj 1028 101 midicc_inlet;
#X obj 1008 47 cnv 16 15 15 empty empty Reverb\ Main 20 12 0 20 #ffffff #404040 0;
#X obj 1028 720 send osc;
#X obj 1028 642 mtof_inlet;
#X obj 1084 329 r midi_ch;
#X floatatom 1084 355 5 0 0 0 - - - 0;
#X floatatom 1044 329 5 0 0 0 - - - 0;
#X floatatom 1114 101 5 0 0 0 - - - 0;
#X text 1148 100 CC#;
#X obj 1028 694 oscformat /mix/reverb/0/matrix/main/0/send;
#X obj 1028 616 r main_reverb_val;
#X obj 1028 225 r recall_reverb_main;
#X obj 1038 277 r resetall_main;
#X obj 1044 303 r reverb_main_cc;
#X obj 1028 179 s main_reverb_val;
#X obj 1038 153 r resetall_main;
#X obj 1114 75 r reverb_main_cc;
#X msg 48 243 menusave;
#X obj 26 185 cnv 16 15 15 empty empty Autosave 20 12 0 20 #ffffff #404040 0;
#X obj 48 215 inlet;
#X obj 48 273 s pd-avb_reverb.pd;
#X obj 288 127 r reset_reverb_level_trig;
#X obj 286 251 r reset_reverb_level_trig;
#X obj 538 127 r reset_reverb_solo_trig;
#X obj 536 251 r reset_reverb_solo_trig;
#X obj 786 251 r reset_reverb_mute_trig;
#X obj 788 127 r reset_reverb_mute_trig;
#X obj 1038 127 r reset_reverb_main_trig;
#X obj 1036 251 r reset_reverb_main_trig;
#X obj 278 694 oscformat /mix/reverb/0/matrix/fader;
#X obj 288 4727 r resetall_reverb_enable;
#X obj 288 4851 r resetall_reverb_enable;
#X obj 294 4877 r reverb_enable_cc;
#X obj 288 4701 r reset_reverb_enable_trig;
#X obj 286 4825 r reset_reverb_enable_trig;
#X obj 288 485 r bang;
#X msg 278 541 127;
#X obj 278 401 r level_reverb_val;
#X obj 299 512 r recall_reverb;
#X obj 278 570 s recall_reverb_level;
#X obj 278 430 list prepend set;
#X obj 278 456 list trim;
#X obj 278 4799 r recall_reverb_enable;
#X obj 278 5190 r enable_reverb_val;
#X obj 538 485 r bang;
#X msg 528 541 0;
#X obj 549 512 r recall_reverb;
#X obj 528 401 r solo_reverb_val;
#X obj 528 570 s recall_reverb_solo;
#X obj 528 430 list prepend set;
#X obj 528 456 list trim;
#X obj 788 485 r bang;
#X msg 778 541 0;
#X obj 799 512 r recall_reverb;
#X obj 778 401 r mute_reverb_val;
#X obj 778 570 s recall_reverb_mute;
#X obj 778 430 list prepend set;
#X obj 778 456 list trim;
#X obj 1038 485 r bang;
#X msg 1028 541 127;
#X obj 1049 512 r recall_reverb;
#X obj 1028 401 r main_reverb_val;
#X obj 1028 570 s recall_reverb_main;
#X obj 1028 430 list prepend set;
#X obj 1028 456 list trim;
#X obj 278 1115 ctlout;
#X obj 278 835 r midi_ch;
#X obj 278 861 midicc_inlet;
#X obj 258 807 cnv 16 15 15 empty empty EQ\ High\ Enable 20 12 0 20 #ffffff #404040 0;
#X obj 288 913 r resetall_eq_high_enable;
#X obj 278 939 s eq_high_enable_reverb_val;
#X obj 288 1037 r resetall_eq_high_enable;
#X obj 278 985 r recall_reverb_eq_high_enable;
#X obj 278 1485 send osc;
#X obj 278 1381 r eq_high_enable_reverb_val;
#X obj 364 835 r reverb_eq_high_enable_cc;
#X floatatom 364 861 5 0 0 0 - - - 0;
#X text 398 860 CC#;
#X obj 334 1089 r midi_ch;
#X floatatom 334 1115 5 0 0 0 - - - 0;
#X obj 294 1063 r reverb_eq_high_enable_cc;
#X floatatom 294 1089 5 0 0 0 - - - 0;
#X obj 288 1249 r bang;
#X obj 278 1334 s recall_reverb_eq_high_enable;
#X obj 298 1278 r recall_reverb;
#X obj 278 1165 r eq_high_enable_reverb_val;
#X obj 278 1194 list prepend set;
#X obj 278 1220 list trim;
#X obj 278 1459 oscformat /mix/reverb/0/eq/highshelf/enable;
#X obj 288 887 r reset_reverb_eq_high_enable_trig;
#X obj 286 1011 r reset_reverb_eq_high_enable_trig;
#X obj 278 1407 / 127;
#X obj 558 1115 ctlout;
#X obj 558 835 r midi_ch;
#X obj 558 861 midicc_inlet;
#X obj 538 807 cnv 16 15 15 empty empty EQ\ High\ Gain 20 12 0 20 #ffffff #404040 0;
#X obj 568 913 r resetall_eq_high_gain;
#X obj 558 939 s eq_high_gain_reverb_val;
#X obj 568 1037 r resetall_eq_high_gain;
#X obj 558 985 r recall_reverb_eq_high_gain;
#X obj 558 1511 send osc;
#X obj 558 1381 r eq_high_gain_reverb_val;
#X obj 644 835 r reverb_eq_high_gain_cc;
#X floatatom 644 861 5 0 0 0 - - - 0;
#X text 678 860 CC#;
#X obj 614 1089 r midi_ch;
#X floatatom 614 1115 5 0 0 0 - - - 0;
#X obj 574 1063 r reverb_eq_high_gain_cc;
#X floatatom 574 1089 5 0 0 0 - - - 0;
#X obj 568 1249 r bang;
#X msg 558 1305 63;
#X obj 558 1334 s recall_reverb_eq_high_gain;
#X obj 578 1278 r recall_reverb;
#X obj 558 1165 r eq_high_gain_reverb_val;
#X obj 558 1194 list prepend set;
#X obj 558 1220 list trim;
#X obj 558 1485 oscformat /mix/reverb/0/eq/highshelf/gain;
#X obj 568 887 r reset_reverb_eq_high_gain_trig;
#X obj 566 1011 r reset_reverb_eq_high_gain_trig;
#X obj 838 1115 ctlout;
#X obj 838 835 r midi_ch;
#X obj 838 861 midicc_inlet;
#X obj 818 807 cnv 16 15 15 empty empty EQ\ High\ Freq 20 12 0 20 #ffffff #404040 0;
#X obj 848 913 r resetall_eq_high_freq;
#X obj 838 939 s eq_high_freq_reverb_val;
#X obj 848 1037 r resetall_eq_high_freq;
#X obj 838 985 r recall_reverb_eq_high_freq;
#X obj 838 1511 send osc;
#X obj 838 1381 r eq_high_freq_reverb_val;
#X obj 924 835 r reverb_eq_high_freq_cc;
#X floatatom 924 861 5 0 0 0 - - - 0;
#X text 958 860 CC#;
#X obj 894 1089 r midi_ch;
#X floatatom 894 1115 5 0 0 0 - - - 0;
#X obj 854 1063 r reverb_eq_high_freq_cc;
#X floatatom 854 1089 5 0 0 0 - - - 0;
#X obj 848 1249 r bang;
#X msg 838 1305 115;
#X obj 838 1334 s recall_reverb_eq_high_freq;
#X obj 858 1278 r recall_reverb;
#X obj 838 1165 r eq_high_freq_reverb_val;
#X obj 838 1194 list prepend set;
#X obj 838 1220 list trim;
#X obj 838 1485 oscformat /mix/reverb/0/eq/highshelf/freq;
#X obj 848 887 r reset_reverb_eq_high_freq_trig;
#X obj 846 1011 r reset_reverb_eq_high_freq_trig;
#X obj 1128 1115 ctlout;
#X obj 1128 835 r midi_ch;
#X obj 1128 861 midicc_inlet;
#X obj 1108 807 cnv 16 15 15 empty empty EQ\ High\ Mode 20 12 0 20 #ffffff #404040 0;
#X obj 1138 913 r resetall_eq_high_mode;
#X obj 1128 939 s eq_high_mode_reverb_val;
#X obj 1138 1037 r resetall_eq_high_mode;
#X obj 1128 985 r recall_reverb_eq_high_mode;
#X obj 1128 1459 send osc;
#X obj 1128 1381 r eq_high_mode_reverb_val;
#X obj 1214 835 r reverb_eq_high_mode_cc;
#X floatatom 1214 861 5 0 0 0 - - - 0;
#X text 1248 860 CC#;
#X obj 1184 1089 r midi_ch;
#X floatatom 1184 1115 5 0 0 0 - - - 0;
#X obj 1144 1063 r reverb_eq_high_mode_cc;
#X floatatom 1144 1089 5 0 0 0 - - - 0;
#X obj 1138 1249 r bang;
#X msg 1128 1305 127;
#X obj 1128 1334 s recall_reverb_eq_high_mode;
#X obj 1148 1278 r recall_reverb;
#X obj 1128 1165 r eq_high_mode_reverb_val;
#X obj 1128 1194 list prepend set;
#X obj 1128 1220 list trim;
#X obj 1128 1433 oscformat /mix/reverb/0/eq/highshelf/mode;
#X obj 1138 887 r reset_reverb_eq_high_mode_trig;
#X obj 1136 1011 r reset_reverb_eq_high_mode_trig;
#X obj 1128 1407 / 127;
#X obj 1418 1115 ctlout;
#X obj 1418 835 r midi_ch;
#X obj 1418 861 midicc_inlet;
#X obj 1398 807 cnv 16 15 15 empty empty EQ\ High\ BW 20 12 0 20 #ffffff #404040 0;
#X obj 1428 913 r resetall_eq_high_bw;
#X obj 1418 939 s eq_high_bw_reverb_val;
#X obj 1428 1037 r resetall_eq_high_bw;
#X obj 1418 985 r recall_reverb_eq_high_bw;
#X obj 1418 1511 send osc;
#X obj 1418 1381 r eq_high_bw_reverb_val;
#X obj 1504 835 r reverb_eq_high_bw_cc;
#X floatatom 1504 861 5 0 0 0 - - - 0;
#X text 1538 860 CC#;
#X obj 1474 1089 r midi_ch;
#X floatatom 1474 1115 5 0 0 0 - - - 0;
#X obj 1434 1063 r reverb_eq_high_bw_cc;
#X floatatom 1434 1089 5 0 0 0 - - - 0;
#X obj 1428 1249 r bang;
#X msg 1418 1305 42;
#X obj 1418 1334 s recall_reverb_eq_high_bw;
#X obj 1438 1278 r recall_reverb;
#X obj 1418 1165 r eq_high_bw_reverb_val;
#X obj 1418 1194 list prepend set;
#X obj 1418 1220 list trim;
#X obj 1418 1485 oscformat /mix/reverb/0/eq/highshelf/bw;
#X obj 1428 887 r reset_reverb_eq_high_bw_trig;
#X obj 1426 1011 r reset_reverb_eq_high_bw_trig;
#X obj 1418 1407 / 127;
#X obj 558 1407 / 127;
#X obj 558 1459 - 20;
#X obj 558 1433 * 40;
#X obj 838 1433 * 20000;
#X obj 838 1407 mtof_inlet;
#X obj 1418 1459 max 0.01;
#X obj 1418 1433 * 3;
#X obj 278 1882 ctlout;
#X obj 278 1602 r midi_ch;
#X obj 278 1628 midicc_inlet;
#X obj 258 1574 cnv 16 15 15 empty empty EQ\ Mid1\ Enable 20 12 0 20 #ffffff #404040 0;
#X obj 288 1680 r resetall_eq_mid1_enable;
#X obj 278 1706 s eq_mid1_enable_reverb_val;
#X obj 288 1804 r resetall_eq_mid1_enable;
#X obj 278 1752 r recall_reverb_eq_mid1_enable;
#X obj 278 2252 send osc;
#X obj 278 2148 r eq_mid1_enable_reverb_val;
#X obj 364 1602 r reverb_eq_mid1_enable_cc;
#X floatatom 364 1628 5 0 0 0 - - - 0;
#X text 398 1627 CC#;
#X obj 334 1856 r midi_ch;
#X floatatom 334 1882 5 0 0 0 - - - 0;
#X obj 294 1830 r reverb_eq_mid1_enable_cc;
#X floatatom 294 1856 5 0 0 0 - - - 0;
#X obj 288 2016 r bang;
#X msg 278 2072 0;
#X obj 278 2101 s recall_reverb_eq_mid1_enable;
#X obj 298 2045 r recall_reverb;
#X obj 278 1932 r eq_mid1_enable_reverb_val;
#X obj 278 1961 list prepend set;
#X obj 278 1987 list trim;
#X obj 278 2226 oscformat /mix/reverb/0/eq/mid1/enable;
#X obj 288 1654 r reset_reverb_eq_mid1_enable_trig;
#X obj 286 1778 r reset_reverb_eq_mid1_enable_trig;
#X obj 278 2174 / 127;
#X obj 558 1882 ctlout;
#X obj 558 1602 r midi_ch;
#X obj 558 1628 midicc_inlet;
#X obj 538 1574 cnv 16 15 15 empty empty EQ\ Mid1\ Gain 20 12 0 20 #ffffff #404040 0;
#X obj 568 1680 r resetall_eq_mid1_gain;
#X obj 558 1706 s eq_mid1_gain_reverb_val;
#X obj 568 1804 r resetall_eq_mid1_gain;
#X obj 558 1752 r recall_reverb_eq_mid1_gain;
#X obj 558 2278 send osc;
#X obj 558 2148 r eq_mid1_gain_reverb_val;
#X obj 644 1602 r reverb_eq_mid1_gain_cc;
#X floatatom 644 1628 5 0 0 0 - - - 0;
#X text 678 1627 CC#;
#X obj 614 1856 r midi_ch;
#X floatatom 614 1882 5 0 0 0 - - - 0;
#X obj 574 1830 r reverb_eq_mid1_gain_cc;
#X floatatom 574 1856 5 0 0 0 - - - 0;
#X obj 568 2016 r bang;
#X msg 558 2072 63;
#X obj 558 2101 s recall_reverb_eq_mid1_gain;
#X obj 578 2045 r recall_reverb;
#X obj 558 1932 r eq_mid1_gain_reverb_val;
#X obj 558 1961 list prepend set;
#X obj 558 1987 list trim;
#X obj 558 2252 oscformat /mix/reverb/0/eq/mid1/gain;
#X obj 568 1654 r reset_reverb_eq_mid1_gain_trig;
#X obj 566 1778 r reset_reverb_eq_mid1_gain_trig;
#X obj 838 1882 ctlout;
#X obj 838 1602 r midi_ch;
#X obj 838 1628 midicc_inlet;
#X obj 818 1574 cnv 16 15 15 empty empty EQ\ Mid1\ Freq 20 12 0 20 #ffffff #404040 0;
#X obj 848 1680 r resetall_eq_mid1_freq;
#X obj 838 1706 s eq_mid1_freq_reverb_val;
#X obj 848 1804 r resetall_eq_mid1_freq;
#X obj 838 1752 r recall_reverb_eq_mid1_freq;
#X obj 838 2278 send osc;
#X obj 838 2148 r eq_mid1_freq_reverb_val;
#X obj 924 1602 r reverb_eq_mid1_freq_cc;
#X floatatom 924 1628 5 0 0 0 - - - 0;
#X text 958 1627 CC#;
#X obj 894 1856 r midi_ch;
#X floatatom 894 1882 5 0 0 0 - - - 0;
#X obj 854 1830 r reverb_eq_mid1_freq_cc;
#X floatatom 854 1856 5 0 0 0 - - - 0;
#X obj 848 2016 r bang;
#X msg 838 2072 82;
#X obj 838 2101 s recall_reverb_eq_mid1_freq;
#X obj 858 2045 r recall_reverb;
#X obj 838 1932 r eq_mid1_freq_reverb_val;
#X obj 838 1961 list prepend set;
#X obj 838 1987 list trim;
#X obj 838 2252 oscformat /mix/reverb/0/eq/mid1/freq;
#X obj 848 1654 r reset_reverb_eq_mid1_freq_trig;
#X obj 846 1778 r reset_reverb_eq_mid1_freq_trig;
#X obj 1128 1882 ctlout;
#X obj 1128 1602 r midi_ch;
#X obj 1128 1628 midicc_inlet;
#X obj 1108 1574 cnv 16 15 15 empty empty EQ\ Mid1\ BW 20 12 0 20 #ffffff #404040 0;
#X obj 1138 1680 r resetall_eq_mid1_bw;
#X obj 1128 1706 s eq_mid1_bw_reverb_val;
#X obj 1138 1804 r resetall_eq_mid1_bw;
#X obj 1128 1752 r recall_reverb_eq_mid1_bw;
#X obj 1128 2278 send osc;
#X obj 1128 2148 r eq_mid1_bw_reverb_val;
#X obj 1214 1602 r reverb_eq_mid1_bw_cc;
#X floatatom 1214 1628 5 0 0 0 - - - 0;
#X text 1248 1627 CC#;
#X obj 1184 1856 r midi_ch;
#X floatatom 1184 1882 5 0 0 0 - - - 0;
#X obj 1144 1830 r reverb_eq_mid1_bw_cc;
#X floatatom 1144 1856 5 0 0 0 - - - 0;
#X obj 1138 2016 r bang;
#X msg 1128 2072 42;
#X obj 1128 2101 s recall_reverb_eq_mid1_bw;
#X obj 1148 2045 r recall_reverb;
#X obj 1128 1932 r eq_mid1_bw_reverb_val;
#X obj 1128 1961 list prepend set;
#X obj 1128 1987 list trim;
#X obj 1128 2252 oscformat /mix/reverb/0/eq/mid1/bw;
#X obj 1138 1654 r reset_reverb_eq_mid1_bw_trig;
#X obj 1136 1778 r reset_reverb_eq_mid1_bw_trig;
#X obj 1128 2174 / 127;
#X obj 558 2174 / 127;
#X obj 558 2226 - 20;
#X obj 558 2200 * 40;
#X obj 838 2200 * 20000;
#X obj 838 2174 mtof_inlet;
#X obj 1128 2226 max 0.01;
#X obj 1128 2200 * 3;
#X obj 278 2649 ctlout;
#X obj 278 2369 r midi_ch;
#X obj 278 2395 midicc_inlet;
#X obj 258 2341 cnv 16 15 15 empty empty EQ\ Mid2\ Enable 20 12 0 20 #ffffff #404040 0;
#X obj 288 2447 r resetall_eq_mid2_enable;
#X obj 278 2473 s eq_mid2_enable_reverb_val;
#X obj 288 2571 r resetall_eq_mid2_enable;
#X obj 278 2519 r recall_reverb_eq_mid2_enable;
#X obj 278 3019 send osc;
#X obj 278 2915 r eq_mid2_enable_reverb_val;
#X obj 364 2369 r reverb_eq_mid2_enable_cc;
#X floatatom 364 2395 5 0 0 0 - - - 0;
#X text 398 2394 CC#;
#X obj 334 2623 r midi_ch;
#X floatatom 334 2649 5 0 0 0 - - - 0;
#X obj 294 2597 r reverb_eq_mid2_enable_cc;
#X floatatom 294 2623 5 0 0 0 - - - 0;
#X obj 288 2783 r bang;
#X msg 278 2839 0;
#X obj 278 2868 s recall_reverb_eq_mid2_enable;
#X obj 298 2812 r recall_reverb;
#X obj 278 2699 r eq_mid2_enable_reverb_val;
#X obj 278 2728 list prepend set;
#X obj 278 2754 list trim;
#X obj 278 2993 oscformat /mix/reverb/0/eq/mid2/enable;
#X obj 288 2421 r reset_reverb_eq_mid2_enable_trig;
#X obj 286 2545 r reset_reverb_eq_mid2_enable_trig;
#X obj 278 2941 / 127;
#X obj 558 2649 ctlout;
#X obj 558 2369 r midi_ch;
#X obj 558 2395 midicc_inlet;
#X obj 538 2341 cnv 16 15 15 empty empty EQ\ Mid2\ Gain 20 12 0 20 #ffffff #404040 0;
#X obj 568 2447 r resetall_eq_mid2_gain;
#X obj 558 2473 s eq_mid2_gain_reverb_val;
#X obj 568 2571 r resetall_eq_mid2_gain;
#X obj 558 2519 r recall_reverb_eq_mid2_gain;
#X obj 558 3045 send osc;
#X obj 558 2915 r eq_mid2_gain_reverb_val;
#X obj 644 2369 r reverb_eq_mid2_gain_cc;
#X floatatom 644 2395 5 0 0 0 - - - 0;
#X text 678 2394 CC#;
#X obj 614 2623 r midi_ch;
#X floatatom 614 2649 5 0 0 0 - - - 0;
#X obj 574 2597 r reverb_eq_mid2_gain_cc;
#X floatatom 574 2623 5 0 0 0 - - - 0;
#X obj 568 2783 r bang;
#X msg 558 2839 63;
#X obj 558 2868 s recall_reverb_eq_mid2_gain;
#X obj 578 2812 r recall_reverb;
#X obj 558 2699 r eq_mid2_gain_reverb_val;
#X obj 558 2728 list prepend set;
#X obj 558 2754 list trim;
#X obj 558 3019 oscformat /mix/reverb/0/eq/mid2/gain;
#X obj 568 2421 r reset_reverb_eq_mid2_gain_trig;
#X obj 566 2545 r reset_reverb_eq_mid2_gain_trig;
#X obj 838 2649 ctlout;
#X obj 838 2369 r midi_ch;
#X obj 838 2395 midicc_inlet;
#X obj 818 2341 cnv 16 15 15 empty empty EQ\ Mid2\ Freq 20 12 0 20 #ffffff #404040 0;
#X obj 848 2447 r resetall_eq_mid2_freq;
#X obj 838 2473 s eq_mid2_freq_reverb_val;
#X obj 848 2571 r resetall_eq_mid2_freq;
#X obj 838 2519 r recall_reverb_eq_mid2_freq;
#X obj 838 3045 send osc;
#X obj 838 2915 r eq_mid2_freq_reverb_val;
#X obj 924 2369 r reverb_eq_mid2_freq_cc;
#X floatatom 924 2395 5 0 0 0 - - - 0;
#X text 958 2394 CC#;
#X obj 894 2623 r midi_ch;
#X floatatom 894 2649 5 0 0 0 - - - 0;
#X obj 854 2597 r reverb_eq_mid2_freq_cc;
#X floatatom 854 2623 5 0 0 0 - - - 0;
#X obj 848 2783 r bang;
#X msg 838 2839 103;
#X obj 838 2868 s recall_reverb_eq_mid2_freq;
#X obj 858 2812 r recall_reverb;
#X obj 838 2699 r eq_mid2_freq_reverb_val;
#X obj 838 2728 list prepend set;
#X obj 838 2754 list trim;
#X obj 838 3019 oscformat /mix/reverb/0/eq/mid2/freq;
#X obj 848 2421 r reset_reverb_eq_mid2_freq_trig;
#X obj 846 2545 r reset_reverb_eq_mid2_freq_trig;
#X obj 1128 2649 ctlout;
#X obj 1128 2369 r midi_ch;
#X obj 1128 2395 midicc_inlet;
#X obj 1108 2341 cnv 16 15 15 empty empty EQ\ Mid2\ BW 20 12 0 20 #ffffff #404040 0;
#X obj 1138 2447 r resetall_eq_mid2_bw;
#X obj 1128 2473 s eq_mid2_bw_reverb_val;
#X obj 1138 2571 r resetall_eq_mid2_bw;
#X obj 1128 2519 r recall_reverb_eq_mid2_bw;
#X obj 1128 3045 send osc;
#X obj 1128 2915 r eq_mid2_bw_reverb_val;
#X obj 1214 2369 r reverb_eq_mid2_bw_cc;
#X floatatom 1214 2395 5 0 0 0 - - - 0;
#X text 1248 2394 CC#;
#X obj 1184 2623 r midi_ch;
#X floatatom 1184 2649 5 0 0 0 - - - 0;
#X obj 1144 2597 r reverb_eq_mid2_bw_cc;
#X floatatom 1144 2623 5 0 0 0 - - - 0;
#X obj 1138 2783 r bang;
#X msg 1128 2839 42;
#X obj 1128 2868 s recall_reverb_eq_mid2_bw;
#X obj 1148 2812 r recall_reverb;
#X obj 1128 2699 r eq_mid2_bw_reverb_val;
#X obj 1128 2728 list prepend set;
#X obj 1128 2754 list trim;
#X obj 1128 3019 oscformat /mix/reverb/0/eq/mid2/bw;
#X obj 1138 2421 r reset_reverb_eq_mid2_bw_trig;
#X obj 1136 2545 r reset_reverb_eq_mid2_bw_trig;
#X obj 1128 2941 / 127;
#X obj 558 2941 / 127;
#X obj 558 2993 - 20;
#X obj 558 2967 * 40;
#X obj 838 2967 * 20000;
#X obj 838 2941 mtof_inlet;
#X obj 1128 2993 max 0.01;
#X obj 1128 2967 * 3;
#X obj 278 3415 ctlout;
#X obj 278 3135 r midi_ch;
#X obj 278 3161 midicc_inlet;
#X obj 258 3107 cnv 16 15 15 empty empty EQ\ Low\ Enable 20 12 0 20 #ffffff #404040 0;
#X obj 288 3213 r resetall_eq_low_enable;
#X obj 278 3239 s eq_low_enable_reverb_val;
#X obj 288 3337 r resetall_eq_low_enable;
#X obj 278 3285 r recall_reverb_eq_low_enable;
#X obj 278 3785 send osc;
#X obj 278 3681 r eq_low_enable_reverb_val;
#X obj 364 3135 r reverb_eq_low_enable_cc;
#X floatatom 364 3161 5 0 0 0 - - - 0;
#X text 398 3160 CC#;
#X obj 334 3389 r midi_ch;
#X floatatom 334 3415 5 0 0 0 - - - 0;
#X obj 294 3363 r reverb_eq_low_enable_cc;
#X floatatom 294 3389 5 0 0 0 - - - 0;
#X obj 288 3549 r bang;
#X msg 278 3605 0;
#X obj 278 3634 s recall_reverb_eq_low_enable;
#X obj 298 3578 r recall_reverb;
#X obj 278 3465 r eq_low_enable_reverb_val;
#X obj 278 3494 list prepend set;
#X obj 278 3520 list trim;
#X obj 278 3759 oscformat /mix/reverb/0/eq/lowshelf/enable;
#X obj 288 3187 r reset_reverb_eq_low_enable_trig;
#X obj 286 3311 r reset_reverb_eq_low_enable_trig;
#X obj 278 3707 / 127;
#X obj 558 3415 ctlout;
#X obj 558 3135 r midi_ch;
#X obj 558 3161 midicc_inlet;
#X obj 538 3107 cnv 16 15 15 empty empty EQ\ Low\ Gain 20 12 0 20 #ffffff #404040 0;
#X obj 568 3213 r resetall_eq_low_gain;
#X obj 558 3239 s eq_low_gain_reverb_val;
#X obj 568 3337 r resetall_eq_low_gain;
#X obj 558 3285 r recall_reverb_eq_low_gain;
#X obj 558 3811 send osc;
#X obj 558 3681 r eq_low_gain_reverb_val;
#X obj 644 3135 r reverb_eq_low_gain_cc;
#X floatatom 644 3161 5 0 0 0 - - - 0;
#X text 678 3160 CC#;
#X obj 614 3389 r midi_ch;
#X floatatom 614 3415 5 0 0 0 - - - 0;
#X obj 574 3363 r reverb_eq_low_gain_cc;
#X floatatom 574 3389 5 0 0 0 - - - 0;
#X obj 568 3549 r bang;
#X msg 558 3605 63;
#X obj 558 3634 s recall_reverb_eq_low_gain;
#X obj 578 3578 r recall_reverb;
#X obj 558 3465 r eq_low_gain_reverb_val;
#X obj 558 3494 list prepend set;
#X obj 558 3520 list trim;
#X obj 558 3785 oscformat /mix/reverb/0/eq/lowshelf/gain;
#X obj 568 3187 r reset_reverb_eq_low_gain_trig;
#X obj 566 3311 r reset_reverb_eq_low_gain_trig;
#X obj 838 3415 ctlout;
#X obj 838 3135 r midi_ch;
#X obj 838 3161 midicc_inlet;
#X obj 818 3107 cnv 16 15 15 empty empty EQ\ Low\ Freq 20 12 0 20 #ffffff #404040 0;
#X obj 848 3213 r resetall_eq_low_freq;
#X obj 838 3239 s eq_low_freq_reverb_val;
#X obj 848 3337 r resetall_eq_low_freq;
#X obj 838 3285 r recall_reverb_eq_low_freq;
#X obj 838 3811 send osc;
#X obj 838 3681 r eq_low_freq_reverb_val;
#X obj 924 3135 r reverb_eq_low_freq_cc;
#X floatatom 924 3161 5 0 0 0 - - - 0;
#X text 958 3160 CC#;
#X obj 894 3389 r midi_ch;
#X floatatom 894 3415 5 0 0 0 - - - 0;
#X obj 854 3363 r reverb_eq_low_freq_cc;
#X floatatom 854 3389 5 0 0 0 - - - 0;
#X obj 848 3549 r bang;
#X msg 838 3605 47;
#X obj 838 3634 s recall_reverb_eq_low_freq;
#X obj 858 3578 r recall_reverb;
#X obj 838 3465 r eq_low_freq_reverb_val;
#X obj 838 3494 list prepend set;
#X obj 838 3520 list trim;
#X obj 838 3785 oscformat /mix/reverb/0/eq/lowshelf/freq;
#X obj 848 3187 r reset_reverb_eq_low_freq_trig;
#X obj 846 3311 r reset_reverb_eq_low_freq_trig;
#X obj 1128 3415 ctlout;
#X obj 1128 3135 r midi_ch;
#X obj 1128 3161 midicc_inlet;
#X obj 1108 3107 cnv 16 15 15 empty empty EQ\ Low\ Mode 20 12 0 20 #ffffff #404040 0;
#X obj 1138 3213 r resetall_eq_low_mode;
#X obj 1128 3239 s eq_low_mode_reverb_val;
#X obj 1138 3337 r resetall_eq_low_mode;
#X obj 1128 3285 r recall_reverb_eq_low_mode;
#X obj 1128 3759 send osc;
#X obj 1128 3681 r eq_low_mode_reverb_val;
#X obj 1214 3135 r reverb_eq_low_mode_cc;
#X floatatom 1214 3161 5 0 0 0 - - - 0;
#X text 1248 3160 CC#;
#X obj 1184 3389 r midi_ch;
#X floatatom 1184 3415 5 0 0 0 - - - 0;
#X obj 1144 3363 r reverb_eq_low_mode_cc;
#X floatatom 1144 3389 5 0 0 0 - - - 0;
#X obj 1138 3549 r bang;
#X msg 1128 3605 127;
#X obj 1128 3634 s recall_reverb_eq_low_mode;
#X obj 1148 3578 r recall_reverb;
#X obj 1128 3465 r eq_low_mode_reverb_val;
#X obj 1128 3494 list prepend set;
#X obj 1128 3520 list trim;
#X obj 1128 3733 oscformat /mix/reverb/0/eq/lowshelf/mode;
#X obj 1138 3187 r reset_reverb_eq_low_mode_trig;
#X obj 1136 3311 r reset_reverb_eq_low_mode_trig;
#X obj 1128 3707 / 127;
#X obj 1418 3415 ctlout;
#X obj 1418 3135 r midi_ch;
#X obj 1418 3161 midicc_inlet;
#X obj 1398 3107 cnv 16 15 15 empty empty EQ\ Low\ BW 20 12 0 20 #ffffff #404040 0;
#X obj 1428 3213 r resetall_eq_low_bw;
#X obj 1418 3239 s eq_low_bw_reverb_val;
#X obj 1428 3337 r resetall_eq_low_bw;
#X obj 1418 3285 r recall_reverb_eq_low_bw;
#X obj 1418 3811 send osc;
#X obj 1418 3681 r eq_low_bw_reverb_val;
#X obj 1504 3135 r reverb_eq_low_bw_cc;
#X floatatom 1504 3161 5 0 0 0 - - - 0;
#X text 1538 3160 CC#;
#X obj 1474 3389 r midi_ch;
#X floatatom 1474 3415 5 0 0 0 - - - 0;
#X obj 1434 3363 r reverb_eq_low_bw_cc;
#X floatatom 1434 3389 5 0 0 0 - - - 0;
#X obj 1428 3549 r bang;
#X msg 1418 3605 42;
#X obj 1418 3634 s recall_reverb_eq_low_bw;
#X obj 1438 3578 r recall_reverb;
#X obj 1418 3465 r eq_low_bw_reverb_val;
#X obj 1418 3494 list prepend set;
#X obj 1418 3520 list trim;
#X obj 1418 3785 oscformat /mix/reverb/0/eq/lowshelf/bw;
#X obj 1428 3187 r reset_reverb_eq_low_bw_trig;
#X obj 1426 3311 r reset_reverb_eq_low_bw_trig;
#X obj 1418 3707 / 127;
#X obj 558 3707 / 127;
#X obj 558 3759 - 20;
#X obj 558 3733 * 40;
#X obj 838 3733 * 20000;
#X obj 838 3707 mtof_inlet;
#X obj 1418 3759 max 0.01;
#X obj 1418 3733 * 3;
#X obj 278 4189 ctlout;
#X obj 278 3909 r midi_ch;
#X obj 278 3935 midicc_inlet;
#X obj 258 3881 cnv 16 15 15 empty empty Leveler\ Enable 20 12 0 20 #ffffff #404040 0;
#X obj 288 3987 r resetall_leveler_enable;
#X obj 278 4013 s leveler_enable_reverb_val;
#X obj 288 4111 r resetall_leveler_enable;
#X obj 278 4059 r recall_reverb_leveler_enable;
#X obj 278 4559 send osc;
#X obj 278 4455 r leveler_enable_reverb_val;
#X obj 364 3909 r reverb_leveler_enable_cc;
#X floatatom 364 3935 5 0 0 0 - - - 0;
#X text 398 3934 CC#;
#X obj 334 4163 r midi_ch;
#X floatatom 334 4189 5 0 0 0 - - - 0;
#X obj 294 4137 r reverb_leveler_enable_cc;
#X floatatom 294 4163 5 0 0 0 - - - 0;
#X obj 288 4323 r bang;
#X msg 278 4379 0;
#X obj 278 4408 s recall_reverb_leveler_enable;
#X obj 298 4352 r recall_reverb;
#X obj 278 4239 r leveler_enable_reverb_val;
#X obj 278 4268 list prepend set;
#X obj 278 4294 list trim;
#X obj 288 3961 r reset_reverb_leveler_enable_trig;
#X obj 286 4085 r reset_reverb_leveler_enable_trig;
#X obj 278 4481 / 127;
#X obj 278 4533 oscformat /mix/reverb/0/leveler/enable;
#X obj 558 4189 ctlout;
#X obj 558 3909 r midi_ch;
#X obj 558 3935 midicc_inlet;
#X obj 538 3881 cnv 16 15 15 empty empty Leveler\ Reduction 20 12 0 20 #ffffff #404040 0;
#X obj 568 3987 r resetall_leveler_reduction;
#X obj 558 4013 s leveler_reduction_reverb_val;
#X obj 568 4111 r resetall_leveler_reduction;
#X obj 558 4059 r recall_reverb_leveler_reduction;
#X obj 558 4559 send osc;
#X obj 558 4455 r leveler_reduction_reverb_val;
#X obj 644 3909 r reverb_leveler_reduction_cc;
#X floatatom 644 3935 5 0 0 0 - - - 0;
#X text 678 3934 CC#;
#X obj 614 4163 r midi_ch;
#X floatatom 614 4189 5 0 0 0 - - - 0;
#X obj 574 4137 r reverb_leveler_reduction_cc;
#X floatatom 574 4163 5 0 0 0 - - - 0;
#X obj 568 4323 r bang;
#X msg 558 4379 25;
#X obj 558 4408 s recall_reverb_leveler_reduction;
#X obj 578 4352 r recall_reverb;
#X obj 558 4239 r leveler_reduction_reverb_val;
#X obj 558 4268 list prepend set;
#X obj 558 4294 list trim;
#X obj 568 3961 r reset_reverb_leveler_reduction_trig;
#X obj 566 4085 r reset_reverb_leveler_reduction_trig;
#X obj 558 4481 / 127;
#X obj 558 4533 oscformat /mix/reverb/0/leveler/reduction;
#X obj 838 4189 ctlout;
#X obj 838 3909 r midi_ch;
#X obj 838 3935 midicc_inlet;
#X obj 818 3881 cnv 16 15 15 empty empty Leveler\ Makeup 20 12 0 20 #ffffff #404040 0;
#X obj 848 3987 r resetall_leveler_makeup;
#X obj 838 4013 s leveler_makeup_reverb_val;
#X obj 848 4111 r resetall_leveler_makeup;
#X obj 838 4059 r recall_reverb_leveler_makeup;
#X obj 838 4559 send osc;
#X obj 838 4455 r leveler_makeup_reverb_val;
#X obj 924 3909 r reverb_leveler_makeup_cc;
#X floatatom 924 3935 5 0 0 0 - - - 0;
#X text 958 3934 CC#;
#X obj 894 4163 r midi_ch;
#X floatatom 894 4189 5 0 0 0 - - - 0;
#X obj 854 4137 r reverb_leveler_makeup_cc;
#X floatatom 854 4163 5 0 0 0 - - - 0;
#X obj 848 4323 r bang;
#X msg 838 4379 25;
#X obj 838 4408 s recall_reverb_leveler_makeup;
#X obj 858 4352 r recall_reverb;
#X obj 838 4239 r leveler_makeup_reverb_val;
#X obj 838 4268 list prepend set;
#X obj 838 4294 list trim;
#X obj 848 3961 r reset_reverb_leveler_makeup_trig;
#X obj 846 4085 r reset_reverb_leveler_makeup_trig;
#X obj 838 4481 / 127;
#X obj 838 4533 oscformat /mix/reverb/0/leveler/makeup;
#X obj 1128 4189 ctlout;
#X obj 1128 3909 r midi_ch;
#X obj 1128 3935 midicc_inlet;
#X obj 1108 3881 cnv 16 15 15 empty empty Leveler\ Limit 20 12 0 20 #ffffff #404040 0;
#X obj 1138 3987 r resetall_leveler_limit;
#X obj 1128 4013 s leveler_limit_reverb_val;
#X obj 1138 4111 r resetall_leveler_limit;
#X obj 1128 4059 r recall_reverb_leveler_limit;
#X obj 1128 4559 send osc;
#X obj 1128 4455 r leveler_limit_reverb_val;
#X obj 1214 3909 r reverb_leveler_limit_cc;
#X floatatom 1214 3935 5 0 0 0 - - - 0;
#X text 1248 3934 CC#;
#X obj 1184 4163 r midi_ch;
#X floatatom 1184 4189 5 0 0 0 - - - 0;
#X obj 1144 4137 r reverb_leveler_limit_cc;
#X floatatom 1144 4163 5 0 0 0 - - - 0;
#X obj 1138 4323 r bang;
#X msg 1128 4379 127;
#X obj 1128 4408 s recall_reverb_leveler_limit;
#X obj 1148 4352 r recall_reverb;
#X obj 1128 4239 r leveler_limit_reverb_val;
#X obj 1128 4268 list prepend set;
#X obj 1128 4294 list trim;
#X obj 1138 3961 r reset_reverb_leveler_limit_trig;
#X obj 1136 4085 r reset_reverb_leveler_limit_trig;
#X obj 1128 4481 / 127;
#X obj 1128 4533 oscformat /mix/reverb/0/leveler/limit;
#X obj 558 4507 * 100;
#X obj 838 4507 * 100;
#X obj 288 5059 r bang;
#X msg 278 5115 127;
#X obj 299 5086 r recall_reverb;
#X obj 278 5004 list prepend set;
#X obj 278 5030 list trim;
#X obj 278 4975 r enable_reverb_val;
#X obj 278 5144 s recall_reverb_enable;
#X obj 558 4929 ctlout;
#X obj 558 4649 r midi_ch;
#X obj 558 4675 midicc_inlet;
#X obj 538 4621 cnv 16 15 15 empty empty Reverb\ Time 20 12 0 20 #ffffff #404040 0;
#X obj 558 5320 send osc;
#X floatatom 654 4675 5 0 0 0 - - - 0;
#X text 688 4674 CC#;
#X obj 614 4903 r midi_ch;
#X floatatom 614 4929 5 0 0 0 - - - 0;
#X floatatom 574 4903 5 0 0 0 - - - 0;
#X obj 568 4727 r resetall_reverb_time;
#X obj 568 4851 r resetall_reverb_time;
#X obj 574 4877 r reverb_time_cc;
#X obj 568 4701 r reset_reverb_time_trig;
#X obj 566 4825 r reset_reverb_time_trig;
#X obj 558 4799 r recall_reverb_time;
#X obj 558 5190 r time_reverb_val;
#X obj 568 5059 r bang;
#X msg 558 5115 67;
#X obj 579 5086 r recall_reverb;
#X obj 558 5004 list prepend set;
#X obj 558 5030 list trim;
#X obj 558 4975 r time_reverb_val;
#X obj 558 5144 s recall_reverb_time;
#X obj 838 4929 ctlout;
#X obj 838 4649 r midi_ch;
#X obj 838 4675 midicc_inlet;
#X obj 818 4621 cnv 16 15 15 empty empty Reverb\ Mod 20 12 0 20 #ffffff #404040 0;
#X obj 838 5294 send osc;
#X obj 838 5216 / 127;
#X obj 838 5268 oscformat /mix/reverb/0/reverb/mod;
#X floatatom 934 4675 5 0 0 0 - - - 0;
#X text 968 4674 CC#;
#X obj 894 4903 r midi_ch;
#X floatatom 894 4929 5 0 0 0 - - - 0;
#X floatatom 854 4903 5 0 0 0 - - - 0;
#X obj 848 4727 r resetall_reverb_mod;
#X obj 848 4851 r resetall_reverb_mod;
#X obj 854 4877 r reverb_mod_cc;
#X obj 848 4701 r reset_reverb_mod_trig;
#X obj 846 4825 r reset_reverb_mod_trig;
#X obj 838 4799 r recall_reverb_mod;
#X obj 838 5190 r mod_reverb_val;
#X obj 848 5059 r bang;
#X msg 838 5115 127;
#X obj 859 5086 r recall_reverb;
#X obj 838 5004 list prepend set;
#X obj 838 5030 list trim;
#X obj 838 4975 r mod_reverb_val;
#X obj 838 5144 s recall_reverb_mod;
#X obj 1128 4929 ctlout;
#X obj 1128 4649 r midi_ch;
#X obj 1128 4675 midicc_inlet;
#X obj 1108 4621 cnv 16 15 15 empty empty Reverb\ Predelay 20 12 0 20 #ffffff #404040 0;
#X obj 1128 5294 send osc;
#X obj 1128 5216 / 127;
#X obj 1128 5268 oscformat /mix/reverb/0/reverb/predelay;
#X floatatom 1224 4675 5 0 0 0 - - - 0;
#X text 1258 4674 CC#;
#X obj 1184 4903 r midi_ch;
#X floatatom 1184 4929 5 0 0 0 - - - 0;
#X floatatom 1144 4903 5 0 0 0 - - - 0;
#X obj 1138 4727 r resetall_reverb_predelay;
#X obj 1138 4851 r resetall_reverb_predelay;
#X obj 1144 4877 r reverb_predelay_cc;
#X obj 1138 4701 r reset_reverb_predelay_trig;
#X obj 1136 4825 r reset_reverb_predelay_trig;
#X obj 1128 4799 r recall_reverb_predelay;
#X obj 1128 5190 r predelay_reverb_val;
#X obj 1138 5059 r bang;
#X msg 1128 5115 0;
#X obj 1149 5086 r recall_reverb;
#X obj 1128 5004 list prepend set;
#X obj 1128 5030 list trim;
#X obj 1128 4975 r predelay_reverb_val;
#X obj 1128 5144 s recall_reverb_predelay;
#X obj 1418 4929 ctlout;
#X obj 1418 4649 r midi_ch;
#X obj 1418 4675 midicc_inlet;
#X obj 1398 4621 cnv 16 15 15 empty empty Reverb\ Tailspread 20 12 0 20 #ffffff #404040 0;
#X obj 1418 5320 send osc;
#X obj 1418 5216 / 127;
#X obj 1418 5294 oscformat /mix/reverb/0/reverb/tailspread;
#X floatatom 1514 4675 5 0 0 0 - - - 0;
#X text 1548 4674 CC#;
#X obj 1474 4903 r midi_ch;
#X floatatom 1474 4929 5 0 0 0 - - - 0;
#X floatatom 1434 4903 5 0 0 0 - - - 0;
#X obj 1428 4727 r resetall_reverb_tailspread;
#X obj 1428 4851 r resetall_reverb_tailspread;
#X obj 1434 4877 r reverb_tailspread_cc;
#X obj 1428 4701 r reset_reverb_tailspread_trig;
#X obj 1426 4825 r reset_reverb_tailspread_trig;
#X obj 1418 4799 r recall_reverb_tailspread;
#X obj 1418 5190 r tailspread_reverb_val;
#X obj 1428 5059 r bang;
#X msg 1418 5115 127;
#X obj 1439 5086 r recall_reverb;
#X obj 1418 5004 list prepend set;
#X obj 1418 5030 list trim;
#X obj 1418 4975 r tailspread_reverb_val;
#X obj 1418 5144 s recall_reverb_tailspread;
#X obj 1698 4929 ctlout;
#X obj 1698 4649 r midi_ch;
#X obj 1698 4675 midicc_inlet;
#X obj 1678 4621 cnv 16 15 15 empty empty Reverb\ High 20 12 0 20 #ffffff #404040 0;
#X obj 1698 5320 send osc;
#X obj 1698 5216 / 127;
#X floatatom 1794 4675 5 0 0 0 - - - 0;
#X text 1828 4674 CC#;
#X obj 1754 4903 r midi_ch;
#X floatatom 1754 4929 5 0 0 0 - - - 0;
#X floatatom 1714 4903 5 0 0 0 - - - 0;
#X obj 1708 4727 r resetall_reverb_high;
#X obj 1708 4851 r resetall_reverb_high;
#X obj 1714 4877 r reverb_high_cc;
#X obj 1708 4701 r reset_reverb_high_trig;
#X obj 1706 4825 r reset_reverb_high_trig;
#X obj 1698 4799 r recall_reverb_high;
#X obj 1698 5190 r high_reverb_val;
#X obj 1708 5059 r bang;
#X msg 1698 5115 9;
#X obj 1719 5086 r recall_reverb;
#X obj 1698 5004 list prepend set;
#X obj 1698 5030 list trim;
#X obj 1698 4975 r high_reverb_val;
#X obj 1698 5144 s recall_reverb_high;
#X obj 1968 4929 ctlout;
#X obj 1968 4649 r midi_ch;
#X obj 1968 4675 midicc_inlet;
#X obj 1948 4621 cnv 16 15 15 empty empty Reverb\ HF\ Ratio 20 12 0 20 #ffffff #404040 0;
#X obj 1968 5320 send osc;
#X obj 1968 5216 / 127;
#X obj 1968 5294 oscformat /mix/reverb/0/reverb/hfratio;
#X floatatom 2064 4675 5 0 0 0 - - - 0;
#X text 2098 4674 CC#;
#X obj 2024 4903 r midi_ch;
#X floatatom 2024 4929 5 0 0 0 - - - 0;
#X floatatom 1984 4903 5 0 0 0 - - - 0;
#X obj 1978 4727 r resetall_reverb_hfratio;
#X obj 1978 4851 r resetall_reverb_hfratio;
#X obj 1984 4877 r reverb_hfratio_cc;
#X obj 1978 4701 r reset_reverb_hfratio_trig;
#X obj 1976 4825 r reset_reverb_hfratio_trig;
#X obj 1968 4799 r recall_reverb_hfratio;
#X obj 1968 5190 r hfratio_reverb_val;
#X obj 1978 5059 r bang;
#X msg 1968 5115 32;
#X obj 1989 5086 r recall_reverb;
#X obj 1968 5004 list prepend set;
#X obj 1968 5030 list trim;
#X obj 1968 4975 r hfratio_reverb_val;
#X obj 1968 5144 s recall_reverb_hfratio;
#X obj 374 4649 r reverb_enable_cc;
#X obj 654 4649 r reverb_time_cc;
#X obj 934 4649 r reverb_mod_cc;
#X obj 1224 4649 r reverb_predelay_cc;
#X obj 1514 4649 r reverb_tailspread_cc;
#X obj 1794 4649 r reverb_high_cc;
#X obj 2064 4649 r reverb_hfratio_cc;
#X obj 2258 4929 ctlout;
#X obj 2258 4649 r midi_ch;
#X obj 2258 4675 midicc_inlet;
#X obj 2238 4621 cnv 16 15 15 empty empty Reverb\ Mid 20 12 0 20 #ffffff #404040 0;
#X obj 2258 5320 send osc;
#X obj 2258 5216 / 127;
#X floatatom 2354 4675 5 0 0 0 - - - 0;
#X text 2388 4674 CC#;
#X obj 2314 4903 r midi_ch;
#X floatatom 2314 4929 5 0 0 0 - - - 0;
#X floatatom 2274 4903 5 0 0 0 - - - 0;
#X obj 2268 4727 r resetall_reverb_mid;
#X obj 2268 4851 r resetall_reverb_mid;
#X obj 2274 4877 r reverb_mid_cc;
#X obj 2268 4701 r reset_reverb_mid_trig;
#X obj 2266 4825 r reset_reverb_mid_trig;
#X obj 2258 4799 r recall_reverb_mid;
#X obj 2258 5190 r mid_reverb_val;
#X obj 2268 5059 r bang;
#X msg 2258 5115 0;
#X obj 2279 5086 r recall_reverb;
#X obj 2258 5004 list prepend set;
#X obj 2258 5030 list trim;
#X obj 2258 4975 r mid_reverb_val;
#X obj 2258 5144 s recall_reverb_mid;
#X obj 2354 4649 r reverb_mid_cc;
#X obj 2528 4929 ctlout;
#X obj 2508 4621 cnv 16 15 15 empty empty Reverb\ MF\ Ratio 20 12 0 20 #ffffff #404040 0;
#X obj 2528 5320 send osc;
#X obj 2528 5216 / 127;
#X obj 2528 5294 oscformat /mix/reverb/0/reverb/mfratio;
#X floatatom 2624 4675 5 0 0 0 - - - 0;
#X text 2658 4674 CC#;
#X obj 2584 4903 r mfratioi_ch;
#X floatatom 2584 4929 5 0 0 0 - - - 0;
#X floatatom 2544 4903 5 0 0 0 - - - 0;
#X obj 2538 4727 r resetall_reverb_mfratio;
#X obj 2538 4851 r resetall_reverb_mfratio;
#X obj 2544 4877 r reverb_mfratio_cc;
#X obj 2538 4701 r reset_reverb_mfratio_trig;
#X obj 2536 4825 r reset_reverb_mfratio_trig;
#X obj 2528 4799 r recall_reverb_mfratio;
#X obj 2528 5190 r mfratio_reverb_val;
#X obj 2538 5059 r bang;
#X msg 2528 5115 63;
#X obj 2549 5086 r recall_reverb;
#X obj 2528 5004 list prepend set;
#X obj 2528 5030 list trim;
#X obj 2528 4975 r mfratio_reverb_val;
#X obj 2528 5144 s recall_reverb_mfratio;
#X obj 2528 4675 midicc_inlet;
#X obj 2624 4649 r reverb_mfratio_cc;
#X obj 558 5268 + 100;
#X obj 558 5242 * 59900;
#X obj 558 5216 mtof_inlet;
#X obj 838 5242 * 100;
#X obj 1128 5242 * 500;
#X obj 1418 5242 * 200;
#X obj 1418 5268 - 100;
#X obj 1968 5242 * 100;
#X obj 1968 5268 max 1;
#X obj 2528 5242 * 100;
#X obj 2528 5268 max 1;
#X obj 558 4753 s time_reverb_val;
#X obj 838 4753 s mod_reverb_val;
#X obj 1128 4753 s predelay_reverb_val;
#X obj 1418 4753 s tailspread_reverb_val;
#X obj 1698 4753 s high_reverb_val;
#X obj 1968 4753 s hfratio_reverb_val;
#X obj 2258 4753 s mid_reverb_val;
#X obj 2528 4753 s mfratio_reverb_val;
#X obj 278 4753 s enable_reverb_val;
#X obj 894 1433 max 20;
#X obj 838 1459 i;
#X obj 894 2200 max 20;
#X obj 838 2226 i;
#X obj 894 2967 max 20;
#X obj 894 3733 max 20;
#X obj 838 3759 i;
#X obj 838 2993 i;
#X obj 528 668 == 1;
#X obj 778 668 == 1;
#X obj 278 1433 == 1;
#X obj 278 2200 == 1;
#X obj 278 2967 == 1;
#X obj 278 3733 == 1;
#X obj 278 4507 == 1;
#X obj 1128 4507 == 1;
#X obj 1172 3707 == 0;
#X obj 1172 1407 == 0;
#X obj 2574 1715 / 127;
#X obj 558 5294 oscformat /mix/reverb/0/reverb/reverbtime;
#X obj 1698 5294 oscformat /mix/reverb/0/reverb/hf;
#X obj 2258 5294 oscformat /mix/reverb/0/reverb/mf;
#X obj 2528 4649 r midi_ch;
#X obj 2302 5268 i;
#X obj 1760 5266 i;
#X obj 1698 5268 max 500;
#X obj 1698 5242 * 15000;
#X obj 2258 5242 * 15000;
#X obj 2258 5268 max 500;
#X obj 278 5242 == 1;
#X obj 278 668 level_inlet;
#X obj 1028 668 level_inlet;
#X msg 278 1305 0;
#X connect 1 0 2 0;
#X connect 2 0 28 0;
#X connect 4 0 28 0;
#X connect 5 0 0 0;
#X connect 7 0 1048 0;
#X connect 8 0 9 0;
#X connect 9 0 25 0;
#X connect 12 0 13 0;
#X connect 13 0 29 0;
#X connect 16 0 1026 0;
#X connect 18 0 19 0;
#X connect 19 0 27 0;
#X connect 22 0 17 0;
#X connect 23 0 27 0;
#X connect 24 0 1027 0;
#X connect 26 0 29 0;
#X connect 30 0 0 0;
#X connect 31 0 17 0;
#X connect 32 0 11 0;
#X connect 33 0 11 0;
#X connect 34 0 7 0;
#X connect 35 0 16 0;
#X connect 36 0 24 0;
#X connect 37 0 21 0;
#X connect 38 0 15 0;
#X connect 40 0 41 0;
#X connect 41 0 1017 0;
#X connect 44 0 1047 0;
#X connect 45 0 43 0;
#X connect 46 0 47 0;
#X connect 47 0 0 2;
#X connect 48 0 49 0;
#X connect 49 0 11 2;
#X connect 50 0 51 0;
#X connect 51 0 17 2;
#X connect 52 0 0 1;
#X connect 53 0 11 1;
#X connect 54 0 17 1;
#X connect 55 0 56 0;
#X connect 56 0 9 1;
#X connect 58 0 2 1;
#X connect 60 0 19 1;
#X connect 62 0 13 1;
#X connect 64 0 58 0;
#X connect 65 0 62 0;
#X connect 66 0 60 0;
#X connect 67 0 41 1;
#X connect 69 0 70 0;
#X connect 70 0 39 2;
#X connect 71 0 39 1;
#X connect 72 0 52 0;
#X connect 73 0 53 0;
#X connect 74 0 54 0;
#X connect 76 0 77 0;
#X connect 77 0 91 0;
#X connect 80 0 1049 0;
#X connect 81 0 82 0;
#X connect 82 0 75 2;
#X connect 83 0 75 1;
#X connect 84 0 77 1;
#X connect 86 0 79 0;
#X connect 87 0 80 0;
#X connect 88 0 75 0;
#X connect 89 0 75 0;
#X connect 90 0 83 0;
#X connect 92 0 91 0;
#X connect 93 0 84 0;
#X connect 94 0 97 0;
#X connect 96 0 94 0;
#X connect 98 0 28 0;
#X connect 99 0 0 0;
#X connect 100 0 29 0;
#X connect 101 0 11 0;
#X connect 102 0 17 0;
#X connect 103 0 27 0;
#X connect 104 0 91 0;
#X connect 105 0 75 0;
#X connect 106 0 6 0;
#X connect 107 0 1017 0;
#X connect 108 0 39 0;
#X connect 109 0 71 0;
#X connect 110 0 1017 0;
#X connect 111 0 39 0;
#X connect 112 0 113 0;
#X connect 113 0 116 0;
#X connect 114 0 117 0;
#X connect 115 0 113 0;
#X connect 117 0 118 0;
#X connect 118 0 113 0;
#X connect 119 0 39 0;
#X connect 120 0 44 0;
#X connect 121 0 122 0;
#X connect 122 0 125 0;
#X connect 123 0 122 0;
#X connect 124 0 126 0;
#X connect 126 0 127 0;
#X connect 127 0 122 0;
#X connect 128 0 129 0;
#X connect 129 0 132 0;
#X connect 130 0 129 0;
#X connect 131 0 133 0;
#X connect 133 0 134 0;
#X connect 134 0 129 0;
#X connect 135 0 136 0;
#X connect 136 0 139 0;
#X connect 137 0 136 0;
#X connect 138 0 140 0;
#X connect 140 0 141 0;
#X connect 141 0 136 0;
#X connect 143 0 144 0;
#X connect 144 0 147 0;
#X connect 146 0 147 0;
#X connect 148 0 142 0;
#X connect 149 0 142 0;
#X connect 151 0 168 0;
#X connect 152 0 153 0;
#X connect 153 0 144 1;
#X connect 155 0 156 0;
#X connect 156 0 142 2;
#X connect 157 0 158 0;
#X connect 158 0 142 1;
#X connect 159 0 1050 0;
#X connect 161 0 1050 0;
#X connect 162 0 163 0;
#X connect 163 0 164 0;
#X connect 164 0 1050 0;
#X connect 165 0 150 0;
#X connect 166 0 147 0;
#X connect 167 0 142 0;
#X connect 168 0 1028 0;
#X connect 170 0 171 0;
#X connect 171 0 174 0;
#X connect 173 0 174 0;
#X connect 175 0 169 0;
#X connect 176 0 169 0;
#X connect 178 0 279 0;
#X connect 179 0 180 0;
#X connect 180 0 171 1;
#X connect 182 0 183 0;
#X connect 183 0 169 2;
#X connect 184 0 185 0;
#X connect 185 0 169 1;
#X connect 186 0 187 0;
#X connect 187 0 188 0;
#X connect 189 0 187 0;
#X connect 190 0 191 0;
#X connect 191 0 192 0;
#X connect 192 0 187 0;
#X connect 193 0 177 0;
#X connect 194 0 174 0;
#X connect 195 0 169 0;
#X connect 197 0 198 0;
#X connect 198 0 201 0;
#X connect 200 0 201 0;
#X connect 202 0 196 0;
#X connect 203 0 196 0;
#X connect 205 0 283 0;
#X connect 206 0 207 0;
#X connect 207 0 198 1;
#X connect 209 0 210 0;
#X connect 210 0 196 2;
#X connect 211 0 212 0;
#X connect 212 0 196 1;
#X connect 213 0 214 0;
#X connect 214 0 215 0;
#X connect 216 0 214 0;
#X connect 217 0 218 0;
#X connect 218 0 219 0;
#X connect 219 0 214 0;
#X connect 220 0 204 0;
#X connect 221 0 201 0;
#X connect 222 0 196 0;
#X connect 224 0 225 0;
#X connect 225 0 228 0;
#X connect 227 0 228 0;
#X connect 229 0 223 0;
#X connect 230 0 223 0;
#X connect 232 0 250 0;
#X connect 233 0 234 0;
#X connect 234 0 225 1;
#X connect 236 0 237 0;
#X connect 237 0 223 2;
#X connect 238 0 239 0;
#X connect 239 0 223 1;
#X connect 240 0 241 0;
#X connect 241 0 242 0;
#X connect 243 0 241 0;
#X connect 244 0 245 0;
#X connect 245 0 246 0;
#X connect 246 0 241 0;
#X connect 247 0 231 0;
#X connect 248 0 228 0;
#X connect 249 0 223 0;
#X connect 250 0 1035 0;
#X connect 252 0 253 0;
#X connect 253 0 256 0;
#X connect 255 0 256 0;
#X connect 257 0 251 0;
#X connect 258 0 251 0;
#X connect 260 0 278 0;
#X connect 261 0 262 0;
#X connect 262 0 253 1;
#X connect 264 0 265 0;
#X connect 265 0 251 2;
#X connect 266 0 267 0;
#X connect 267 0 251 1;
#X connect 268 0 269 0;
#X connect 269 0 270 0;
#X connect 271 0 269 0;
#X connect 272 0 273 0;
#X connect 273 0 274 0;
#X connect 274 0 269 0;
#X connect 275 0 259 0;
#X connect 276 0 256 0;
#X connect 277 0 251 0;
#X connect 278 0 285 0;
#X connect 279 0 281 0;
#X connect 280 0 193 0;
#X connect 281 0 280 0;
#X connect 282 0 1018 0;
#X connect 283 0 282 0;
#X connect 284 0 275 0;
#X connect 285 0 284 0;
#X connect 287 0 288 0;
#X connect 288 0 291 0;
#X connect 290 0 291 0;
#X connect 292 0 286 0;
#X connect 293 0 286 0;
#X connect 295 0 313 0;
#X connect 296 0 297 0;
#X connect 297 0 288 1;
#X connect 299 0 300 0;
#X connect 300 0 286 2;
#X connect 301 0 302 0;
#X connect 302 0 286 1;
#X connect 303 0 304 0;
#X connect 304 0 305 0;
#X connect 306 0 304 0;
#X connect 307 0 308 0;
#X connect 308 0 309 0;
#X connect 309 0 304 0;
#X connect 310 0 294 0;
#X connect 311 0 291 0;
#X connect 312 0 286 0;
#X connect 313 0 1029 0;
#X connect 315 0 316 0;
#X connect 316 0 319 0;
#X connect 318 0 319 0;
#X connect 320 0 314 0;
#X connect 321 0 314 0;
#X connect 323 0 396 0;
#X connect 324 0 325 0;
#X connect 325 0 316 1;
#X connect 327 0 328 0;
#X connect 328 0 314 2;
#X connect 329 0 330 0;
#X connect 330 0 314 1;
#X connect 331 0 332 0;
#X connect 332 0 333 0;
#X connect 334 0 332 0;
#X connect 335 0 336 0;
#X connect 336 0 337 0;
#X connect 337 0 332 0;
#X connect 338 0 322 0;
#X connect 339 0 319 0;
#X connect 340 0 314 0;
#X connect 342 0 343 0;
#X connect 343 0 346 0;
#X connect 345 0 346 0;
#X connect 347 0 341 0;
#X connect 348 0 341 0;
#X connect 350 0 400 0;
#X connect 351 0 352 0;
#X connect 352 0 343 1;
#X connect 354 0 355 0;
#X connect 355 0 341 2;
#X connect 356 0 357 0;
#X connect 357 0 341 1;
#X connect 358 0 359 0;
#X connect 359 0 360 0;
#X connect 361 0 359 0;
#X connect 362 0 363 0;
#X connect 363 0 364 0;
#X connect 364 0 359 0;
#X connect 365 0 349 0;
#X connect 366 0 346 0;
#X connect 367 0 341 0;
#X connect 369 0 370 0;
#X connect 370 0 373 0;
#X connect 372 0 373 0;
#X connect 374 0 368 0;
#X connect 375 0 368 0;
#X connect 377 0 395 0;
#X connect 378 0 379 0;
#X connect 379 0 370 1;
#X connect 381 0 382 0;
#X connect 382 0 368 2;
#X connect 383 0 384 0;
#X connect 384 0 368 1;
#X connect 385 0 386 0;
#X connect 386 0 387 0;
#X connect 388 0 386 0;
#X connect 389 0 390 0;
#X connect 390 0 391 0;
#X connect 391 0 386 0;
#X connect 392 0 376 0;
#X connect 393 0 373 0;
#X connect 394 0 368 0;
#X connect 395 0 402 0;
#X connect 396 0 398 0;
#X connect 397 0 338 0;
#X connect 398 0 397 0;
#X connect 399 0 1020 0;
#X connect 400 0 399 0;
#X connect 401 0 392 0;
#X connect 402 0 401 0;
#X connect 404 0 405 0;
#X connect 405 0 408 0;
#X connect 407 0 408 0;
#X connect 409 0 403 0;
#X connect 410 0 403 0;
#X connect 412 0 430 0;
#X connect 413 0 414 0;
#X connect 414 0 405 1;
#X connect 416 0 417 0;
#X connect 417 0 403 2;
#X connect 418 0 419 0;
#X connect 419 0 403 1;
#X connect 420 0 421 0;
#X connect 421 0 422 0;
#X connect 423 0 421 0;
#X connect 424 0 425 0;
#X connect 425 0 426 0;
#X connect 426 0 421 0;
#X connect 427 0 411 0;
#X connect 428 0 408 0;
#X connect 429 0 403 0;
#X connect 430 0 1030 0;
#X connect 432 0 433 0;
#X connect 433 0 436 0;
#X connect 435 0 436 0;
#X connect 437 0 431 0;
#X connect 438 0 431 0;
#X connect 440 0 513 0;
#X connect 441 0 442 0;
#X connect 442 0 433 1;
#X connect 444 0 445 0;
#X connect 445 0 431 2;
#X connect 446 0 447 0;
#X connect 447 0 431 1;
#X connect 448 0 449 0;
#X connect 449 0 450 0;
#X connect 451 0 449 0;
#X connect 452 0 453 0;
#X connect 453 0 454 0;
#X connect 454 0 449 0;
#X connect 455 0 439 0;
#X connect 456 0 436 0;
#X connect 457 0 431 0;
#X connect 459 0 460 0;
#X connect 460 0 463 0;
#X connect 462 0 463 0;
#X connect 464 0 458 0;
#X connect 465 0 458 0;
#X connect 467 0 517 0;
#X connect 468 0 469 0;
#X connect 469 0 460 1;
#X connect 471 0 472 0;
#X connect 472 0 458 2;
#X connect 473 0 474 0;
#X connect 474 0 458 1;
#X connect 475 0 476 0;
#X connect 476 0 477 0;
#X connect 478 0 476 0;
#X connect 479 0 480 0;
#X connect 480 0 481 0;
#X connect 481 0 476 0;
#X connect 482 0 466 0;
#X connect 483 0 463 0;
#X connect 484 0 458 0;
#X connect 486 0 487 0;
#X connect 487 0 490 0;
#X connect 489 0 490 0;
#X connect 491 0 485 0;
#X connect 492 0 485 0;
#X connect 494 0 512 0;
#X connect 495 0 496 0;
#X connect 496 0 487 1;
#X connect 498 0 499 0;
#X connect 499 0 485 2;
#X connect 500 0 501 0;
#X connect 501 0 485 1;
#X connect 502 0 503 0;
#X connect 503 0 504 0;
#X connect 505 0 503 0;
#X connect 506 0 507 0;
#X connect 507 0 508 0;
#X connect 508 0 503 0;
#X connect 509 0 493 0;
#X connect 510 0 490 0;
#X connect 511 0 485 0;
#X connect 512 0 519 0;
#X connect 513 0 515 0;
#X connect 514 0 455 0;
#X connect 515 0 514 0;
#X connect 516 0 1022 0;
#X connect 517 0 516 0;
#X connect 518 0 509 0;
#X connect 519 0 518 0;
#X connect 521 0 522 0;
#X connect 522 0 525 0;
#X connect 524 0 525 0;
#X connect 526 0 520 0;
#X connect 527 0 520 0;
#X connect 529 0 547 0;
#X connect 530 0 531 0;
#X connect 531 0 522 1;
#X connect 533 0 534 0;
#X connect 534 0 520 2;
#X connect 535 0 536 0;
#X connect 536 0 520 1;
#X connect 537 0 538 0;
#X connect 538 0 539 0;
#X connect 540 0 538 0;
#X connect 541 0 542 0;
#X connect 542 0 543 0;
#X connect 543 0 538 0;
#X connect 544 0 528 0;
#X connect 545 0 525 0;
#X connect 546 0 520 0;
#X connect 547 0 1031 0;
#X connect 549 0 550 0;
#X connect 550 0 553 0;
#X connect 552 0 553 0;
#X connect 554 0 548 0;
#X connect 555 0 548 0;
#X connect 557 0 658 0;
#X connect 558 0 559 0;
#X connect 559 0 550 1;
#X connect 561 0 562 0;
#X connect 562 0 548 2;
#X connect 563 0 564 0;
#X connect 564 0 548 1;
#X connect 565 0 566 0;
#X connect 566 0 567 0;
#X connect 568 0 566 0;
#X connect 569 0 570 0;
#X connect 570 0 571 0;
#X connect 571 0 566 0;
#X connect 572 0 556 0;
#X connect 573 0 553 0;
#X connect 574 0 548 0;
#X connect 576 0 577 0;
#X connect 577 0 580 0;
#X connect 579 0 580 0;
#X connect 581 0 575 0;
#X connect 582 0 575 0;
#X connect 584 0 662 0;
#X connect 585 0 586 0;
#X connect 586 0 577 1;
#X connect 588 0 589 0;
#X connect 589 0 575 2;
#X connect 590 0 591 0;
#X connect 591 0 575 1;
#X connect 592 0 593 0;
#X connect 593 0 594 0;
#X connect 595 0 593 0;
#X connect 596 0 597 0;
#X connect 597 0 598 0;
#X connect 598 0 593 0;
#X connect 599 0 583 0;
#X connect 600 0 580 0;
#X connect 601 0 575 0;
#X connect 603 0 604 0;
#X connect 604 0 607 0;
#X connect 606 0 607 0;
#X connect 608 0 602 0;
#X connect 609 0 602 0;
#X connect 611 0 629 0;
#X connect 612 0 613 0;
#X connect 613 0 604 1;
#X connect 615 0 616 0;
#X connect 616 0 602 2;
#X connect 617 0 618 0;
#X connect 618 0 602 1;
#X connect 619 0 620 0;
#X connect 620 0 621 0;
#X connect 622 0 620 0;
#X connect 623 0 624 0;
#X connect 624 0 625 0;
#X connect 625 0 620 0;
#X connect 626 0 610 0;
#X connect 627 0 607 0;
#X connect 628 0 602 0;
#X connect 629 0 1034 0;
#X connect 631 0 632 0;
#X connect 632 0 635 0;
#X connect 634 0 635 0;
#X connect 636 0 630 0;
#X connect 637 0 630 0;
#X connect 639 0 657 0;
#X connect 640 0 641 0;
#X connect 641 0 632 1;
#X connect 643 0 644 0;
#X connect 644 0 630 2;
#X connect 645 0 646 0;
#X connect 646 0 630 1;
#X connect 647 0 648 0;
#X connect 648 0 649 0;
#X connect 650 0 648 0;
#X connect 651 0 652 0;
#X connect 652 0 653 0;
#X connect 653 0 648 0;
#X connect 654 0 638 0;
#X connect 655 0 635 0;
#X connect 656 0 630 0;
#X connect 657 0 664 0;
#X connect 658 0 660 0;
#X connect 659 0 572 0;
#X connect 660 0 659 0;
#X connect 661 0 1023 0;
#X connect 662 0 661 0;
#X connect 663 0 654 0;
#X connect 664 0 663 0;
#X connect 666 0 667 0;
#X connect 667 0 670 0;
#X connect 669 0 670 0;
#X connect 671 0 665 0;
#X connect 672 0 665 0;
#X connect 674 0 691 0;
#X connect 675 0 676 0;
#X connect 676 0 667 1;
#X connect 678 0 679 0;
#X connect 679 0 665 2;
#X connect 680 0 681 0;
#X connect 681 0 665 1;
#X connect 682 0 683 0;
#X connect 683 0 684 0;
#X connect 685 0 683 0;
#X connect 686 0 687 0;
#X connect 687 0 688 0;
#X connect 688 0 683 0;
#X connect 689 0 670 0;
#X connect 690 0 665 0;
#X connect 691 0 1032 0;
#X connect 692 0 673 0;
#X connect 694 0 695 0;
#X connect 695 0 698 0;
#X connect 697 0 698 0;
#X connect 699 0 693 0;
#X connect 700 0 693 0;
#X connect 702 0 719 0;
#X connect 703 0 704 0;
#X connect 704 0 695 1;
#X connect 706 0 707 0;
#X connect 707 0 693 2;
#X connect 708 0 709 0;
#X connect 709 0 693 1;
#X connect 710 0 711 0;
#X connect 711 0 712 0;
#X connect 713 0 711 0;
#X connect 714 0 715 0;
#X connect 715 0 716 0;
#X connect 716 0 711 0;
#X connect 717 0 698 0;
#X connect 718 0 693 0;
#X connect 719 0 777 0;
#X connect 720 0 701 0;
#X connect 722 0 723 0;
#X connect 723 0 726 0;
#X connect 725 0 726 0;
#X connect 727 0 721 0;
#X connect 728 0 721 0;
#X connect 730 0 747 0;
#X connect 731 0 732 0;
#X connect 732 0 723 1;
#X connect 734 0 735 0;
#X connect 735 0 721 2;
#X connect 736 0 737 0;
#X connect 737 0 721 1;
#X connect 738 0 739 0;
#X connect 739 0 740 0;
#X connect 741 0 739 0;
#X connect 742 0 743 0;
#X connect 743 0 744 0;
#X connect 744 0 739 0;
#X connect 745 0 726 0;
#X connect 746 0 721 0;
#X connect 747 0 778 0;
#X connect 748 0 729 0;
#X connect 750 0 751 0;
#X connect 751 0 754 0;
#X connect 753 0 754 0;
#X connect 755 0 749 0;
#X connect 756 0 749 0;
#X connect 758 0 775 0;
#X connect 759 0 760 0;
#X connect 760 0 751 1;
#X connect 762 0 763 0;
#X connect 763 0 749 2;
#X connect 764 0 765 0;
#X connect 765 0 749 1;
#X connect 766 0 767 0;
#X connect 767 0 768 0;
#X connect 769 0 767 0;
#X connect 770 0 771 0;
#X connect 771 0 772 0;
#X connect 772 0 767 0;
#X connect 773 0 754 0;
#X connect 774 0 749 0;
#X connect 775 0 1033 0;
#X connect 776 0 757 0;
#X connect 777 0 720 0;
#X connect 778 0 748 0;
#X connect 779 0 780 0;
#X connect 780 0 785 0;
#X connect 781 0 780 0;
#X connect 782 0 783 0;
#X connect 783 0 780 0;
#X connect 784 0 782 0;
#X connect 787 0 788 0;
#X connect 788 0 1009 0;
#X connect 791 0 788 1;
#X connect 793 0 794 0;
#X connect 794 0 786 2;
#X connect 795 0 786 1;
#X connect 796 0 1009 0;
#X connect 797 0 786 0;
#X connect 798 0 795 0;
#X connect 799 0 1009 0;
#X connect 800 0 786 0;
#X connect 801 0 786 0;
#X connect 802 0 1000 0;
#X connect 803 0 804 0;
#X connect 804 0 809 0;
#X connect 805 0 804 0;
#X connect 806 0 807 0;
#X connect 807 0 804 0;
#X connect 808 0 806 0;
#X connect 811 0 812 0;
#X connect 812 0 1010 0;
#X connect 815 0 1001 0;
#X connect 816 0 814 0;
#X connect 817 0 812 1;
#X connect 819 0 820 0;
#X connect 820 0 810 2;
#X connect 821 0 810 1;
#X connect 822 0 1010 0;
#X connect 823 0 810 0;
#X connect 824 0 821 0;
#X connect 825 0 1010 0;
#X connect 826 0 810 0;
#X connect 827 0 810 0;
#X connect 828 0 815 0;
#X connect 829 0 830 0;
#X connect 830 0 835 0;
#X connect 831 0 830 0;
#X connect 832 0 833 0;
#X connect 833 0 830 0;
#X connect 834 0 832 0;
#X connect 837 0 838 0;
#X connect 838 0 1011 0;
#X connect 841 0 1002 0;
#X connect 842 0 840 0;
#X connect 843 0 838 1;
#X connect 845 0 846 0;
#X connect 846 0 836 2;
#X connect 847 0 836 1;
#X connect 848 0 1011 0;
#X connect 849 0 836 0;
#X connect 850 0 847 0;
#X connect 851 0 1011 0;
#X connect 852 0 836 0;
#X connect 853 0 836 0;
#X connect 854 0 841 0;
#X connect 855 0 856 0;
#X connect 856 0 861 0;
#X connect 857 0 856 0;
#X connect 858 0 859 0;
#X connect 859 0 856 0;
#X connect 860 0 858 0;
#X connect 863 0 864 0;
#X connect 864 0 1012 0;
#X connect 867 0 1003 0;
#X connect 868 0 866 0;
#X connect 869 0 864 1;
#X connect 871 0 872 0;
#X connect 872 0 862 2;
#X connect 873 0 862 1;
#X connect 874 0 1012 0;
#X connect 875 0 862 0;
#X connect 876 0 873 0;
#X connect 877 0 1012 0;
#X connect 878 0 862 0;
#X connect 879 0 862 0;
#X connect 880 0 867 0;
#X connect 881 0 882 0;
#X connect 882 0 887 0;
#X connect 883 0 882 0;
#X connect 884 0 885 0;
#X connect 885 0 882 0;
#X connect 886 0 884 0;
#X connect 889 0 890 0;
#X connect 890 0 1013 0;
#X connect 893 0 1044 0;
#X connect 894 0 890 1;
#X connect 896 0 897 0;
#X connect 897 0 888 2;
#X connect 898 0 888 1;
#X connect 899 0 1013 0;
#X connect 900 0 888 0;
#X connect 901 0 898 0;
#X connect 902 0 1013 0;
#X connect 903 0 888 0;
#X connect 904 0 888 0;
#X connect 905 0 893 0;
#X connect 906 0 907 0;
#X connect 907 0 912 0;
#X connect 908 0 907 0;
#X connect 909 0 910 0;
#X connect 910 0 907 0;
#X connect 911 0 909 0;
#X connect 914 0 915 0;
#X connect 915 0 1014 0;
#X connect 918 0 1005 0;
#X connect 919 0 917 0;
#X connect 920 0 915 1;
#X connect 922 0 923 0;
#X connect 923 0 913 2;
#X connect 924 0 913 1;
#X connect 925 0 1014 0;
#X connect 926 0 913 0;
#X connect 927 0 924 0;
#X connect 928 0 1014 0;
#X connect 929 0 913 0;
#X connect 930 0 913 0;
#X connect 931 0 918 0;
#X connect 932 0 933 0;
#X connect 933 0 938 0;
#X connect 934 0 933 0;
#X connect 935 0 936 0;
#X connect 936 0 933 0;
#X connect 937 0 935 0;
#X connect 939 0 67 0;
#X connect 940 0 791 0;
#X connect 941 0 817 0;
#X connect 942 0 843 0;
#X connect 943 0 869 0;
#X connect 944 0 894 0;
#X connect 945 0 920 0;
#X connect 947 0 948 0;
#X connect 948 0 1015 0;
#X connect 951 0 1045 0;
#X connect 952 0 948 1;
#X connect 954 0 955 0;
#X connect 955 0 946 2;
#X connect 956 0 946 1;
#X connect 957 0 1015 0;
#X connect 958 0 946 0;
#X connect 959 0 956 0;
#X connect 960 0 1015 0;
#X connect 961 0 946 0;
#X connect 962 0 946 0;
#X connect 963 0 951 0;
#X connect 964 0 965 0;
#X connect 965 0 970 0;
#X connect 966 0 965 0;
#X connect 967 0 968 0;
#X connect 968 0 965 0;
#X connect 969 0 967 0;
#X connect 971 0 952 0;
#X connect 975 0 1007 0;
#X connect 976 0 974 0;
#X connect 977 0 996 1;
#X connect 979 0 980 0;
#X connect 980 0 972 2;
#X connect 981 0 972 1;
#X connect 982 0 1016 0;
#X connect 983 0 972 0;
#X connect 984 0 981 0;
#X connect 985 0 1016 0;
#X connect 986 0 972 0;
#X connect 987 0 972 0;
#X connect 988 0 975 0;
#X connect 989 0 990 0;
#X connect 990 0 995 0;
#X connect 991 0 990 0;
#X connect 992 0 993 0;
#X connect 993 0 990 0;
#X connect 994 0 992 0;
#X connect 996 0 1016 0;
#X connect 997 0 977 0;
#X connect 998 0 1037 0;
#X connect 999 0 998 0;
#X connect 1000 0 999 0;
#X connect 1001 0 816 0;
#X connect 1002 0 842 0;
#X connect 1003 0 1004 0;
#X connect 1004 0 868 0;
#X connect 1005 0 1006 0;
#X connect 1006 0 919 0;
#X connect 1007 0 1008 0;
#X connect 1008 0 976 0;
#X connect 1018 0 1019 0;
#X connect 1019 0 220 0;
#X connect 1020 0 1021 0;
#X connect 1021 0 365 0;
#X connect 1022 0 1025 0;
#X connect 1023 0 1024 0;
#X connect 1024 0 599 0;
#X connect 1025 0 482 0;
#X connect 1026 0 38 0;
#X connect 1027 0 37 0;
#X connect 1028 0 165 0;
#X connect 1029 0 310 0;
#X connect 1030 0 427 0;
#X connect 1031 0 544 0;
#X connect 1032 0 692 0;
#X connect 1033 0 776 0;
#X connect 1034 0 626 0;
#X connect 1035 0 247 0;
#X connect 1037 0 790 0;
#X connect 1038 0 892 0;
#X connect 1039 0 950 0;
#X connect 1040 0 996 0;
#X connect 1041 0 1039 0;
#X connect 1042 0 1038 0;
#X connect 1043 0 1042 0;
#X connect 1044 0 1043 0;
#X connect 1045 0 1046 0;
#X connect 1046 0 1041 0;
#X connect 1047 0 45 0;
#X connect 1048 0 106 0;
#X connect 1049 0 86 0;
#X connect 1050 0 160 0;
