#N canvas 305 507 195 299 12;
#X obj 21 103 tgl 16 0 empty empty empty 0 -8 0 10 #fcfcfc #000000 #000000 0 1;
#X obj 21 158 bng 16 250 50 0 empty empty empty 0 -8 0 10 #fcfcfc #000000 #000000;
#X obj 21 184 f;
#X obj 56 184 + 1;
#X obj 31 74 r reset_all;
#X obj 21 242 s send select;
#X obj 21 18 r send select;
#X obj 21 213 % 66;
#X obj 21 45 sel 65;
#X obj 21 129 metro 200;
#X connect 0 0 9 0;
#X connect 1 0 2 0;
#X connect 2 0 3 0;
#X connect 2 0 7 0;
#X connect 3 0 2 1;
#X connect 4 0 0 0;
#X connect 6 0 8 0;
#X connect 7 0 5 0;
#X connect 8 0 0 0;
#X connect 9 0 1 0;
