#N canvas 1886 110 870 737 12;
#X text 47 93 Level;
#X obj 49 752 r reset;
#X text 82 840 Reset value;
#X obj 49 869 s reset_solo_trig;
#X text 47 728 Solo;
#X obj 49 672 s resetall_level;
#X text 83 643 Reset value;
#X text 83 1122 Reset value;
#X obj 49 1151 s resetall_solo;
#X obj 49 1219 r reset;
#X text 82 1307 Reset value;
#X obj 49 1336 s reset_mute_trig;
#X text 83 1745 Reset value;
#X obj 49 1774 s resetall_mute;
#X text 47 1195 Mute;
#X obj 49 1843 r reset;
#X text 82 1931 Reset value;
#X obj 49 1960 s reset_main_trig;
#X text 83 2213 Reset value;
#X obj 49 2242 s resetall_main;
#X text 47 1819 Main;
#X obj 274 117 r reset;
#X text 307 205 Reset value;
#X obj 274 234 s reset_aux1-2_trig;
#X text 308 332 Reset value;
#X obj 274 361 s resetall_aux1-2;
#X text 272 93 Aux 1-2 (RV-70);
#X obj 274 431 r reset;
#X text 307 519 Reset value;
#X obj 274 548 s reset_aux3-4_trig;
#X text 308 646 Reset value;
#X obj 274 675 s resetall_aux3-4;
#X text 272 407 Aux 3-4 (LXP-1);
#X obj 274 745 r reset;
#X text 307 833 Reset value;
#X obj 274 862 s reset_aux5-6_trig;
#X text 308 960 Reset value;
#X obj 274 989 s resetall_aux5-6;
#X text 272 721 Aux 5-6 (Virus C);
#X obj 274 1059 r reset;
#X text 307 1147 Reset value;
#X obj 274 1176 s reset_aux7-8_trig;
#X text 308 1274 Reset value;
#X obj 274 1303 s resetall_aux7-8;
#X text 272 1035 Aux 7-8 (G2 /1-2);
#X obj 274 1372 r reset;
#X text 307 1460 Reset value;
#X obj 274 1489 s reset_aux9-10_trig;
#X text 308 1587 Reset value;
#X obj 274 1616 s resetall_aux9-10;
#X text 272 1348 Aux 9-10 (G2 /3-4);
#X obj 49 117 r reset;
#X text 82 205 Reset value;
#X obj 49 234 s reset_level_trig;
#X obj 274 1684 r reset;
#X text 307 1772 Reset value;
#X obj 274 1801 s reset_aux11-12_trig;
#X text 308 1899 Reset value;
#X obj 274 1928 s resetall_aux11-12;
#X text 272 1660 Aux 11-12 (Syntakt);
#X obj 274 2307 r reset;
#X text 307 2395 Reset value;
#X obj 274 2424 s reset_aux_reverb_trig;
#X text 308 2522 Reset value;
#X obj 274 2551 s resetall_aux_reverb;
#X text 272 2283 Aux Reverb;
#X obj 480 117 r reset;
#X text 513 205 Reset value;
#X obj 480 234 s reset_group1-2_trig;
#X text 514 332 Reset value;
#X obj 480 361 s resetall_group1-2;
#X text 478 93 Group 1-2 (Tracker+);
#X obj 480 431 r reset;
#X text 513 519 Reset value;
#X obj 480 548 s reset_group3-4_trig;
#X text 514 646 Reset value;
#X obj 480 675 s resetall_group3-4;
#X text 478 407 Group 3-4 (TE KO II);
#X obj 480 745 r reset;
#X text 513 833 Reset value;
#X obj 480 862 s reset_group5-6_trig;
#X text 514 960 Reset value;
#X text 478 721 Group 5-6 (TE OP-1);
#X obj 696 117 r reset;
#X text 729 205 Reset value;
#X obj 696 234 s reset_hpf_enable_trig;
#X text 730 332 Reset value;
#X text 694 93 HPF Enable;
#X obj 696 429 r reset;
#X text 729 517 Reset value;
#X obj 696 546 s reset_hpf_freq_trig;
#X text 730 644 Reset value;
#X obj 696 673 s resetall_hpf_freq;
#X text 694 405 HPF Freq;
#X obj 907 117 r reset;
#X text 940 205 Reset value;
#X text 941 332 Reset value;
#X text 905 93 Gate Enable;
#X obj 907 430 r reset;
#X text 940 518 Reset value;
#X text 941 645 Reset value;
#X text 905 406 Gate Attack;
#X obj 907 743 r reset;
#X text 940 831 Reset value;
#X text 941 958 Reset value;
#X text 905 719 Gate Threshold;
#X obj 907 1056 r reset;
#X text 940 1144 Reset value;
#X text 941 1271 Reset value;
#X text 905 1032 Gate Release;
#X obj 1134 117 r reset;
#X text 1167 205 Reset value;
#X text 1168 644 Reset value;
#X text 1132 93 EQ High Enable;
#X obj 907 234 s reset_gate_enable_trig;
#X obj 907 361 s resetall_gate_enable;
#X obj 907 547 s reset_gate_attack_trig;
#X obj 907 674 s resetall_gate_attack;
#X obj 907 860 s reset_gate_threshold_trig;
#X obj 907 987 s resetall_gate_threshold;
#X obj 907 1173 s reset_gate_release_trig;
#X obj 907 1300 s resetall_gate_release;
#X obj 1134 234 s reset_eq_high_enable_trig;
#X obj 1134 673 s resetall_eq_high_enable;
#X obj 1134 742 r reset;
#X text 1167 830 Reset value;
#X text 1168 1269 Reset value;
#X text 1132 718 EQ High Gain;
#X obj 1134 859 s reset_eq_high_gain_trig;
#X obj 1134 1367 r reset;
#X text 1167 1455 Reset value;
#X text 1168 1894 Reset value;
#X text 1132 1343 EQ High Freq;
#X obj 1134 1484 s reset_eq_high_freq_trig;
#X obj 1134 1298 s resetall_eq_high_gain;
#X obj 1134 1923 s resetall_eq_high_freq;
#X obj 1134 1992 r reset;
#X text 1167 2080 Reset value;
#X text 1168 2519 Reset value;
#X text 1132 1968 EQ High Mode;
#X obj 1134 2109 s reset_eq_high_mode_trig;
#X obj 1134 2548 s resetall_eq_high_mode;
#X obj 1134 2617 r reset;
#X text 1167 2705 Reset value;
#X text 1168 3144 Reset value;
#X text 1132 2593 EQ High BW;
#X obj 1134 2734 s reset_eq_high_bw_trig;
#X obj 1134 3173 s resetall_eq_high_bw;
#X obj 1386 117 r reset;
#X text 1419 205 Reset value;
#X text 1420 644 Reset value;
#X text 1384 93 EQ Mid1 Enable;
#X obj 1386 234 s reset_eq_mid1_enable_trig;
#X obj 1386 673 s resetall_eq_mid1_enable;
#X obj 1386 742 r reset;
#X text 1419 830 Reset value;
#X text 1420 1269 Reset value;
#X text 1384 718 EQ Mid1 Gain;
#X obj 1386 859 s reset_eq_mid1_gain_trig;
#X obj 1386 1298 s resetall_eq_mid1_gain;
#X obj 1386 1367 r reset;
#X text 1419 1455 Reset value;
#X text 1420 1894 Reset value;
#X text 1384 1343 EQ Mid1 Freq;
#X obj 1386 1923 s resetall_eq_mid1_freq;
#X obj 1386 1992 r reset;
#X text 1419 2080 Reset value;
#X text 1420 2519 Reset value;
#X text 1384 1968 EQ Mid1 BW;
#X obj 1386 2109 s reset_eq_mid1_bw_trig;
#X obj 1386 2548 s resetall_eq_mid1_bw;
#X obj 1638 117 r reset;
#X text 1671 205 Reset value;
#X text 1672 644 Reset value;
#X obj 1638 234 s reset_eq_mid2_enable_trig;
#X obj 1638 673 s resetall_eq_mid2_enable;
#X obj 1638 742 r reset;
#X text 1671 830 Reset value;
#X text 1672 1269 Reset value;
#X obj 1638 859 s reset_eq_mid2_gain_trig;
#X obj 1638 1298 s resetall_eq_mid2_gain;
#X obj 1638 1367 r reset;
#X text 1671 1455 Reset value;
#X text 1672 1894 Reset value;
#X obj 1638 1484 s reset_eq_mid2_freq_trig;
#X obj 1638 1923 s resetall_eq_mid2_freq;
#X obj 1638 1992 r reset;
#X text 1671 2080 Reset value;
#X text 1672 2519 Reset value;
#X obj 1638 2109 s reset_eq_mid2_bw_trig;
#X obj 1638 2548 s resetall_eq_mid2_bw;
#X text 1636 93 EQ Mid2 Enable;
#X text 1636 718 EQ Mid2 Gain;
#X text 1636 1343 EQ Mid2 Freq;
#X text 1635 1968 EQ Mid2 BW;
#X obj 1890 117 r reset;
#X text 1923 205 Reset value;
#X text 1924 644 Reset value;
#X obj 1890 234 s reset_eq_low_enable_trig;
#X obj 1890 673 s resetall_eq_low_enable;
#X obj 1890 742 r reset;
#X text 1923 830 Reset value;
#X text 1924 1269 Reset value;
#X obj 1890 859 s reset_eq_low_gain_trig;
#X obj 1890 1367 r reset;
#X text 1923 1455 Reset value;
#X text 1924 1894 Reset value;
#X obj 1890 1484 s reset_eq_low_freq_trig;
#X obj 1890 1298 s resetall_eq_low_gain;
#X obj 1890 1923 s resetall_eq_low_freq;
#X obj 1890 1992 r reset;
#X text 1923 2080 Reset value;
#X text 1924 2519 Reset value;
#X obj 1890 2109 s reset_eq_low_mode_trig;
#X obj 1890 2548 s resetall_eq_low_mode;
#X obj 1890 2617 r reset;
#X text 1923 2705 Reset value;
#X text 1924 3144 Reset value;
#X obj 1890 2734 s reset_eq_low_bw_trig;
#X obj 1890 3173 s resetall_eq_low_bw;
#X text 1888 93 EQ Low Enable;
#X text 1888 718 EQ Low Gain;
#X text 1888 1343 EQ Low Freq;
#X text 1887 1968 EQ Low Mode;
#X text 1888 2593 EQ Low BW;
#X obj 2146 117 r reset;
#X text 2179 205 Reset value;
#X text 2180 332 Reset value;
#X text 2144 93 Comp Enable;
#X obj 2146 234 s reset_comp_enable_trig;
#X obj 2146 361 s resetall_comp_enable;
#X obj 2146 430 r reset;
#X text 2179 518 Reset value;
#X text 2180 645 Reset value;
#X text 2144 406 Comp Threshold;
#X obj 2146 547 s reset_comp_threshold_trig;
#X obj 2146 674 s resetall_comp_threshold;
#X obj 2146 743 r reset;
#X text 2179 831 Reset value;
#X text 2180 958 Reset value;
#X text 2144 719 Comp Ratio;
#X obj 2146 860 s reset_comp_ratio_trig;
#X obj 2146 987 s resetall_comp_ratio;
#X obj 2146 1056 r reset;
#X text 2179 1144 Reset value;
#X text 2180 1271 Reset value;
#X text 2144 1032 Comp Peak (RMS);
#X obj 2146 1173 s reset_comp_peak_trig;
#X obj 2146 1300 s resetall_comp_peak;
#X obj 2146 1369 r reset;
#X text 2179 1457 Reset value;
#X text 2180 1584 Reset value;
#X text 2144 1345 Comp Makeup (Auto);
#X obj 2146 1486 s reset_comp_makeup_trig;
#X obj 2146 1613 s resetall_comp_makeup;
#X obj 2146 1682 r reset;
#X text 2179 1770 Reset value;
#X text 2180 1897 Reset value;
#X text 2144 1658 Comp Trim (Gain);
#X obj 2146 1799 s reset_comp_trim_trig;
#X obj 2146 1926 s resetall_comp_trim;
#X obj 2146 1995 r reset;
#X text 2179 2083 Reset value;
#X text 2180 2210 Reset value;
#X text 2144 1971 Comp Attack;
#X obj 2146 2112 s reset_comp_attack_trig;
#X obj 2146 2239 s resetall_comp_attack;
#X obj 2146 2308 r reset;
#X text 2179 2396 Reset value;
#X text 2180 2523 Reset value;
#X text 2144 2284 Comp Release;
#X obj 2146 2425 s reset_comp_release_trig;
#X obj 2146 2552 s resetall_comp_release;
#X text 2405 488 Reset value;
#X text 2368 93 Leveler Enable;
#X obj 2371 517 s resetall_leveler_enable;
#X text 2405 957 Reset value;
#X text 2368 562 Leveler Reduction;
#X obj 2371 986 s resetall_leveler_reduction;
#X text 2405 1894 Reset value;
#X text 2405 1425 Reset value;
#X text 2368 1030 Leveler Makeup;
#X obj 2371 1454 s resetall_leveler_makeup;
#X text 2368 1499 Leveler Limit;
#X obj 2371 1923 s resetall_leveler_limit;
#X text 2684 205 Reset value;
#X text 2685 332 Reset value;
#X text 2648 93 Reverb Enable;
#X obj 2651 234 s reset_reverb_enable_trig;
#X obj 2651 361 s resetall_reverb_enable;
#X text 2684 518 Reset value;
#X text 2685 645 Reset value;
#X text 2648 406 Reverb Time;
#X obj 2651 547 s reset_reverb_time_trig;
#X obj 2651 674 s resetall_reverb_time;
#X text 2684 840 Reset value;
#X text 2685 967 Reset value;
#X text 2648 728 Reverb Mod;
#X obj 2651 869 s reset_reverb_mod_trig;
#X obj 2651 996 s resetall_reverb_mod;
#X text 2684 1153 Reset value;
#X text 2685 1280 Reset value;
#X text 2648 1041 Reverb Predelay;
#X obj 2651 1182 s reset_reverb_predelay_trig;
#X obj 2651 1309 s resetall_reverb_predelay;
#X text 2684 1463 Reset value;
#X text 2685 1590 Reset value;
#X text 2648 1351 Reverb Tailspread;
#X obj 2651 1492 s reset_reverb_tailspread_trig;
#X obj 2651 1619 s resetall_reverb_tailspread;
#X text 2684 1775 Reset value;
#X text 2685 1902 Reset value;
#X text 2648 1663 Reverb High;
#X obj 2651 1804 s reset_reverb_high_trig;
#X obj 2651 1931 s resetall_reverb_high;
#X text 2684 2093 Reset value;
#X text 2685 2220 Reset value;
#X text 2648 1981 Reverb HF Ratio;
#X obj 2651 2122 s reset_reverb_hfratio_trig;
#X obj 2651 2249 s resetall_reverb_hfratio;
#X text 2684 2406 Reset value;
#X msg 2651 2406 0;
#X text 2685 2533 Reset value;
#X msg 2651 2533 0;
#X text 2648 2294 Reverb Mid;
#X obj 2651 2435 s reset_reverb_mid_trig;
#X obj 2651 2562 s resetall_reverb_mid;
#X text 2684 2719 Reset value;
#X text 2685 2846 Reset value;
#X text 2648 2607 Reverb MF Ratio;
#X obj 2651 2748 s reset_reverb_mfratio_trig;
#X obj 2651 2875 s resetall_reverb_mfratio;
#X obj 29 38 cnv 16 15 15 empty empty Reset\ Settings 20 12 0 20 #ffffff #404040 0;
#X text 82 361 Reset value;
#X text 82 517 Reset value;
#X obj 49 273 r reset_main;
#X obj 49 429 r reset_reverb;
#X obj 49 546 s reset_reverb_level_trig;
#X obj 49 390 s reset_main_level_trig;
#X text 82 996 Reset value;
#X obj 49 908 r reset_reverb;
#X obj 49 1025 s reset_reverb_solo_trig;
#X text 82 2087 Reset value;
#X obj 49 1999 r reset_reverb;
#X obj 49 2116 s reset_reverb_main_trig;
#X text 82 1463 Reset value;
#X text 82 1619 Reset value;
#X obj 49 1375 r reset_main;
#X obj 49 1531 r reset_reverb;
#X obj 49 1492 s reset_main_mute_trig;
#X obj 49 1648 s reset_reverb_mute_trig;
#X text 1167 361 Reset value;
#X text 1167 517 Reset value;
#X obj 1134 273 r reset_main;
#X obj 1134 429 r reset_reverb;
#X text 1419 361 Reset value;
#X text 1419 517 Reset value;
#X obj 1386 273 r reset_main;
#X obj 1386 429 r reset_reverb;
#X text 1671 361 Reset value;
#X text 1671 517 Reset value;
#X obj 1638 273 r reset_main;
#X obj 1638 429 r reset_reverb;
#X text 1923 361 Reset value;
#X text 1923 517 Reset value;
#X obj 1890 273 r reset_main;
#X obj 1890 429 r reset_reverb;
#X obj 1134 390 s reset_main_eq_high_enable_trig;
#X obj 1134 546 s reset_reverb_eq_high_enable_trig;
#X obj 1386 390 s reset_main_eq_mid1_enable_trig;
#X obj 1386 546 s reset_reverb_eq_mid1_enable_trig;
#X obj 1638 390 s reset_main_eq_mid2_enable_trig;
#X obj 1638 546 s reset_reverb_eq_mid2_enable_trig;
#X obj 1890 390 s reset_main_eq_low_enable_trig;
#X obj 1890 546 s reset_reverb_eq_low_enable_trig;
#X text 1167 986 Reset value;
#X text 1167 1142 Reset value;
#X obj 1134 898 r reset_main;
#X obj 1134 1054 r reset_reverb;
#X text 1419 986 Reset value;
#X text 1419 1142 Reset value;
#X obj 1386 898 r reset_main;
#X obj 1386 1054 r reset_reverb;
#X text 1671 986 Reset value;
#X text 1671 1142 Reset value;
#X obj 1638 898 r reset_main;
#X obj 1638 1054 r reset_reverb;
#X text 1923 986 Reset value;
#X text 1923 1142 Reset value;
#X obj 1890 898 r reset_main;
#X obj 1890 1054 r reset_reverb;
#X obj 1134 1015 s reset_main_eq_high_gain_trig;
#X obj 1134 1171 s reset_reverb_eq_high_gain_trig;
#X obj 1386 1015 s reset_main_eq_mid1_gain_trig;
#X obj 1386 1171 s reset_reverb_eq_mid1_gain_trig;
#X obj 1638 1015 s reset_main_eq_mid2_gain_trig;
#X obj 1638 1171 s reset_reverb_eq_mid2_gain_trig;
#X obj 1890 1171 s reset_reverb_eq_low_gain_trig;
#X obj 1890 1015 s reset_main_eq_low_gain_trig;
#X text 1167 1611 Reset value;
#X text 1167 1767 Reset value;
#X obj 1134 1523 r reset_main;
#X obj 1134 1679 r reset_reverb;
#X text 1419 1611 Reset value;
#X text 1419 1767 Reset value;
#X obj 1386 1523 r reset_main;
#X obj 1386 1679 r reset_reverb;
#X text 1671 1611 Reset value;
#X text 1671 1767 Reset value;
#X obj 1638 1523 r reset_main;
#X obj 1638 1679 r reset_reverb;
#X text 1923 1611 Reset value;
#X text 1923 1767 Reset value;
#X obj 1890 1523 r reset_main;
#X obj 1890 1679 r reset_reverb;
#X obj 1134 1640 s reset_main_eq_high_freq_trig;
#X obj 1134 1796 s reset_reverb_eq_high_freq_trig;
#X obj 1386 1640 s reset_main_eq_mid1_freq_trig;
#X obj 1386 1484 s reset_eq_mid1_freq_trig;
#X obj 1386 1796 s reset_reverb_eq_mid1_freq_trig;
#X obj 1638 1640 s reset_main_eq_mid2_freq_trig;
#X obj 1638 1796 s reset_reverb_eq_mid2_freq_trig;
#X obj 1890 1796 s reset_reverb_eq_low_freq_trig;
#X obj 1890 1640 s reset_main_eq_low_freq_trig;
#X text 1167 2236 Reset value;
#X text 1167 2392 Reset value;
#X obj 1134 2148 r reset_main;
#X obj 1134 2304 r reset_reverb;
#X text 1419 2236 Reset value;
#X text 1419 2392 Reset value;
#X obj 1386 2148 r reset_main;
#X obj 1386 2304 r reset_reverb;
#X text 1671 2236 Reset value;
#X text 1671 2392 Reset value;
#X obj 1638 2148 r reset_main;
#X obj 1638 2304 r reset_reverb;
#X text 1923 2236 Reset value;
#X text 1923 2392 Reset value;
#X obj 1890 2148 r reset_main;
#X obj 1890 2304 r reset_reverb;
#X obj 1386 2265 s reset_main_eq_mid1_bw_trig;
#X obj 1386 2421 s reset_reverb_eq_mid1_bw_trig;
#X obj 1638 2421 s reset_reverb_eq_mid2_bw_trig;
#X obj 1638 2265 s reset_main_eq_mid2_bw_trig;
#X obj 1890 2265 s reset_main_eq_low_mode_trig;
#X obj 1890 2421 s reset_reverb_eq_low_mode_trig;
#X obj 1134 2421 s reset_reverb_eq_high_mode_trig;
#X obj 1134 2265 s reset_main_eq_high_mode_trig;
#X text 1167 2861 Reset value;
#X text 1167 3017 Reset value;
#X obj 1134 2773 r reset_main;
#X obj 1134 2929 r reset_reverb;
#X text 1923 2861 Reset value;
#X text 1923 3017 Reset value;
#X obj 1890 2773 r reset_main;
#X obj 1890 2929 r reset_reverb;
#X obj 1134 2890 s reset_main_eq_high_bw_trig;
#X obj 1134 3046 s reset_reverb_eq_high_bw_trig;
#X obj 1890 2890 s reset_main_eq_low_bw_trig;
#X obj 1890 3046 s reset_reverb_eq_low_bw_trig;
#X text 2404 205 Reset value;
#X text 2404 361 Reset value;
#X obj 2371 117 r reset_main;
#X obj 2371 273 r reset_reverb;
#X obj 2371 234 s reset_main_leveler_enable_trig;
#X obj 2371 390 s reset_reverb_leveler_enable_trig;
#X text 2404 674 Reset value;
#X text 2404 830 Reset value;
#X obj 2371 586 r reset_main;
#X obj 2371 742 r reset_reverb;
#X obj 2371 703 s reset_main_leveler_reduction_trig;
#X obj 2371 859 s reset_reverb_leveler_reduction_trig;
#X text 2404 1142 Reset value;
#X text 2404 1298 Reset value;
#X obj 2371 1054 r reset_main;
#X obj 2371 1210 r reset_reverb;
#X obj 2371 1171 s reset_main_leveler_makeup_trig;
#X obj 2371 1327 s reset_reverb_leveler_makeup_trig;
#X text 2404 1611 Reset value;
#X text 2404 1767 Reset value;
#X obj 2371 1523 r reset_main;
#X obj 2371 1679 r reset_reverb;
#X obj 2371 1640 s reset_main_leveler_limit_trig;
#X obj 2371 1796 s reset_reverb_leveler_limit_trig;
#X obj 2651 117 r reset_reverb;
#X obj 2651 430 r reset_reverb;
#X obj 2651 752 r reset_reverb;
#X obj 2651 1065 r reset_reverb;
#X obj 2651 1375 r reset_reverb;
#X obj 2651 1687 r reset_reverb;
#X obj 2651 2005 r reset_reverb;
#X obj 2651 2318 r reset_reverb;
#X obj 2651 2631 r reset_reverb;
#X obj 480 989 s resetall_group5-6;
#X msg 49 205 127;
#X msg 49 361 127;
#X msg 49 517 127;
#X msg 49 643 127;
#X msg 49 840 0;
#X msg 49 996 0;
#X msg 49 1122 0;
#X msg 49 1307 0;
#X msg 49 1463 0;
#X msg 49 1619 0;
#X msg 49 1745 0;
#X msg 1134 205 0;
#X msg 1134 361 0;
#X msg 1134 517 0;
#X msg 1134 644 0;
#X msg 1386 205 0;
#X msg 1386 361 0;
#X msg 1386 517 0;
#X msg 1386 644 0;
#X msg 1638 205 0;
#X msg 1638 361 0;
#X msg 1638 517 0;
#X msg 1638 644 0;
#X msg 1890 205 0;
#X msg 1890 361 0;
#X msg 1890 517 0;
#X msg 1890 644 0;
#X msg 2371 205 0;
#X msg 2371 361 0;
#X msg 2371 488 0;
#X msg 2371 1894 127;
#X msg 2371 1767 127;
#X msg 2371 1611 127;
#X msg 1134 830 63;
#X msg 1134 986 63;
#X msg 1134 1142 63;
#X msg 1134 1269 63;
#X msg 1134 1455 115;
#X msg 1134 1611 115;
#X msg 1134 1767 115;
#X msg 1134 1894 115;
#X msg 1386 1455 82;
#X msg 1386 1611 82;
#X msg 1386 1767 82;
#X msg 1386 1894 82;
#X msg 1638 1455 103;
#X msg 1638 1611 103;
#X msg 1638 1767 103;
#X msg 1638 1894 103;
#X msg 1386 830 63;
#X msg 1386 986 63;
#X msg 1386 1142 63;
#X msg 1386 1269 63;
#X msg 1638 830 63;
#X msg 1638 986 63;
#X msg 1638 1142 63;
#X msg 1638 1269 63;
#X msg 1890 830 63;
#X msg 1890 986 63;
#X msg 1891 1142 63;
#X msg 1890 1269 63;
#X msg 1638 2080 42;
#X msg 1638 2236 42;
#X msg 1638 2392 42;
#X msg 1638 2519 42;
#X msg 1386 2080 42;
#X msg 1386 2236 42;
#X msg 1386 2392 42;
#X msg 1386 2519 42;
#X msg 1890 2705 42;
#X msg 1890 2861 42;
#X msg 1890 3017 42;
#X msg 1890 3144 42;
#X msg 1134 2705 42;
#X msg 1134 2861 42;
#X msg 1134 3017 42;
#X msg 1134 3144 42;
#X msg 1890 1455 47;
#X msg 1890 1611 47;
#X msg 1890 1767 47;
#X msg 1890 1894 47;
#X msg 2371 674 25;
#X msg 2371 830 25;
#X msg 2371 957 25;
#X msg 2371 1142 25;
#X msg 2371 1298 25;
#X msg 2371 1425 25;
#X msg 1890 2080 127;
#X msg 1890 2236 127;
#X msg 1890 2392 127;
#X msg 1890 2519 127;
#X msg 1134 2519 127;
#X msg 1134 2392 127;
#X msg 1134 2236 127;
#X msg 1134 2080 127;
#X msg 49 1931 127;
#X msg 49 2087 127;
#X msg 49 2213 127;
#X msg 2651 205 127;
#X msg 2651 332 127;
#X msg 2651 518 67;
#X msg 2651 645 67;
#X msg 2651 840 127;
#X msg 2651 967 127;
#X msg 2651 1153 0;
#X msg 2651 1280 0;
#X msg 2651 1463 127;
#X msg 2651 1590 127;
#X msg 2651 2093 32;
#X msg 2651 2220 32;
#X msg 2651 2846 63;
#X msg 2651 2719 63;
#X msg 2651 1775 9;
#X msg 2651 1902 9;
#X msg 274 205 0;
#X msg 274 332 0;
#X msg 274 519 0;
#X msg 274 646 0;
#X msg 274 833 0;
#X msg 274 960 0;
#X msg 274 1146 0;
#X msg 274 1274 0;
#X msg 274 1460 0;
#X msg 274 1587 0;
#X msg 274 1899 0;
#X msg 274 1772 0;
#X msg 274 2522 0;
#X msg 274 2395 0;
#X msg 480 205 0;
#X msg 480 332 0;
#X msg 480 519 0;
#X msg 480 646 0;
#X msg 480 833 0;
#X msg 696 205 0;
#X msg 696 332 0;
#X msg 696 517 35;
#X msg 696 644 35;
#X msg 907 205 0;
#X msg 907 332 0;
#X msg 907 518 2;
#X msg 907 645 2;
#X msg 907 831 0;
#X msg 907 958 0;
#X msg 907 1144 32;
#X msg 907 1271 32;
#X msg 2146 205 0;
#X msg 2146 332 0;
#X msg 2146 518 62;
#X msg 2146 645 62;
#X msg 2146 831 26;
#X msg 2146 958 26;
#X msg 2146 1144 127;
#X msg 2146 1271 127;
#X msg 2146 1457 127;
#X msg 2146 1584 127;
#X msg 2146 1770 63;
#X msg 2146 1897 63;
#X msg 2146 2396 32;
#X msg 2146 2523 32;
#X msg 480 960 0;
#X msg 2146 2083 2;
#X msg 2146 2210 2;
#X obj 49 585 r send select;
#X obj 49 614 sel 0;
#X obj 49 1064 r send select;
#X obj 49 1093 sel 1;
#X obj 49 1687 r send select;
#X obj 49 1716 sel 2;
#X obj 49 2155 r send select;
#X obj 49 2184 sel 3;
#X obj 274 273 r send select;
#X obj 274 587 r send select;
#X obj 274 901 r send select;
#X obj 274 1215 r send select;
#X obj 274 1528 r send select;
#X obj 274 2463 r send select;
#X obj 274 1840 r send select;
#X obj 274 302 sel 4;
#X obj 274 616 sel 5;
#X obj 274 930 sel 6;
#X obj 274 1244 sel 7;
#X obj 274 1557 sel 8;
#X obj 274 1869 sel 9;
#X obj 274 2492 sel 10;
#X obj 480 273 r send select;
#X obj 480 587 r send select;
#X obj 480 901 r send select;
#X obj 480 302 sel 11;
#X obj 480 616 sel 12;
#X obj 480 930 sel 13;
#X obj 696 273 r send select;
#X obj 696 585 r send select;
#X obj 696 361 s resetall_hpf_enable;
#X obj 696 302 sel 14;
#X obj 696 614 sel 15;
#X obj 706 458 r send select;
#X obj 706 487 sel 15;
#X obj 706 146 r send select;
#X obj 706 175 sel 15;
#X obj 490 774 r send select;
#X obj 490 803 sel 13;
#X obj 490 460 r send select;
#X obj 490 489 sel 12;
#X obj 490 146 r send select;
#X obj 490 175 sel 11;
#X obj 284 146 r send select;
#X obj 284 460 r send select;
#X obj 284 774 r send select;
#X obj 284 1088 r send select;
#X obj 284 1401 r send select;
#X obj 284 2336 r send select;
#X obj 284 1713 r send select;
#X obj 284 175 sel 4;
#X obj 284 489 sel 5;
#X obj 284 803 sel 6;
#X obj 284 1117 sel 7;
#X obj 284 1430 sel 8;
#X obj 284 1742 sel 9;
#X obj 284 2365 sel 10;
#X obj 59 2028 r send select;
#X obj 59 2057 sel 3;
#X obj 59 1872 r send select;
#X obj 59 1901 sel 3;
#X obj 59 1560 r send select;
#X obj 59 1589 sel 2;
#X obj 59 1404 r send select;
#X obj 59 1433 sel 2;
#X obj 59 1248 r send select;
#X obj 59 1277 sel 2;
#X obj 59 937 r send select;
#X obj 59 966 sel 1;
#X obj 59 781 r send select;
#X obj 59 810 sel 1;
#X obj 59 458 r send select;
#X obj 59 487 sel 0;
#X obj 59 302 r send select;
#X obj 59 331 sel 0;
#X obj 59 146 r send select;
#X obj 59 175 sel 0;
#X obj 907 273 r send select;
#X obj 907 586 r send select;
#X obj 907 899 r send select;
#X obj 907 1212 r send select;
#X obj 917 146 r send select;
#X obj 917 459 r send select;
#X obj 917 772 r send select;
#X obj 917 1085 r send select;
#X obj 917 175 sel 16;
#X obj 907 302 sel 16;
#X obj 917 488 sel 17;
#X obj 907 615 sel 17;
#X obj 917 801 sel 18;
#X obj 907 928 sel 18;
#X obj 917 1114 sel 19;
#X obj 907 1241 sel 19;
#X obj 1144 146 r send select;
#X obj 1144 302 r send select;
#X obj 1144 458 r send select;
#X obj 1134 585 r send select;
#X obj 1144 771 r send select;
#X obj 1144 927 r send select;
#X obj 1144 1083 r send select;
#X obj 1134 1210 r send select;
#X obj 1144 1396 r send select;
#X obj 1144 1552 r send select;
#X obj 1144 1708 r send select;
#X obj 1134 1835 r send select;
#X obj 1144 2021 r send select;
#X obj 1144 2177 r send select;
#X obj 1144 2333 r send select;
#X obj 1134 2460 r send select;
#X obj 1144 2646 r send select;
#X obj 1144 2802 r send select;
#X obj 1144 2958 r send select;
#X obj 1134 3085 r send select;
#X obj 1396 146 r send select;
#X obj 1396 302 r send select;
#X obj 1386 585 r send select;
#X obj 1396 771 r send select;
#X obj 1396 927 r send select;
#X obj 1396 1083 r send select;
#X obj 1386 1210 r send select;
#X obj 1396 1396 r send select;
#X obj 1396 1552 r send select;
#X obj 1396 1708 r send select;
#X obj 1386 1835 r send select;
#X obj 1396 2021 r send select;
#X obj 1396 2177 r send select;
#X obj 1396 2333 r send select;
#X obj 1386 2460 r send select;
#X obj 1396 458 r send select;
#X obj 1144 175 sel 20;
#X obj 1144 331 sel 20;
#X obj 1144 487 sel 20;
#X obj 1134 614 sel 20;
#X obj 1144 800 sel 21;
#X obj 1144 956 sel 21;
#X obj 1144 1112 sel 21;
#X obj 1134 1239 sel 21;
#X obj 1144 1425 sel 22;
#X obj 1144 1581 sel 22;
#X obj 1144 1737 sel 22;
#X obj 1134 1864 sel 22;
#X obj 1144 2050 sel 23;
#X obj 1144 2206 sel 23;
#X obj 1144 2362 sel 23;
#X obj 1134 2489 sel 23;
#X obj 1144 2675 sel 24;
#X obj 1144 2831 sel 24;
#X obj 1144 2987 sel 24;
#X obj 1134 3114 sel 24;
#X obj 1396 175 sel 25;
#X obj 1396 331 sel 25;
#X obj 1396 487 sel 25;
#X obj 1386 614 sel 25;
#X obj 1396 800 sel 26;
#X obj 1396 956 sel 26;
#X obj 1396 1112 sel 26;
#X obj 1386 1239 sel 26;
#X obj 1396 1425 sel 27;
#X obj 1396 1581 sel 27;
#X obj 1396 1737 sel 27;
#X obj 1386 1864 sel 27;
#X obj 1396 2050 sel 28;
#X obj 1396 2206 sel 28;
#X obj 1396 2362 sel 28;
#X obj 1386 2489 sel 28;
#X obj 1900 146 r send select;
#X obj 1900 302 r send select;
#X obj 1900 458 r send select;
#X obj 1890 585 r send select;
#X obj 1900 771 r send select;
#X obj 1900 927 r send select;
#X obj 1900 1083 r send select;
#X obj 1890 1210 r send select;
#X obj 1900 1396 r send select;
#X obj 1900 1552 r send select;
#X obj 1900 1708 r send select;
#X obj 1890 1835 r send select;
#X obj 1900 2021 r send select;
#X obj 1900 2177 r send select;
#X obj 1900 2333 r send select;
#X obj 1890 2460 r send select;
#X obj 1900 2646 r send select;
#X obj 1900 2802 r send select;
#X obj 1900 2958 r send select;
#X obj 1890 3085 r send select;
#X obj 1648 146 r send select;
#X obj 1648 302 r send select;
#X obj 1638 585 r send select;
#X obj 1648 771 r send select;
#X obj 1648 927 r send select;
#X obj 1648 1083 r send select;
#X obj 1638 1210 r send select;
#X obj 1648 1396 r send select;
#X obj 1648 1552 r send select;
#X obj 1648 1708 r send select;
#X obj 1638 1835 r send select;
#X obj 1648 2021 r send select;
#X obj 1648 2177 r send select;
#X obj 1648 2333 r send select;
#X obj 1638 2460 r send select;
#X obj 1648 458 r send select;
#X obj 1648 175 sel 29;
#X obj 1648 331 sel 29;
#X obj 1648 487 sel 29;
#X obj 1638 614 sel 29;
#X obj 1648 800 sel 30;
#X obj 1648 956 sel 30;
#X obj 1648 1112 sel 30;
#X obj 1638 1239 sel 30;
#X obj 1648 1425 sel 31;
#X obj 1648 1581 sel 31;
#X obj 1648 1737 sel 31;
#X obj 1638 1864 sel 31;
#X obj 1648 2050 sel 32;
#X obj 1648 2206 sel 32;
#X obj 1648 2362 sel 32;
#X obj 1638 2489 sel 32;
#X obj 1900 175 sel 33;
#X obj 1900 331 sel 33;
#X obj 1900 487 sel 33;
#X obj 1890 614 sel 33;
#X obj 1900 800 sel 34;
#X obj 1900 956 sel 34;
#X obj 1900 1112 sel 34;
#X obj 1890 1239 sel 34;
#X obj 1900 1425 sel 35;
#X obj 1900 1581 sel 35;
#X obj 1900 1737 sel 35;
#X obj 1890 1864 sel 35;
#X obj 1900 2050 sel 36;
#X obj 1900 2206 sel 36;
#X obj 1900 2362 sel 36;
#X obj 1890 2489 sel 36;
#X obj 1900 2675 sel 37;
#X obj 1900 2831 sel 37;
#X obj 1900 2987 sel 37;
#X obj 1890 3114 sel 37;
#X obj 2156 146 r send select;
#X obj 2146 273 r send select;
#X obj 2156 459 r send select;
#X obj 2146 586 r send select;
#X obj 2156 772 r send select;
#X obj 2146 899 r send select;
#X obj 2156 1085 r send select;
#X obj 2146 1212 r send select;
#X obj 2156 1398 r send select;
#X obj 2146 1525 r send select;
#X obj 2156 1711 r send select;
#X obj 2146 1838 r send select;
#X obj 2156 2024 r send select;
#X obj 2146 2151 r send select;
#X obj 2156 2337 r send select;
#X obj 2146 2464 r send select;
#X obj 2156 175 sel 43;
#X obj 2146 302 sel 43;
#X obj 2156 488 sel 44;
#X obj 2146 615 sel 44;
#X obj 2156 801 sel 45;
#X obj 2146 928 sel 45;
#X obj 2156 1114 sel 46;
#X obj 2146 1241 sel 46;
#X obj 2156 1427 sel 47;
#X obj 2147 1554 sel 47;
#X obj 2156 1740 sel 48;
#X obj 2146 1867 sel 48;
#X obj 2156 2053 sel 49;
#X obj 2146 2180 sel 49;
#X obj 2156 2366 sel 50;
#X obj 2146 2493 sel 50;
#X obj 2381 146 r send select;
#X obj 2381 302 r send select;
#X obj 2371 429 r send select;
#X obj 2381 615 r send select;
#X obj 2381 771 r send select;
#X obj 2371 898 r send select;
#X obj 2381 1083 r send select;
#X obj 2381 1239 r send select;
#X obj 2371 1366 r send select;
#X obj 2381 1552 r send select;
#X obj 2381 1708 r send select;
#X obj 2371 1835 r send select;
#X obj 2381 175 sel 51;
#X obj 2381 331 sel 51;
#X obj 2371 458 sel 51;
#X obj 2381 644 sel 52;
#X obj 2382 800 sel 52;
#X obj 2371 927 sel 52;
#X obj 2381 1112 sel 53;
#X obj 2381 1268 sel 53;
#X obj 2371 1395 sel 53;
#X obj 2381 1581 sel 54;
#X obj 2381 1737 sel 54;
#X obj 2371 1864 sel 54;
#X obj 2661 146 r send select;
#X obj 2651 273 r send select;
#X obj 2661 459 r send select;
#X obj 2651 586 r send select;
#X obj 2661 781 r send select;
#X obj 2651 908 r send select;
#X obj 2661 1094 r send select;
#X obj 2651 1221 r send select;
#X obj 2661 1404 r send select;
#X obj 2651 1531 r send select;
#X obj 2661 1716 r send select;
#X obj 2651 1843 r send select;
#X obj 2661 2034 r send select;
#X obj 2651 2161 r send select;
#X obj 2661 2347 r send select;
#X obj 2651 2474 r send select;
#X obj 2661 2660 r send select;
#X obj 2651 2787 r send select;
#X obj 2661 175 sel 55;
#X obj 2651 302 sel 55;
#X obj 2661 488 sel 56;
#X obj 2651 615 sel 56;
#X obj 2661 810 sel 57;
#X obj 2651 937 sel 57;
#X obj 2661 1123 sel 58;
#X obj 2651 1250 sel 58;
#X obj 2661 1433 sel 59;
#X obj 2651 1560 sel 59;
#X obj 2661 1745 sel 60;
#X obj 2651 1872 sel 60;
#X obj 2661 2063 sel 61;
#X obj 2651 2190 sel 61;
#X obj 2661 2376 sel 62;
#X obj 2651 2503 sel 62;
#X obj 2661 2689 sel 63;
#X obj 2651 2816 sel 63;
#X obj 274 1994 r reset;
#X text 307 2082 Reset value;
#X text 308 2209 Reset value;
#X msg 274 2209 0;
#X msg 274 2082 0;
#X obj 274 2150 r send select;
#X obj 274 2179 sel 9;
#X obj 284 2023 r send select;
#X obj 284 2052 sel 9;
#X text 272 1970 Aux 13-14 (ZOIA);
#X obj 274 2111 s reset_aux13-14_trig;
#X obj 274 2238 s resetall_aux13-14;
#X connect 1 0 498 0;
#X connect 9 0 501 0;
#X connect 15 0 589 0;
#X connect 21 0 608 0;
#X connect 27 0 610 0;
#X connect 33 0 612 0;
#X connect 39 0 614 0;
#X connect 45 0 616 0;
#X connect 51 0 494 0;
#X connect 54 0 619 0;
#X connect 60 0 621 0;
#X connect 66 0 622 0;
#X connect 72 0 624 0;
#X connect 78 0 626 0;
#X connect 83 0 627 0;
#X connect 88 0 629 0;
#X connect 94 0 631 0;
#X connect 98 0 633 0;
#X connect 102 0 635 0;
#X connect 106 0 637 0;
#X connect 110 0 505 0;
#X connect 124 0 527 0;
#X connect 129 0 531 0;
#X connect 136 0 588 0;
#X connect 142 0 567 0;
#X connect 148 0 509 0;
#X connect 154 0 543 0;
#X connect 160 0 535 0;
#X connect 165 0 559 0;
#X connect 171 0 513 0;
#X connect 176 0 547 0;
#X connect 181 0 539 0;
#X connect 186 0 555 0;
#X connect 195 0 517 0;
#X connect 200 0 551 0;
#X connect 204 0 571 0;
#X connect 210 0 581 0;
#X connect 215 0 563 0;
#X connect 225 0 639 0;
#X connect 231 0 641 0;
#X connect 237 0 643 0;
#X connect 243 0 645 0;
#X connect 249 0 647 0;
#X connect 255 0 649 0;
#X connect 261 0 654 0;
#X connect 267 0 651 0;
#X connect 321 0 325 0;
#X connect 323 0 326 0;
#X connect 335 0 495 0;
#X connect 336 0 496 0;
#X connect 340 0 499 0;
#X connect 343 0 590 0;
#X connect 347 0 502 0;
#X connect 348 0 503 0;
#X connect 353 0 506 0;
#X connect 354 0 507 0;
#X connect 357 0 510 0;
#X connect 358 0 511 0;
#X connect 361 0 514 0;
#X connect 362 0 515 0;
#X connect 365 0 518 0;
#X connect 366 0 519 0;
#X connect 377 0 528 0;
#X connect 378 0 529 0;
#X connect 381 0 544 0;
#X connect 382 0 545 0;
#X connect 385 0 548 0;
#X connect 386 0 549 0;
#X connect 389 0 552 0;
#X connect 390 0 553 0;
#X connect 401 0 532 0;
#X connect 402 0 533 0;
#X connect 405 0 536 0;
#X connect 406 0 537 0;
#X connect 409 0 540 0;
#X connect 410 0 541 0;
#X connect 413 0 572 0;
#X connect 414 0 573 0;
#X connect 426 0 587 0;
#X connect 427 0 586 0;
#X connect 430 0 560 0;
#X connect 431 0 561 0;
#X connect 434 0 556 0;
#X connect 435 0 557 0;
#X connect 438 0 582 0;
#X connect 439 0 583 0;
#X connect 450 0 568 0;
#X connect 451 0 569 0;
#X connect 454 0 564 0;
#X connect 455 0 565 0;
#X connect 462 0 521 0;
#X connect 463 0 522 0;
#X connect 468 0 575 0;
#X connect 469 0 576 0;
#X connect 474 0 578 0;
#X connect 475 0 579 0;
#X connect 480 0 526 0;
#X connect 481 0 525 0;
#X connect 484 0 592 0;
#X connect 485 0 594 0;
#X connect 486 0 596 0;
#X connect 487 0 598 0;
#X connect 488 0 600 0;
#X connect 489 0 606 0;
#X connect 490 0 602 0;
#X connect 491 0 321 0;
#X connect 492 0 605 0;
#X connect 494 0 53 0;
#X connect 495 0 338 0;
#X connect 496 0 337 0;
#X connect 497 0 5 0;
#X connect 498 0 3 0;
#X connect 499 0 341 0;
#X connect 500 0 8 0;
#X connect 501 0 11 0;
#X connect 502 0 349 0;
#X connect 503 0 350 0;
#X connect 504 0 13 0;
#X connect 505 0 122 0;
#X connect 506 0 367 0;
#X connect 507 0 368 0;
#X connect 508 0 123 0;
#X connect 509 0 152 0;
#X connect 510 0 369 0;
#X connect 511 0 370 0;
#X connect 512 0 153 0;
#X connect 513 0 174 0;
#X connect 514 0 371 0;
#X connect 515 0 372 0;
#X connect 516 0 175 0;
#X connect 517 0 198 0;
#X connect 518 0 373 0;
#X connect 519 0 374 0;
#X connect 520 0 199 0;
#X connect 521 0 464 0;
#X connect 522 0 465 0;
#X connect 523 0 275 0;
#X connect 524 0 284 0;
#X connect 525 0 483 0;
#X connect 526 0 482 0;
#X connect 527 0 128 0;
#X connect 528 0 391 0;
#X connect 529 0 392 0;
#X connect 530 0 134 0;
#X connect 531 0 133 0;
#X connect 532 0 415 0;
#X connect 533 0 416 0;
#X connect 534 0 135 0;
#X connect 535 0 418 0;
#X connect 536 0 417 0;
#X connect 537 0 419 0;
#X connect 538 0 164 0;
#X connect 539 0 184 0;
#X connect 540 0 420 0;
#X connect 541 0 421 0;
#X connect 542 0 185 0;
#X connect 543 0 158 0;
#X connect 544 0 393 0;
#X connect 545 0 394 0;
#X connect 546 0 159 0;
#X connect 547 0 179 0;
#X connect 548 0 395 0;
#X connect 549 0 396 0;
#X connect 550 0 180 0;
#X connect 551 0 203 0;
#X connect 552 0 398 0;
#X connect 553 0 397 0;
#X connect 554 0 208 0;
#X connect 555 0 189 0;
#X connect 556 0 443 0;
#X connect 557 0 442 0;
#X connect 558 0 190 0;
#X connect 559 0 169 0;
#X connect 560 0 440 0;
#X connect 561 0 441 0;
#X connect 562 0 170 0;
#X connect 563 0 218 0;
#X connect 564 0 458 0;
#X connect 565 0 459 0;
#X connect 566 0 219 0;
#X connect 567 0 146 0;
#X connect 568 0 456 0;
#X connect 569 0 457 0;
#X connect 570 0 147 0;
#X connect 571 0 207 0;
#X connect 572 0 423 0;
#X connect 573 0 422 0;
#X connect 574 0 209 0;
#X connect 575 0 470 0;
#X connect 576 0 471 0;
#X connect 577 0 278 0;
#X connect 578 0 476 0;
#X connect 579 0 477 0;
#X connect 580 0 282 0;
#X connect 581 0 213 0;
#X connect 582 0 444 0;
#X connect 583 0 445 0;
#X connect 584 0 214 0;
#X connect 585 0 141 0;
#X connect 586 0 446 0;
#X connect 587 0 447 0;
#X connect 588 0 140 0;
#X connect 589 0 17 0;
#X connect 590 0 344 0;
#X connect 591 0 19 0;
#X connect 592 0 288 0;
#X connect 593 0 289 0;
#X connect 594 0 293 0;
#X connect 595 0 294 0;
#X connect 596 0 298 0;
#X connect 597 0 299 0;
#X connect 598 0 303 0;
#X connect 599 0 304 0;
#X connect 600 0 308 0;
#X connect 601 0 309 0;
#X connect 602 0 318 0;
#X connect 603 0 319 0;
#X connect 604 0 331 0;
#X connect 605 0 330 0;
#X connect 606 0 313 0;
#X connect 607 0 314 0;
#X connect 608 0 23 0;
#X connect 609 0 25 0;
#X connect 610 0 29 0;
#X connect 611 0 31 0;
#X connect 612 0 35 0;
#X connect 613 0 37 0;
#X connect 614 0 41 0;
#X connect 615 0 43 0;
#X connect 616 0 47 0;
#X connect 617 0 49 0;
#X connect 618 0 58 0;
#X connect 619 0 56 0;
#X connect 620 0 64 0;
#X connect 621 0 62 0;
#X connect 622 0 68 0;
#X connect 623 0 70 0;
#X connect 624 0 74 0;
#X connect 625 0 76 0;
#X connect 626 0 80 0;
#X connect 627 0 85 0;
#X connect 628 0 686 0;
#X connect 629 0 90 0;
#X connect 630 0 92 0;
#X connect 631 0 114 0;
#X connect 632 0 115 0;
#X connect 633 0 116 0;
#X connect 634 0 117 0;
#X connect 635 0 118 0;
#X connect 636 0 119 0;
#X connect 637 0 120 0;
#X connect 638 0 121 0;
#X connect 639 0 229 0;
#X connect 640 0 230 0;
#X connect 641 0 235 0;
#X connect 642 0 236 0;
#X connect 643 0 241 0;
#X connect 644 0 242 0;
#X connect 645 0 247 0;
#X connect 646 0 248 0;
#X connect 647 0 253 0;
#X connect 648 0 254 0;
#X connect 649 0 259 0;
#X connect 650 0 260 0;
#X connect 651 0 271 0;
#X connect 652 0 272 0;
#X connect 653 0 493 0;
#X connect 654 0 265 0;
#X connect 655 0 266 0;
#X connect 656 0 657 0;
#X connect 657 0 497 0;
#X connect 658 0 659 0;
#X connect 659 0 500 0;
#X connect 660 0 661 0;
#X connect 661 0 504 0;
#X connect 662 0 663 0;
#X connect 663 0 591 0;
#X connect 664 0 671 0;
#X connect 665 0 672 0;
#X connect 666 0 673 0;
#X connect 667 0 674 0;
#X connect 668 0 675 0;
#X connect 669 0 677 0;
#X connect 670 0 676 0;
#X connect 671 0 609 0;
#X connect 672 0 611 0;
#X connect 673 0 613 0;
#X connect 674 0 615 0;
#X connect 675 0 617 0;
#X connect 676 0 618 0;
#X connect 677 0 620 0;
#X connect 678 0 681 0;
#X connect 679 0 682 0;
#X connect 680 0 683 0;
#X connect 681 0 623 0;
#X connect 682 0 625 0;
#X connect 683 0 653 0;
#X connect 684 0 687 0;
#X connect 685 0 688 0;
#X connect 687 0 628 0;
#X connect 688 0 630 0;
#X connect 689 0 690 0;
#X connect 690 0 629 0;
#X connect 691 0 692 0;
#X connect 692 0 627 0;
#X connect 693 0 694 0;
#X connect 694 0 626 0;
#X connect 695 0 696 0;
#X connect 696 0 624 0;
#X connect 697 0 698 0;
#X connect 698 0 622 0;
#X connect 699 0 706 0;
#X connect 700 0 707 0;
#X connect 701 0 708 0;
#X connect 702 0 709 0;
#X connect 703 0 710 0;
#X connect 704 0 712 0;
#X connect 705 0 711 0;
#X connect 706 0 608 0;
#X connect 707 0 610 0;
#X connect 708 0 612 0;
#X connect 709 0 614 0;
#X connect 710 0 616 0;
#X connect 711 0 619 0;
#X connect 712 0 621 0;
#X connect 713 0 714 0;
#X connect 714 0 590 0;
#X connect 715 0 716 0;
#X connect 716 0 589 0;
#X connect 717 0 718 0;
#X connect 718 0 503 0;
#X connect 719 0 720 0;
#X connect 720 0 502 0;
#X connect 721 0 722 0;
#X connect 722 0 501 0;
#X connect 723 0 724 0;
#X connect 724 0 499 0;
#X connect 725 0 726 0;
#X connect 726 0 498 0;
#X connect 727 0 728 0;
#X connect 728 0 496 0;
#X connect 729 0 730 0;
#X connect 730 0 495 0;
#X connect 731 0 732 0;
#X connect 732 0 494 0;
#X connect 733 0 742 0;
#X connect 734 0 744 0;
#X connect 735 0 746 0;
#X connect 736 0 748 0;
#X connect 737 0 741 0;
#X connect 738 0 743 0;
#X connect 739 0 745 0;
#X connect 740 0 747 0;
#X connect 741 0 631 0;
#X connect 742 0 632 0;
#X connect 743 0 633 0;
#X connect 744 0 634 0;
#X connect 745 0 635 0;
#X connect 746 0 636 0;
#X connect 747 0 637 0;
#X connect 748 0 638 0;
#X connect 749 0 785 0;
#X connect 750 0 786 0;
#X connect 751 0 787 0;
#X connect 752 0 788 0;
#X connect 753 0 789 0;
#X connect 754 0 790 0;
#X connect 755 0 791 0;
#X connect 756 0 792 0;
#X connect 757 0 793 0;
#X connect 758 0 794 0;
#X connect 759 0 795 0;
#X connect 760 0 796 0;
#X connect 761 0 797 0;
#X connect 762 0 798 0;
#X connect 763 0 799 0;
#X connect 764 0 800 0;
#X connect 765 0 801 0;
#X connect 766 0 802 0;
#X connect 767 0 803 0;
#X connect 768 0 804 0;
#X connect 769 0 805 0;
#X connect 770 0 806 0;
#X connect 771 0 808 0;
#X connect 772 0 809 0;
#X connect 773 0 810 0;
#X connect 774 0 811 0;
#X connect 775 0 812 0;
#X connect 776 0 813 0;
#X connect 777 0 814 0;
#X connect 778 0 815 0;
#X connect 779 0 816 0;
#X connect 780 0 817 0;
#X connect 781 0 818 0;
#X connect 782 0 819 0;
#X connect 783 0 820 0;
#X connect 784 0 807 0;
#X connect 785 0 505 0;
#X connect 786 0 506 0;
#X connect 787 0 507 0;
#X connect 788 0 508 0;
#X connect 789 0 527 0;
#X connect 790 0 528 0;
#X connect 791 0 529 0;
#X connect 792 0 530 0;
#X connect 793 0 531 0;
#X connect 794 0 532 0;
#X connect 795 0 533 0;
#X connect 796 0 534 0;
#X connect 797 0 588 0;
#X connect 798 0 587 0;
#X connect 799 0 586 0;
#X connect 800 0 585 0;
#X connect 801 0 567 0;
#X connect 802 0 568 0;
#X connect 803 0 569 0;
#X connect 804 0 570 0;
#X connect 805 0 509 0;
#X connect 806 0 510 0;
#X connect 807 0 511 0;
#X connect 808 0 512 0;
#X connect 809 0 543 0;
#X connect 810 0 544 0;
#X connect 811 0 545 0;
#X connect 812 0 546 0;
#X connect 813 0 535 0;
#X connect 814 0 536 0;
#X connect 815 0 537 0;
#X connect 816 0 538 0;
#X connect 817 0 559 0;
#X connect 818 0 560 0;
#X connect 819 0 561 0;
#X connect 820 0 562 0;
#X connect 821 0 873 0;
#X connect 822 0 874 0;
#X connect 823 0 875 0;
#X connect 824 0 876 0;
#X connect 825 0 877 0;
#X connect 826 0 878 0;
#X connect 827 0 879 0;
#X connect 828 0 880 0;
#X connect 829 0 881 0;
#X connect 830 0 882 0;
#X connect 831 0 883 0;
#X connect 832 0 884 0;
#X connect 833 0 885 0;
#X connect 834 0 886 0;
#X connect 835 0 887 0;
#X connect 836 0 888 0;
#X connect 837 0 889 0;
#X connect 838 0 890 0;
#X connect 839 0 891 0;
#X connect 840 0 892 0;
#X connect 841 0 857 0;
#X connect 842 0 858 0;
#X connect 843 0 860 0;
#X connect 844 0 861 0;
#X connect 845 0 862 0;
#X connect 846 0 863 0;
#X connect 847 0 864 0;
#X connect 848 0 865 0;
#X connect 849 0 866 0;
#X connect 850 0 867 0;
#X connect 851 0 868 0;
#X connect 852 0 869 0;
#X connect 853 0 870 0;
#X connect 854 0 871 0;
#X connect 855 0 872 0;
#X connect 856 0 859 0;
#X connect 857 0 513 0;
#X connect 858 0 514 0;
#X connect 859 0 515 0;
#X connect 860 0 516 0;
#X connect 861 0 547 0;
#X connect 862 0 548 0;
#X connect 863 0 549 0;
#X connect 864 0 550 0;
#X connect 865 0 539 0;
#X connect 866 0 540 0;
#X connect 867 0 541 0;
#X connect 868 0 542 0;
#X connect 869 0 555 0;
#X connect 870 0 556 0;
#X connect 871 0 557 0;
#X connect 872 0 558 0;
#X connect 873 0 517 0;
#X connect 874 0 518 0;
#X connect 875 0 519 0;
#X connect 876 0 520 0;
#X connect 877 0 551 0;
#X connect 878 0 552 0;
#X connect 879 0 553 0;
#X connect 880 0 554 0;
#X connect 881 0 571 0;
#X connect 882 0 572 0;
#X connect 883 0 573 0;
#X connect 884 0 574 0;
#X connect 885 0 581 0;
#X connect 886 0 582 0;
#X connect 887 0 583 0;
#X connect 888 0 584 0;
#X connect 889 0 563 0;
#X connect 890 0 564 0;
#X connect 891 0 565 0;
#X connect 892 0 566 0;
#X connect 893 0 909 0;
#X connect 894 0 910 0;
#X connect 895 0 911 0;
#X connect 896 0 912 0;
#X connect 897 0 913 0;
#X connect 898 0 914 0;
#X connect 899 0 915 0;
#X connect 900 0 916 0;
#X connect 901 0 917 0;
#X connect 902 0 918 0;
#X connect 903 0 919 0;
#X connect 904 0 920 0;
#X connect 905 0 921 0;
#X connect 906 0 922 0;
#X connect 907 0 923 0;
#X connect 908 0 924 0;
#X connect 909 0 639 0;
#X connect 910 0 640 0;
#X connect 911 0 641 0;
#X connect 912 0 642 0;
#X connect 913 0 643 0;
#X connect 914 0 644 0;
#X connect 915 0 645 0;
#X connect 916 0 646 0;
#X connect 917 0 647 0;
#X connect 918 0 648 0;
#X connect 919 0 649 0;
#X connect 920 0 650 0;
#X connect 921 0 654 0;
#X connect 922 0 655 0;
#X connect 923 0 651 0;
#X connect 924 0 652 0;
#X connect 925 0 937 0;
#X connect 926 0 938 0;
#X connect 927 0 939 0;
#X connect 928 0 940 0;
#X connect 929 0 941 0;
#X connect 930 0 942 0;
#X connect 931 0 943 0;
#X connect 932 0 944 0;
#X connect 933 0 945 0;
#X connect 934 0 946 0;
#X connect 935 0 947 0;
#X connect 936 0 948 0;
#X connect 937 0 521 0;
#X connect 938 0 522 0;
#X connect 939 0 523 0;
#X connect 940 0 575 0;
#X connect 941 0 576 0;
#X connect 942 0 577 0;
#X connect 943 0 578 0;
#X connect 944 0 579 0;
#X connect 945 0 580 0;
#X connect 946 0 526 0;
#X connect 947 0 525 0;
#X connect 948 0 524 0;
#X connect 949 0 967 0;
#X connect 950 0 968 0;
#X connect 951 0 969 0;
#X connect 952 0 970 0;
#X connect 953 0 971 0;
#X connect 954 0 972 0;
#X connect 955 0 973 0;
#X connect 956 0 974 0;
#X connect 957 0 975 0;
#X connect 958 0 976 0;
#X connect 959 0 977 0;
#X connect 960 0 978 0;
#X connect 961 0 979 0;
#X connect 962 0 980 0;
#X connect 963 0 981 0;
#X connect 964 0 982 0;
#X connect 965 0 983 0;
#X connect 966 0 984 0;
#X connect 967 0 592 0;
#X connect 968 0 593 0;
#X connect 969 0 594 0;
#X connect 970 0 595 0;
#X connect 971 0 596 0;
#X connect 972 0 597 0;
#X connect 973 0 598 0;
#X connect 974 0 599 0;
#X connect 975 0 600 0;
#X connect 976 0 601 0;
#X connect 977 0 606 0;
#X connect 978 0 607 0;
#X connect 979 0 602 0;
#X connect 980 0 603 0;
#X connect 981 0 321 0;
#X connect 982 0 323 0;
#X connect 983 0 605 0;
#X connect 984 0 604 0;
#X connect 985 0 989 0;
#X connect 988 0 996 0;
#X connect 989 0 995 0;
#X connect 990 0 991 0;
#X connect 991 0 988 0;
#X connect 992 0 993 0;
#X connect 993 0 989 0;
