#N canvas 27 490 615 849 12;
#X obj 47 70 r bang;
#X obj 47 128 s midi_ch;
#X msg 47 99 4;
#X obj 26 41 cnv 16 15 15 empty empty MIDI\ Channel 20 12 0 20 #ffffff #404040 0;
#X obj 247 135 s ch_level_cc;
#X obj 247 97 r bang;
#X obj 226 41 cnv 16 15 15 empty empty MIDI\ CC 20 12 0 20 #ffffff #404040 0;
#X text 245 75 Level;
#X text 245 381 Solo;
#X text 245 553 Mute;
#X text 245 859 Main;
#X text 430 75 Aux 1-2 (RV-70);
#X text 430 179 Aux 3-4 (LXP-1);
#X text 430 283 Aux 5-6 (Virus C);
#X text 430 387 Aux 7-8 (G2 /1-2);
#X text 430 491 Aux 9-10 (G2 /3-4);
#X obj 47 1202 r bang;
#X text 75 1228 CC#;
#X text 277 116 CC#;
#X obj 47 1257 s recall_cc;
#X obj 247 202 s main_level_cc;
#X obj 247 269 s monitor_level_cc;
#X obj 247 336 s reverb_level_cc;
#X obj 247 164 r bang;
#X text 277 183 CC#;
#X obj 247 231 r bang;
#X text 277 250 CC#;
#X obj 247 298 r bang;
#X text 277 317 CC#;
#X obj 247 575 r bang;
#X text 277 594 CC#;
#X obj 247 642 r bang;
#X text 277 661 CC#;
#X obj 247 709 r bang;
#X text 277 728 CC#;
#X obj 247 776 r bang;
#X text 277 795 CC#;
#X obj 247 613 s ch_mute_cc;
#X obj 247 680 s main_mute_cc;
#X obj 247 747 s monitor_mute_cc;
#X obj 247 814 s reverb_mute_cc;
#X obj 247 403 r bang;
#X text 277 422 CC#;
#X obj 247 470 r bang;
#X text 277 489 CC#;
#X obj 247 441 s ch_solo_cc;
#X obj 247 508 s reverb_solo_cc;
#X obj 247 881 r bang;
#X text 277 900 CC#;
#X obj 247 948 r bang;
#X text 277 967 CC#;
#X obj 247 986 s reverb_main_cc;
#X obj 247 919 s ch_main_cc;
#X obj 432 97 r bang;
#X text 462 116 CC#;
#X obj 432 135 s ch_aux1-2_cc;
#X obj 432 201 r bang;
#X text 462 220 CC#;
#X obj 432 239 s ch_aux3-4_cc;
#X obj 432 305 r bang;
#X text 462 324 CC#;
#X obj 432 343 s ch_aux5-6_cc;
#X obj 432 409 r bang;
#X text 462 428 CC#;
#X obj 432 447 s ch_aux7-8_cc;
#X obj 432 513 r bang;
#X text 462 532 CC#;
#X obj 432 551 s ch_aux9-10_cc;
#X text 430 596 Aux 11-12 (Syntakt);
#X obj 432 618 r bang;
#X text 462 637 CC#;
#X obj 432 656 s ch_aux11-12_cc;
#X text 430 701 Aux Reverb;
#X obj 432 723 r bang;
#X text 462 742 CC#;
#X obj 432 761 s ch_aux_reverb_cc;
#X text 615 75 Group 1-2 (Tracker+);
#X text 615 180 Group 3-4 (TE KO II);
#X text 615 285 Group 5-6 (TE OP-1);
#X obj 617 97 r bang;
#X text 647 116 CC#;
#X obj 617 135 s ch_group1-2_cc;
#X obj 617 202 r bang;
#X text 647 221 CC#;
#X obj 617 240 s ch_group3-4_cc;
#X obj 617 307 r bang;
#X text 647 326 CC#;
#X obj 617 345 s ch_group5-6_cc;
#X text 805 75 HPF Enable;
#X obj 807 97 r bang;
#X text 837 116 CC#;
#X obj 807 135 s ch_hpf_enable_cc;
#X text 805 180 HPF Freq;
#X obj 807 202 r bang;
#X text 837 221 CC#;
#X obj 807 240 s ch_hpf_freq_cc;
#X obj 995 97 r bang;
#X text 1025 116 CC#;
#X text 993 75 Gate Enable;
#X obj 995 202 r bang;
#X text 1025 221 CC#;
#X text 993 180 Gate Attack;
#X obj 995 307 r bang;
#X text 1025 326 CC#;
#X text 993 285 Gate Threshold;
#X obj 995 411 r bang;
#X text 1025 430 CC#;
#X text 993 389 Gate Release;
#X obj 1205 97 r bang;
#X text 1235 116 CC#;
#X text 1203 75 EQ High Enable;
#X obj 995 135 s ch_gate_enable_cc;
#X obj 995 240 s ch_gate_attack_cc;
#X obj 995 345 s ch_gate_threshold_cc;
#X obj 995 449 s ch_gate_release_cc;
#X obj 1205 135 s ch_eq_high_enable_cc;
#X obj 1205 349 r bang;
#X text 1235 368 CC#;
#X obj 1205 164 r bang;
#X text 1235 183 CC#;
#X obj 1205 231 r bang;
#X text 1235 250 CC#;
#X obj 1205 416 r bang;
#X text 1235 435 CC#;
#X obj 1205 483 r bang;
#X text 1235 502 CC#;
#X text 1203 327 EQ High Gain;
#X obj 1205 202 s main_eq_high_enable_cc;
#X obj 1205 269 s reverb_eq_high_enable_cc;
#X obj 1205 521 s reverb_eq_high_gain_cc;
#X obj 1205 454 s main_eq_high_gain_cc;
#X obj 1205 387 s ch_eq_high_gain_cc;
#X obj 1205 602 r bang;
#X text 1235 621 CC#;
#X obj 1205 669 r bang;
#X text 1235 688 CC#;
#X obj 1205 736 r bang;
#X text 1235 755 CC#;
#X text 1203 580 EQ High Freq;
#X obj 1205 640 s ch_eq_high_freq_cc;
#X obj 1205 707 s main_eq_high_freq_cc;
#X obj 1205 774 s reverb_eq_high_freq_cc;
#X obj 1205 851 r bang;
#X text 1235 870 CC#;
#X obj 1205 918 r bang;
#X text 1235 937 CC#;
#X obj 1205 985 r bang;
#X text 1235 1004 CC#;
#X text 1203 829 EQ High Mode;
#X obj 1205 1023 s reverb_eq_high_mode_cc;
#X obj 1205 956 s main_eq_high_mode_cc;
#X obj 1205 889 s ch_eq_high_mode_cc;
#X obj 1205 1104 r bang;
#X text 1235 1123 CC#;
#X obj 1205 1171 r bang;
#X text 1235 1190 CC#;
#X obj 1205 1238 r bang;
#X text 1235 1257 CC#;
#X text 1203 1082 EQ High BW;
#X obj 1205 1142 s ch_eq_high_bw_cc;
#X obj 1205 1209 s main_eq_high_bw_cc;
#X obj 1205 1276 s reverb_eq_high_bw_cc;
#X obj 1425 97 r bang;
#X text 1455 116 CC#;
#X obj 1425 164 r bang;
#X text 1455 183 CC#;
#X obj 1425 231 r bang;
#X text 1455 250 CC#;
#X text 1423 75 EQ Mid1 Enable;
#X obj 1425 135 s ch_eq_mid1_enable_cc;
#X obj 1425 202 s main_eq_mid1_enable_cc;
#X obj 1425 269 s reverb_eq_mid1_enable_cc;
#X obj 1425 350 r bang;
#X text 1455 369 CC#;
#X obj 1425 417 r bang;
#X text 1455 436 CC#;
#X obj 1425 484 r bang;
#X text 1455 503 CC#;
#X text 1423 328 EQ Mid1 Gain;
#X obj 1425 522 s reverb_eq_mid1_gain_cc;
#X obj 1425 455 s main_eq_mid1_gain_cc;
#X obj 1425 388 s ch_eq_mid1_gain_cc;
#X obj 1425 603 r bang;
#X text 1455 622 CC#;
#X obj 1425 670 r bang;
#X text 1455 689 CC#;
#X obj 1425 737 r bang;
#X text 1455 756 CC#;
#X text 1423 581 EQ Mid1 Freq;
#X obj 1425 641 s ch_eq_mid1_freq_cc;
#X obj 1425 708 s main_eq_mid1_freq_cc;
#X obj 1425 775 s reverb_eq_mid1_freq_cc;
#X obj 1425 855 r bang;
#X text 1455 874 CC#;
#X obj 1425 922 r bang;
#X text 1455 941 CC#;
#X obj 1425 989 r bang;
#X text 1455 1008 CC#;
#X text 1423 833 EQ Mid1 BW;
#X obj 1425 1027 s reverb_eq_mid1_bw_cc;
#X obj 1425 960 s main_eq_mid1_bw_cc;
#X obj 1425 893 s ch_eq_mid1_bw_cc;
#X obj 1645 97 r bang;
#X text 1675 116 CC#;
#X obj 1645 164 r bang;
#X text 1675 183 CC#;
#X obj 1645 231 r bang;
#X text 1675 250 CC#;
#X obj 1645 135 s ch_eq_mid2_enable_cc;
#X obj 1645 202 s main_eq_mid2_enable_cc;
#X obj 1645 269 s reverb_eq_mid2_enable_cc;
#X obj 1645 350 r bang;
#X text 1675 369 CC#;
#X obj 1645 417 r bang;
#X text 1675 436 CC#;
#X obj 1645 484 r bang;
#X text 1675 503 CC#;
#X obj 1645 522 s reverb_eq_mid2_gain_cc;
#X obj 1645 455 s main_eq_mid2_gain_cc;
#X obj 1645 388 s ch_eq_mid2_gain_cc;
#X obj 1645 603 r bang;
#X text 1675 622 CC#;
#X obj 1645 670 r bang;
#X text 1675 689 CC#;
#X obj 1645 737 r bang;
#X text 1675 756 CC#;
#X obj 1645 641 s ch_eq_mid2_freq_cc;
#X obj 1645 708 s main_eq_mid2_freq_cc;
#X obj 1645 775 s reverb_eq_mid2_freq_cc;
#X obj 1645 855 r bang;
#X text 1675 874 CC#;
#X obj 1645 922 r bang;
#X text 1675 941 CC#;
#X obj 1645 989 r bang;
#X text 1675 1008 CC#;
#X obj 1645 1027 s reverb_eq_mid2_bw_cc;
#X obj 1645 960 s main_eq_mid2_bw_cc;
#X obj 1645 893 s ch_eq_mid2_bw_cc;
#X text 1643 75 EQ Mid2 Enable;
#X text 1643 328 EQ Mid2 Gain;
#X text 1643 581 EQ Mid2 Freq;
#X text 1643 833 EQ Mid2 BW;
#X obj 1865 97 r bang;
#X text 1895 116 CC#;
#X obj 1865 135 s ch_eq_low_enable_cc;
#X obj 1865 349 r bang;
#X text 1895 368 CC#;
#X obj 1865 164 r bang;
#X text 1895 183 CC#;
#X obj 1865 231 r bang;
#X text 1895 250 CC#;
#X obj 1865 416 r bang;
#X text 1895 435 CC#;
#X obj 1865 483 r bang;
#X text 1895 502 CC#;
#X obj 1865 202 s main_eq_low_enable_cc;
#X obj 1865 269 s reverb_eq_low_enable_cc;
#X obj 1865 521 s reverb_eq_low_gain_cc;
#X obj 1865 454 s main_eq_low_gain_cc;
#X obj 1865 387 s ch_eq_low_gain_cc;
#X obj 1865 602 r bang;
#X text 1895 621 CC#;
#X obj 1865 669 r bang;
#X text 1895 688 CC#;
#X obj 1865 736 r bang;
#X text 1895 755 CC#;
#X obj 1865 640 s ch_eq_low_freq_cc;
#X obj 1865 707 s main_eq_low_freq_cc;
#X obj 1865 774 s reverb_eq_low_freq_cc;
#X obj 1865 851 r bang;
#X text 1895 870 CC#;
#X obj 1865 918 r bang;
#X text 1895 937 CC#;
#X obj 1865 985 r bang;
#X text 1895 1004 CC#;
#X obj 1865 1023 s reverb_eq_low_mode_cc;
#X obj 1865 956 s main_eq_low_mode_cc;
#X obj 1865 889 s ch_eq_low_mode_cc;
#X obj 1865 1104 r bang;
#X text 1895 1123 CC#;
#X obj 1865 1171 r bang;
#X text 1895 1190 CC#;
#X obj 1865 1238 r bang;
#X text 1895 1257 CC#;
#X obj 1865 1142 s ch_eq_low_bw_cc;
#X obj 1865 1209 s main_eq_low_bw_cc;
#X obj 1865 1276 s reverb_eq_low_bw_cc;
#X text 1863 75 EQ Low Enable;
#X text 1863 327 EQ Low Gain;
#X text 1863 580 EQ Low Freq;
#X text 1863 829 EQ Low Mode;
#X text 1863 1082 EQ Low BW;
#X obj 2085 97 r bang;
#X text 2115 116 CC#;
#X obj 2085 135 s ch_comp_enable_cc;
#X text 2083 75 Comp Enable;
#X obj 2085 202 r bang;
#X text 2115 221 CC#;
#X text 2083 180 Comp Threshold;
#X obj 2085 240 s ch_comp_threshold_cc;
#X obj 2085 307 r bang;
#X text 2115 326 CC#;
#X text 2083 285 Comp Ratio;
#X obj 2085 345 s ch_comp_ratio_cc;
#X obj 2085 412 r bang;
#X text 2115 431 CC#;
#X text 2083 390 Comp Peak (RMS);
#X obj 2085 450 s ch_comp_peak_cc;
#X obj 2085 517 r bang;
#X text 2115 536 CC#;
#X text 2083 495 Comp Makeup (Auto);
#X obj 2085 555 s ch_comp_makeup_cc;
#X obj 2085 622 r bang;
#X text 2115 641 CC#;
#X text 2083 600 Comp Trim (Gain);
#X obj 2085 660 s ch_comp_trim_cc;
#X obj 2085 727 r bang;
#X text 2115 746 CC#;
#X text 2083 705 Comp Attack;
#X obj 2085 765 s ch_comp_attack_cc;
#X obj 2085 832 r bang;
#X text 2115 851 CC#;
#X text 2083 810 Comp Release;
#X obj 2085 870 s ch_comp_release_cc;
#X obj 2295 97 r bang;
#X text 2325 116 CC#;
#X obj 2295 164 r bang;
#X text 2325 183 CC#;
#X text 2293 75 Leveler Enable;
#X obj 2295 135 s main_leveler_enable_cc;
#X obj 2295 202 s reverb_leveler_enable_cc;
#X obj 2295 269 r bang;
#X text 2325 288 CC#;
#X obj 2295 336 r bang;
#X text 2325 355 CC#;
#X text 2293 247 Leveler Reduction;
#X obj 2295 374 s reverb_leveler_reduction_cc;
#X obj 2295 307 s main_leveler_reduction_cc;
#X obj 2295 611 r bang;
#X text 2325 630 CC#;
#X obj 2295 678 r bang;
#X text 2325 697 CC#;
#X obj 2295 440 r bang;
#X text 2325 459 CC#;
#X obj 2295 507 r bang;
#X text 2325 526 CC#;
#X obj 2295 478 s main_leveler_makeup_cc;
#X obj 2295 545 s reverb_leveler_makeup_cc;
#X text 2293 418 Leveler Makeup;
#X text 2293 589 Leveler Limit;
#X obj 2295 649 s main_leveler_limit_cc;
#X obj 2295 716 s reverb_leveler_limit_cc;
#X obj 2543 97 r bang;
#X text 2573 116 CC#;
#X obj 2543 135 s reverb_enable_cc;
#X text 2540 75 Reverb Enable;
#X obj 2543 202 r bang;
#X text 2573 221 CC#;
#X text 2540 180 Reverb Time;
#X obj 2543 240 s reverb_time_cc;
#X obj 2543 307 r bang;
#X text 2573 326 CC#;
#X text 2540 285 Reverb Mod;
#X obj 2543 412 r bang;
#X text 2573 431 CC#;
#X text 2540 390 Reverb Predelay;
#X obj 2543 450 s reverb_predelay_cc;
#X obj 2543 345 s reverb_mod_cc;
#X obj 2543 517 r bang;
#X text 2573 536 CC#;
#X text 2540 495 Reverb Tailspread;
#X obj 2543 555 s reverb_tailspread_cc;
#X obj 2543 622 r bang;
#X text 2573 641 CC#;
#X text 2540 600 Reverb High;
#X obj 2543 660 s reverb_high_cc;
#X obj 2543 727 r bang;
#X text 2573 746 CC#;
#X text 2540 705 Reverb HF Ratio;
#X obj 2543 765 s reverb_hfratio_cc;
#X obj 2543 832 r bang;
#X text 2573 851 CC#;
#X text 2540 810 Reverb Mid;
#X obj 2543 870 s reverb_mid_cc;
#X obj 2543 937 r bang;
#X text 2573 956 CC#;
#X text 2540 915 Reverb MF Ratio;
#X obj 2543 975 s reverb_mfratio_cc;
#X obj 47 451 r midi_ch;
#X obj 47 510 midicc_inlet;
#X obj 128 451 r bang;
#X text 156 480 CC#;
#X obj 47 539 / 127;
#X obj 47 568 i;
#X obj 47 597 sel 1;
#X obj 47 626 s reset;
#X obj 26 422 cnv 16 15 15 empty empty Channel\ Reset 20 12 0 20 #ffffff #404040 0;
#X obj 26 672 cnv 16 15 15 empty empty Main\ Mix\ Reset 20 12 0 20 #ffffff #404040 0;
#X obj 26 1173 cnv 16 15 15 empty empty Recall 20 12 0 20 #ffffff #404040 0;
#X obj 47 701 r midi_ch;
#X obj 47 760 midicc_inlet;
#X obj 128 701 r bang;
#X text 156 730 CC#;
#X obj 47 789 / 127;
#X obj 47 818 i;
#X obj 47 847 sel 1;
#X obj 26 922 cnv 16 15 15 empty empty Reverb\ Reset 20 12 0 20 #ffffff #404040 0;
#X obj 47 951 r midi_ch;
#X obj 47 1010 midicc_inlet;
#X obj 128 951 r bang;
#X text 156 980 CC#;
#X obj 47 1039 / 127;
#X obj 47 1068 i;
#X obj 47 1097 sel 1;
#X obj 47 1126 s reset_reverb;
#X obj 47 876 s reset_main;
#X obj 26 172 cnv 16 15 15 empty empty Reset\ All 20 12 0 20 #ffffff #404040 0;
#X obj 47 201 r midi_ch;
#X obj 47 260 midicc_inlet;
#X obj 128 201 r bang;
#X text 156 230 CC#;
#X obj 47 289 / 127;
#X obj 47 318 i;
#X obj 47 347 sel 1;
#X obj 47 376 s reset_all;
#X msg 128 730 12;
#X msg 128 980 13;
#X msg 47 1565 0;
#X msg 87 1565 2;
#X msg 127 1565 4;
#X msg 167 1565 6;
#X msg 207 1565 8;
#X msg 247 1565 10;
#X msg 287 1565 11;
#X msg 327 1565 12;
#X msg 367 1565 13;
#X msg 407 1565 14;
#X msg 447 1565 16;
#X msg 487 1565 18;
#X msg 527 1565 20;
#X msg 567 1565 22;
#X msg 607 1565 24;
#X msg 647 1565 26;
#X msg 687 1565 28;
#X msg 727 1565 31;
#X obj 46 1624 s avb_ch_select;
#X obj 26 1303 cnv 16 15 15 empty empty AVB\ Channel\ Select 20 12 0 20 #ffffff #404040 0;
#X obj 47 1390 midicc_inlet;
#X obj 128 1332 r bang;
#X obj 47 1332 r midi_ch;
#X obj 94 1477 s select;
#X floatatom 47 1478 5 0 0 0 - - - 0;
#X msg 128 1361 15;
#X text 157 1361 CC#;
#X obj 47 1506 sel 1 2 3 4 5 6 7 8 9 10 11 12 13 14 15 16 17 18 19 20;
#X msg 128 230 3;
#X msg 128 480 9;
#X msg 47 1228 14;
#X msg 247 183 16;
#X msg 247 661 20;
#X msg 247 250 21;
#X msg 247 728 22;
#X msg 1205 183 23;
#X msg 1205 435 24;
#X msg 1205 688 25;
#X msg 1205 937 26;
#X msg 1205 1190 27;
#X msg 1425 183 28;
#X msg 1425 436 29;
#X msg 1425 689 30;
#X msg 1425 941 31;
#X msg 1645 183 33;
#X msg 1645 436 34;
#X msg 1645 689 35;
#X msg 1645 941 36;
#X msg 1865 183 37;
#X msg 1865 435 39;
#X msg 1865 688 40;
#X msg 1865 937 41;
#X msg 1865 1190 42;
#X msg 2295 116 43;
#X msg 2295 288 44;
#X msg 2295 459 45;
#X msg 2295 630 46;
#X msg 247 317 47;
#X msg 247 489 48;
#X msg 247 795 49;
#X msg 247 967 50;
#X msg 1205 250 51;
#X msg 1205 502 52;
#X msg 1205 755 53;
#X msg 1205 1004 54;
#X msg 1205 1257 55;
#X msg 1425 250 56;
#X msg 1425 503 57;
#X msg 1425 756 58;
#X msg 1425 1008 59;
#X msg 1645 250 60;
#X msg 1645 503 61;
#X msg 1645 756 62;
#X msg 1645 1008 63;
#X msg 1865 250 71;
#X msg 1865 502 72;
#X msg 1865 755 73;
#X msg 1865 1004 74;
#X msg 1865 1257 75;
#X msg 2295 183 76;
#X msg 2295 355 77;
#X msg 2295 526 78;
#X msg 2295 697 79;
#X msg 2543 116 81;
#X msg 2543 221 82;
#X msg 2543 326 83;
#X msg 2543 431 84;
#X msg 2543 536 85;
#X msg 2543 641 86;
#X msg 2543 746 87;
#X msg 2543 851 88;
#X msg 2543 956 89;
#X msg 247 116 90;
#X msg 247 422 102;
#X msg 247 594 103;
#X msg 247 900 104;
#X msg 432 116 105;
#X msg 432 220 106;
#X msg 432 324 107;
#X msg 432 428 108;
#X msg 432 532 109;
#X msg 432 637 110;
#X msg 432 742 111;
#X msg 617 116 112;
#X msg 617 221 113;
#X msg 617 326 114;
#X obj 3457 1465 + 500;
#X msg 807 116 2;
#X msg 807 221 4;
#X msg 995 116 5;
#X msg 995 221 6;
#X msg 995 326 7;
#X msg 995 430 8;
#X msg 2085 116 10;
#X msg 2085 221 11;
#X msg 2085 326 38;
#X msg 2085 431 65;
#X msg 2085 536 66;
#X msg 2085 641 67;
#X msg 2085 746 68;
#X msg 2085 851 69;
#X msg 1645 116 91;
#X msg 1645 369 92;
#X msg 1645 622 93;
#X msg 1645 874 94;
#X msg 1865 116 95;
#X msg 1865 368 96;
#X msg 1865 621 97;
#X msg 1865 870 98;
#X msg 1865 1123 99;
#X msg 1205 116 115;
#X msg 1205 870 116;
#X msg 1425 116 117;
#X msg 1205 368 118;
#X msg 1205 621 119;
#X msg 1205 1123 120;
#X msg 1425 369 100;
#X msg 1425 622 101;
#X msg 1425 874 122;
#X obj 128 289 s reset_all_cc;
#X obj 57 1420 r bang;
#X msg 57 1449 1;
#X connect 0 0 2 0;
#X connect 2 0 1 0;
#X connect 5 0 519 0;
#X connect 16 0 457 0;
#X connect 23 0 458 0;
#X connect 25 0 460 0;
#X connect 27 0 484 0;
#X connect 29 0 521 0;
#X connect 31 0 459 0;
#X connect 33 0 461 0;
#X connect 35 0 486 0;
#X connect 41 0 520 0;
#X connect 43 0 485 0;
#X connect 47 0 522 0;
#X connect 49 0 487 0;
#X connect 53 0 523 0;
#X connect 56 0 524 0;
#X connect 59 0 525 0;
#X connect 62 0 526 0;
#X connect 65 0 527 0;
#X connect 69 0 528 0;
#X connect 73 0 529 0;
#X connect 79 0 530 0;
#X connect 82 0 531 0;
#X connect 85 0 532 0;
#X connect 89 0 534 0;
#X connect 93 0 535 0;
#X connect 96 0 536 0;
#X connect 99 0 537 0;
#X connect 102 0 538 0;
#X connect 105 0 539 0;
#X connect 108 0 557 0;
#X connect 116 0 560 0;
#X connect 118 0 462 0;
#X connect 120 0 488 0;
#X connect 122 0 463 0;
#X connect 124 0 489 0;
#X connect 132 0 561 0;
#X connect 134 0 464 0;
#X connect 136 0 490 0;
#X connect 142 0 558 0;
#X connect 144 0 465 0;
#X connect 146 0 491 0;
#X connect 152 0 562 0;
#X connect 154 0 466 0;
#X connect 156 0 492 0;
#X connect 162 0 559 0;
#X connect 164 0 467 0;
#X connect 166 0 493 0;
#X connect 172 0 563 0;
#X connect 174 0 468 0;
#X connect 176 0 494 0;
#X connect 182 0 564 0;
#X connect 184 0 469 0;
#X connect 186 0 495 0;
#X connect 192 0 565 0;
#X connect 194 0 470 0;
#X connect 196 0 496 0;
#X connect 202 0 548 0;
#X connect 204 0 471 0;
#X connect 206 0 497 0;
#X connect 211 0 549 0;
#X connect 213 0 472 0;
#X connect 215 0 498 0;
#X connect 220 0 550 0;
#X connect 222 0 473 0;
#X connect 224 0 499 0;
#X connect 229 0 551 0;
#X connect 231 0 474 0;
#X connect 233 0 500 0;
#X connect 242 0 552 0;
#X connect 245 0 553 0;
#X connect 247 0 475 0;
#X connect 249 0 501 0;
#X connect 251 0 476 0;
#X connect 253 0 502 0;
#X connect 260 0 554 0;
#X connect 262 0 477 0;
#X connect 264 0 503 0;
#X connect 269 0 555 0;
#X connect 271 0 478 0;
#X connect 273 0 504 0;
#X connect 278 0 556 0;
#X connect 280 0 479 0;
#X connect 282 0 505 0;
#X connect 292 0 540 0;
#X connect 296 0 541 0;
#X connect 300 0 542 0;
#X connect 304 0 543 0;
#X connect 308 0 544 0;
#X connect 312 0 545 0;
#X connect 316 0 546 0;
#X connect 320 0 547 0;
#X connect 324 0 480 0;
#X connect 326 0 506 0;
#X connect 331 0 481 0;
#X connect 333 0 507 0;
#X connect 338 0 483 0;
#X connect 340 0 509 0;
#X connect 342 0 482 0;
#X connect 344 0 508 0;
#X connect 352 0 510 0;
#X connect 356 0 511 0;
#X connect 360 0 512 0;
#X connect 363 0 513 0;
#X connect 368 0 514 0;
#X connect 372 0 515 0;
#X connect 376 0 516 0;
#X connect 380 0 517 0;
#X connect 384 0 518 0;
#X connect 388 0 389 0;
#X connect 389 0 392 0;
#X connect 390 0 456 0;
#X connect 392 0 393 0;
#X connect 393 0 394 0;
#X connect 394 0 395 0;
#X connect 399 0 400 0;
#X connect 400 0 403 0;
#X connect 401 0 425 0;
#X connect 403 0 404 0;
#X connect 404 0 405 0;
#X connect 405 0 415 0;
#X connect 407 0 408 0;
#X connect 408 0 411 0;
#X connect 409 0 426 0;
#X connect 411 0 412 0;
#X connect 412 0 413 0;
#X connect 413 0 414 0;
#X connect 417 0 418 0;
#X connect 418 0 421 0;
#X connect 419 0 455 0;
#X connect 421 0 422 0;
#X connect 422 0 423 0;
#X connect 423 0 424 0;
#X connect 425 0 400 1;
#X connect 426 0 408 1;
#X connect 427 0 445 0;
#X connect 428 0 445 0;
#X connect 429 0 445 0;
#X connect 430 0 445 0;
#X connect 431 0 445 0;
#X connect 432 0 445 0;
#X connect 433 0 445 0;
#X connect 434 0 445 0;
#X connect 435 0 445 0;
#X connect 436 0 445 0;
#X connect 437 0 445 0;
#X connect 438 0 445 0;
#X connect 439 0 445 0;
#X connect 440 0 445 0;
#X connect 441 0 445 0;
#X connect 442 0 445 0;
#X connect 443 0 445 0;
#X connect 444 0 445 0;
#X connect 447 0 451 0;
#X connect 448 0 452 0;
#X connect 449 0 447 0;
#X connect 451 0 450 0;
#X connect 451 0 454 0;
#X connect 452 0 447 1;
#X connect 454 0 427 0;
#X connect 454 1 428 0;
#X connect 454 2 429 0;
#X connect 454 3 430 0;
#X connect 454 4 431 0;
#X connect 454 5 432 0;
#X connect 454 6 433 0;
#X connect 454 7 434 0;
#X connect 454 8 435 0;
#X connect 454 9 436 0;
#X connect 454 10 437 0;
#X connect 454 11 438 0;
#X connect 454 12 439 0;
#X connect 454 13 440 0;
#X connect 454 14 441 0;
#X connect 454 15 442 0;
#X connect 454 16 443 0;
#X connect 454 17 444 0;
#X connect 455 0 418 1;
#X connect 455 0 566 0;
#X connect 456 0 389 1;
#X connect 457 0 19 0;
#X connect 458 0 20 0;
#X connect 459 0 38 0;
#X connect 460 0 21 0;
#X connect 461 0 39 0;
#X connect 462 0 127 0;
#X connect 463 0 130 0;
#X connect 464 0 140 0;
#X connect 465 0 150 0;
#X connect 466 0 160 0;
#X connect 467 0 170 0;
#X connect 468 0 180 0;
#X connect 469 0 190 0;
#X connect 470 0 200 0;
#X connect 471 0 209 0;
#X connect 472 0 218 0;
#X connect 473 0 227 0;
#X connect 474 0 236 0;
#X connect 475 0 255 0;
#X connect 476 0 258 0;
#X connect 477 0 267 0;
#X connect 478 0 276 0;
#X connect 479 0 285 0;
#X connect 480 0 329 0;
#X connect 481 0 337 0;
#X connect 482 0 346 0;
#X connect 483 0 350 0;
#X connect 484 0 22 0;
#X connect 485 0 46 0;
#X connect 486 0 40 0;
#X connect 487 0 51 0;
#X connect 488 0 128 0;
#X connect 489 0 129 0;
#X connect 490 0 141 0;
#X connect 491 0 149 0;
#X connect 492 0 161 0;
#X connect 493 0 171 0;
#X connect 494 0 179 0;
#X connect 495 0 191 0;
#X connect 496 0 199 0;
#X connect 497 0 210 0;
#X connect 498 0 217 0;
#X connect 499 0 228 0;
#X connect 500 0 235 0;
#X connect 501 0 256 0;
#X connect 502 0 257 0;
#X connect 503 0 268 0;
#X connect 504 0 275 0;
#X connect 505 0 286 0;
#X connect 506 0 330 0;
#X connect 507 0 336 0;
#X connect 508 0 347 0;
#X connect 509 0 351 0;
#X connect 510 0 354 0;
#X connect 511 0 359 0;
#X connect 512 0 367 0;
#X connect 513 0 366 0;
#X connect 514 0 371 0;
#X connect 515 0 375 0;
#X connect 516 0 379 0;
#X connect 517 0 383 0;
#X connect 518 0 387 0;
#X connect 519 0 4 0;
#X connect 520 0 45 0;
#X connect 521 0 37 0;
#X connect 522 0 52 0;
#X connect 523 0 55 0;
#X connect 524 0 58 0;
#X connect 525 0 61 0;
#X connect 526 0 64 0;
#X connect 527 0 67 0;
#X connect 528 0 71 0;
#X connect 529 0 75 0;
#X connect 530 0 81 0;
#X connect 531 0 84 0;
#X connect 532 0 87 0;
#X connect 534 0 91 0;
#X connect 535 0 95 0;
#X connect 536 0 111 0;
#X connect 537 0 112 0;
#X connect 538 0 113 0;
#X connect 539 0 114 0;
#X connect 540 0 294 0;
#X connect 541 0 299 0;
#X connect 542 0 303 0;
#X connect 543 0 307 0;
#X connect 544 0 311 0;
#X connect 545 0 315 0;
#X connect 546 0 319 0;
#X connect 547 0 323 0;
#X connect 548 0 208 0;
#X connect 549 0 219 0;
#X connect 550 0 226 0;
#X connect 551 0 237 0;
#X connect 552 0 244 0;
#X connect 553 0 259 0;
#X connect 554 0 266 0;
#X connect 555 0 277 0;
#X connect 556 0 284 0;
#X connect 557 0 115 0;
#X connect 558 0 151 0;
#X connect 559 0 169 0;
#X connect 560 0 131 0;
#X connect 561 0 139 0;
#X connect 562 0 159 0;
#X connect 563 0 181 0;
#X connect 564 0 189 0;
#X connect 565 0 201 0;
#X connect 567 0 568 0;
#X connect 568 0 451 0;
