#N canvas 1381 85 788 868 10;
#X obj 279 283 send osc;
#X obj 299 205 mtof_inlet;
#X msg 289 153 list;
#X obj 279 257 oscformat;
#X obj 289 127 r bang;
#X obj 279 75 r avb_ch_select;
#X obj 48 569 spigot;
#X obj 159 579 ==;
#X msg 174 527 1;
#X obj 48 449 r main_val;
#X obj 159 475 r select;
#X obj 174 501 r bang;
#X obj 28 47 cnv 16 15 15 empty empty Main 20 12 0 20 #ffffff #404040 0;
#X obj 48 595 s main_1;
#X obj 299 179 r main_val;
#X obj 116 501 sel 1;
#X obj 116 527 bng 16 250 50 0 empty empty empty 0 -8 0 10 #fcfcfc #000000 #000000;
#X obj 116 553 s main_trig_1;
#X obj 230 569 spigot;
#X obj 341 579 ==;
#X obj 230 449 r main_val;
#X obj 341 475 r select;
#X obj 356 501 r bang;
#X obj 298 527 bng 16 250 50 0 empty empty empty 0 -8 0 10 #fcfcfc #000000 #000000;
#X obj 412 569 spigot;
#X obj 523 578 ==;
#X obj 412 449 r main_val;
#X obj 523 474 r select;
#X obj 538 500 r bang;
#X obj 480 526 bng 16 250 50 0 empty empty empty 0 -8 0 10 #fcfcfc #000000 #000000;
#X obj 594 569 spigot;
#X obj 705 578 ==;
#X obj 594 449 r main_val;
#X obj 705 474 r select;
#X obj 720 500 r bang;
#X obj 662 526 bng 16 250 50 0 empty empty empty 0 -8 0 10 #fcfcfc #000000 #000000;
#X obj 298 553 s main_trig_2;
#X obj 662 552 s main_trig_4;
#X msg 720 526 4;
#X obj 594 595 s main_4;
#X msg 538 526 3;
#X obj 480 552 s main_trig_3;
#X msg 356 527 2;
#X obj 230 595 s main_2;
#X obj 412 595 s main_3;
#X obj 48 780 spigot;
#X obj 159 790 ==;
#X obj 48 660 r main_val;
#X obj 159 686 r select;
#X obj 174 712 r bang;
#X obj 116 738 bng 16 250 50 0 empty empty empty 0 -8 0 10 #fcfcfc #000000 #000000;
#X obj 230 780 spigot;
#X obj 341 790 ==;
#X obj 230 660 r main_val;
#X obj 341 686 r select;
#X obj 356 712 r bang;
#X obj 298 738 bng 16 250 50 0 empty empty empty 0 -8 0 10 #fcfcfc #000000 #000000;
#X obj 412 780 spigot;
#X obj 523 790 ==;
#X obj 412 660 r main_val;
#X obj 523 686 r select;
#X obj 538 712 r bang;
#X obj 480 738 bng 16 250 50 0 empty empty empty 0 -8 0 10 #fcfcfc #000000 #000000;
#X obj 594 780 spigot;
#X obj 705 790 ==;
#X obj 594 660 r main_val;
#X obj 705 686 r select;
#X obj 720 712 r bang;
#X obj 662 738 bng 16 250 50 0 empty empty empty 0 -8 0 10 #fcfcfc #000000 #000000;
#X msg 174 738 5;
#X obj 117 764 s main_trig_5;
#X obj 48 805 s main_5;
#X obj 230 805 s main_6;
#X obj 298 764 s main_trig_6;
#X msg 356 738 6;
#X msg 538 737 7;
#X obj 480 764 s main_trig_7;
#X obj 412 805 s main_7;
#X obj 594 805 s main_8;
#X obj 662 764 s main_trig_8;
#X msg 720 738 8;
#X obj 48 991 spigot;
#X obj 159 1001 ==;
#X obj 48 871 r main_val;
#X obj 159 897 r select;
#X obj 174 923 r bang;
#X obj 116 949 bng 16 250 50 0 empty empty empty 0 -8 0 10 #fcfcfc #000000 #000000;
#X obj 230 991 spigot;
#X obj 341 1001 ==;
#X obj 230 871 r main_val;
#X obj 341 897 r select;
#X obj 356 923 r bang;
#X obj 298 949 bng 16 250 50 0 empty empty empty 0 -8 0 10 #fcfcfc #000000 #000000;
#X obj 412 991 spigot;
#X obj 523 1001 ==;
#X obj 412 871 r main_val;
#X obj 523 897 r select;
#X obj 538 923 r bang;
#X obj 480 949 bng 16 250 50 0 empty empty empty 0 -8 0 10 #fcfcfc #000000 #000000;
#X obj 594 991 spigot;
#X obj 705 1001 ==;
#X obj 594 871 r main_val;
#X obj 705 897 r select;
#X obj 720 923 r bang;
#X obj 662 949 bng 16 250 50 0 empty empty empty 0 -8 0 10 #fcfcfc #000000 #000000;
#X obj 48 1202 spigot;
#X obj 159 1212 ==;
#X obj 48 1082 r main_val;
#X obj 159 1108 r select;
#X obj 174 1134 r bang;
#X obj 116 1160 bng 16 250 50 0 empty empty empty 0 -8 0 10 #fcfcfc #000000 #000000;
#X obj 230 1202 spigot;
#X obj 341 1212 ==;
#X obj 230 1082 r main_val;
#X obj 341 1108 r select;
#X obj 356 1134 r bang;
#X obj 298 1160 bng 16 250 50 0 empty empty empty 0 -8 0 10 #fcfcfc #000000 #000000;
#X obj 412 1202 spigot;
#X obj 523 1212 ==;
#X obj 412 1082 r main_val;
#X obj 523 1108 r select;
#X obj 538 1134 r bang;
#X obj 480 1160 bng 16 250 50 0 empty empty empty 0 -8 0 10 #fcfcfc #000000 #000000;
#X obj 594 1202 spigot;
#X obj 705 1212 ==;
#X obj 594 1082 r main_val;
#X obj 705 1108 r select;
#X obj 720 1134 r bang;
#X obj 672 1160 bng 16 250 50 0 empty empty empty 0 -8 0 10 #fcfcfc #000000 #000000;
#X msg 174 949 9;
#X obj 116 975 s main_trig_9;
#X obj 48 1016 s main_9;
#X obj 230 1016 s main_10;
#X msg 356 949 10;
#X obj 298 975 s main_trig_10;
#X msg 538 949 11;
#X obj 480 975 s main_trig_11;
#X obj 412 1016 s main_11;
#X msg 720 949 12;
#X obj 662 975 s main_trig_12;
#X obj 594 1016 s main_12;
#X msg 174 1160 13;
#X obj 117 1186 s main_trig_13;
#X obj 48 1227 s main_13;
#X obj 230 1227 s main_14;
#X obj 298 1186 s main_trig_14;
#X msg 356 1160 14;
#X msg 538 1159 15;
#X obj 480 1186 s main_trig_15;
#X obj 412 1227 s main_15;
#X obj 594 1227 s main_16;
#X obj 672 1186 s main_trig_16;
#X msg 720 1160 16;
#X obj 48 1413 spigot;
#X obj 159 1423 ==;
#X obj 48 1293 r main_val;
#X obj 159 1319 r select;
#X obj 174 1345 r bang;
#X obj 116 1371 bng 16 250 50 0 empty empty empty 0 -8 0 10 #fcfcfc #000000 #000000;
#X obj 230 1413 spigot;
#X obj 341 1423 ==;
#X obj 230 1293 r main_val;
#X obj 341 1319 r select;
#X obj 356 1345 r bang;
#X obj 298 1371 bng 16 250 50 0 empty empty empty 0 -8 0 10 #fcfcfc #000000 #000000;
#X msg 174 1371 17;
#X msg 356 1371 18;
#X obj 298 1397 s main_trig_18;
#X obj 230 1438 s main_18;
#X obj 48 1438 s main_17;
#X obj 116 1397 s main_trig_17;
#X obj 298 501 sel 2;
#X obj 480 500 sel 3;
#X obj 662 500 sel 4;
#X obj 662 712 sel 8;
#X obj 480 712 sel 7;
#X obj 298 712 sel 6;
#X obj 116 712 sel 5;
#X obj 116 923 sel 9;
#X obj 298 923 sel 10;
#X obj 480 923 sel 11;
#X obj 662 923 sel 12;
#X obj 116 1134 sel 13;
#X obj 298 1134 sel 14;
#X obj 480 1134 sel 15;
#X obj 672 1134 sel 16;
#X obj 116 1345 sel 17;
#X obj 298 1345 sel 18;
#X obj 48 365 ctlout;
#X obj 48 235 r recall_main;
#X obj 48 75 r midi_ch;
#X obj 48 101 midicc_inlet;
#X text 172 101 CC#;
#X obj 48 179 s main_val;
#X obj 56 261 r reset_main_trig;
#X obj 58 127 r reset_main_trig;
#X obj 58 153 r resetall_main;
#X obj 58 287 r resetall_main;
#X obj 134 73 r ch_main_cc;
#X obj 106 339 r midi_ch;
#X obj 64 313 r ch_main_cc;
#X floatatom 134 101 5 0 0 0 - - - 0;
#X floatatom 106 365 5 0 0 0 - - - 0;
#X floatatom 64 339 5 0 0 0 - - - 0;
#X obj 48 475 list prepend set;
#X obj 48 501 list trim;
#X obj 230 475 list prepend set;
#X obj 230 501 list trim;
#X obj 412 475 list prepend set;
#X obj 412 501 list trim;
#X obj 594 475 list prepend set;
#X obj 594 501 list trim;
#X obj 48 686 list prepend set;
#X obj 48 712 list trim;
#X obj 230 686 list prepend set;
#X obj 230 712 list trim;
#X obj 412 686 list prepend set;
#X obj 412 712 list trim;
#X obj 594 686 list prepend set;
#X obj 594 712 list trim;
#X obj 48 897 list prepend set;
#X obj 48 923 list trim;
#X obj 230 897 list prepend set;
#X obj 230 923 list trim;
#X obj 412 897 list prepend set;
#X obj 412 923 list trim;
#X obj 594 897 list prepend set;
#X obj 594 923 list trim;
#X obj 48 1108 list prepend set;
#X obj 48 1134 list trim;
#X obj 230 1108 list prepend set;
#X obj 230 1134 list trim;
#X obj 412 1108 list prepend set;
#X obj 412 1134 list trim;
#X obj 594 1108 list prepend set;
#X obj 594 1134 list trim;
#X obj 48 1319 list prepend set;
#X obj 48 1345 list trim;
#X obj 230 1319 list prepend set;
#X obj 230 1345 list trim;
#X msg 279 101 set /mix/chan/\$1/matrix/main/0/send;
#X msg 570 105 menusave;
#X obj 548 47 cnv 16 15 15 empty empty Autosave 20 12 0 20 #ffffff #404040 0;
#X obj 570 77 inlet;
#X text 45 1526 AVB Channel 1-2;
#X obj 27 1501 cnv 16 15 15 empty empty JU-06A 20 12 0 20 #ffffff #404040 0;
#X obj 193 1501 cnv 16 15 15 empty empty TE\ OP-1 20 12 0 20 #ffffff #404040 0;
#X text 211 1526 AVB Channel 3-4;
#X obj 359 1501 cnv 16 15 15 empty empty G2\ /1-2 20 12 0 20 #ffffff #404040 0;
#X obj 525 1501 cnv 16 15 15 empty empty G2\ /3-4 20 12 0 20 #ffffff #404040 0;
#X obj 691 1501 cnv 16 15 15 empty empty Syntakt 20 12 0 20 #ffffff #404040 0;
#X obj 857 1501 cnv 16 15 15 empty empty TR-8\ /L 20 12 0 20 #ffffff #404040 0;
#X obj 1023 1501 cnv 16 15 15 empty empty TR-8\ /R 20 12 0 20 #ffffff #404040 0;
#X obj 1189 1501 cnv 16 15 15 empty empty TR-8\ /1 20 12 0 20 #ffffff #404040 0;
#X obj 1355 1501 cnv 16 15 15 empty empty TR-8\ /2 20 12 0 20 #ffffff #404040 0;
#X obj 1521 1501 cnv 16 15 15 empty empty System-1 20 12 0 20 #ffffff #404040 0;
#X obj 1687 1501 cnv 16 15 15 empty empty Tracker+ 20 12 0 20 #ffffff #404040 0;
#X obj 1853 1501 cnv 16 15 15 empty empty Voyager 20 12 0 20 #ffffff #404040 0;
#X obj 2019 1501 cnv 16 15 15 empty empty Virus\ C\ /1-2 20 12 0 20 #ffffff #404040 0;
#X obj 2185 1501 cnv 16 15 15 empty empty Virus\ C\ /3-4 20 12 0 20 #ffffff #404040 0;
#X obj 2351 1501 cnv 16 15 15 empty empty RV-70 20 12 0 20 #ffffff #404040 0;
#X obj 2517 1501 cnv 16 15 15 empty empty TE\ KO\ II 20 12 0 20 #ffffff #404040 0;
#X obj 2683 1501 cnv 16 15 15 empty empty LXP-1 20 12 0 20 #ffffff #404040 0;
#X obj 2849 1501 cnv 16 15 15 empty empty Pro-800 20 12 0 20 #ffffff #404040 0;
#X text 377 1526 AVB Channel 5-6;
#X text 543 1526 AVB Channel 7-8;
#X text 709 1526 AVB Channel 9-10;
#X text 875 1526 AVB Channel 11;
#X text 1041 1526 AVB Channel 12;
#X text 1539 1526 AVB Channel 15-16;
#X text 1207 1526 AVB Channel 13;
#X text 1373 1526 AVB Channel 14;
#X text 1705 1526 AVB Channel 17-18;
#X text 1871 1526 AVB Channel 19-20;
#X text 2037 1526 AVB Channel 21-22;
#X text 2203 1526 AVB Channel 23-24;
#X text 2369 1526 AVB Channel 25-26;
#X text 2535 1526 AVB Channel 27-28;
#X text 2701 1526 AVB Channel 29-30;
#X text 2867 1526 AVB Channel 32;
#X obj 570 135 s pd-avb_main.pd;
#X obj 58 1620 r bang;
#X msg 48 1756 127;
#X obj 224 1620 r bang;
#X msg 214 1756 127;
#X obj 390 1620 r bang;
#X msg 380 1756 127;
#X obj 556 1620 r bang;
#X msg 546 1756 127;
#X obj 722 1620 r bang;
#X msg 712 1756 127;
#X obj 888 1620 r bang;
#X msg 878 1756 127;
#X obj 1054 1620 r bang;
#X msg 1044 1756 127;
#X obj 1044 1785 s recall_main;
#X obj 878 1785 s recall_main;
#X obj 712 1785 s recall_main;
#X obj 546 1785 s recall_main;
#X obj 380 1785 s recall_main;
#X obj 214 1785 s recall_main;
#X obj 48 1785 s recall_main;
#X obj 69 1647 r main_trig_1;
#X obj 235 1647 r main_trig_2;
#X obj 401 1647 r main_trig_3;
#X obj 567 1647 r main_trig_4;
#X obj 733 1647 r main_trig_5;
#X obj 899 1647 r main_trig_6;
#X obj 1065 1647 r main_trig_7;
#X obj 1044 1591 r main_7;
#X obj 878 1591 r main_6;
#X obj 712 1591 r main_5;
#X obj 546 1591 r main_4;
#X obj 380 1591 r main_3;
#X obj 214 1591 r main_2;
#X obj 48 1591 r main_1;
#X text 45 1567 Main;
#X text 211 1567 Main;
#X text 377 1567 Main;
#X text 542 1567 Main;
#X text 709 1567 Main;
#X text 875 1567 Main;
#X text 1041 1567 Main;
#X obj 1220 1620 r bang;
#X msg 1210 1756 127;
#X obj 1386 1620 r bang;
#X msg 1376 1756 127;
#X obj 1552 1620 r bang;
#X msg 1542 1756 127;
#X obj 1718 1620 r bang;
#X msg 1708 1756 127;
#X obj 1884 1620 r bang;
#X msg 1874 1756 127;
#X obj 2050 1620 r bang;
#X msg 2040 1756 127;
#X obj 2216 1620 r bang;
#X msg 2206 1756 127;
#X obj 2382 1620 r bang;
#X msg 2372 1756 127;
#X obj 2548 1620 r bang;
#X msg 2538 1756 127;
#X obj 2714 1620 r bang;
#X msg 2704 1756 127;
#X obj 2880 1620 r bang;
#X msg 2870 1756 127;
#X obj 2870 1591 r main_18;
#X obj 2891 1647 r main_trig_18;
#X obj 2870 1784 s recall_main;
#X obj 2725 1647 r main_trig_17;
#X obj 2704 1591 r main_17;
#X obj 2704 1785 s recall_main;
#X obj 2538 1785 s recall_main;
#X obj 2559 1647 r main_trig_16;
#X obj 2538 1591 r main_16;
#X obj 2393 1647 r main_trig_15;
#X obj 2372 1591 r main_15;
#X obj 2206 1591 r main_14;
#X obj 2227 1647 r main_trig_14;
#X obj 2040 1591 r main_13;
#X obj 2061 1647 r main_trig_13;
#X obj 2040 1785 s recall_main;
#X obj 2206 1785 s recall_main;
#X obj 2372 1785 s recall_main;
#X obj 1874 1785 s recall_main;
#X obj 1708 1785 s recall_main;
#X obj 1542 1785 s recall_main;
#X obj 1375 1785 s recall_main;
#X obj 1210 1785 s recall_main;
#X obj 1231 1647 r main_trig_8;
#X obj 1397 1647 r main_trig_9;
#X obj 1563 1647 r main_trig_10;
#X obj 1729 1647 r main_trig_11;
#X obj 1895 1647 r main_trig_12;
#X obj 1874 1591 r main_12;
#X obj 1708 1591 r main_11;
#X obj 1541 1591 r main_10;
#X obj 1376 1591 r main_9;
#X obj 1210 1591 r main_8;
#X text 1705 1567 Main;
#X text 1871 1567 Main;
#X text 2037 1567 Main;
#X text 2203 1567 Main;
#X text 2369 1567 Main;
#X text 2535 1567 Main;
#X text 2701 1567 Main;
#X text 2867 1567 Main;
#X text 1207 1567 Main;
#X text 1373 1567 Main;
#X text 1539 1567 Main;
#X obj 299 231 level_inlet;
#X obj 69 1672 r resetall_main;
#X obj 69 1698 list prepend set;
#X obj 69 1724 list trim;
#X obj 235 1672 r resetall_main;
#X obj 235 1698 list prepend set;
#X obj 235 1724 list trim;
#X obj 401 1672 r resetall_main;
#X obj 401 1698 list prepend set;
#X obj 401 1724 list trim;
#X obj 567 1672 r resetall_main;
#X obj 567 1698 list prepend set;
#X obj 567 1724 list trim;
#X obj 733 1672 r resetall_main;
#X obj 733 1698 list prepend set;
#X obj 733 1724 list trim;
#X obj 899 1672 r resetall_main;
#X obj 899 1698 list prepend set;
#X obj 899 1724 list trim;
#X obj 1066 1672 r resetall_main;
#X obj 1066 1698 list prepend set;
#X obj 1066 1724 list trim;
#X obj 1232 1672 r resetall_main;
#X obj 1232 1698 list prepend set;
#X obj 1232 1724 list trim;
#X obj 1398 1672 r resetall_main;
#X obj 1398 1698 list prepend set;
#X obj 1398 1724 list trim;
#X obj 1564 1672 r resetall_main;
#X obj 1564 1698 list prepend set;
#X obj 1564 1724 list trim;
#X obj 1730 1672 r resetall_main;
#X obj 1730 1698 list prepend set;
#X obj 1730 1724 list trim;
#X obj 1896 1672 r resetall_main;
#X obj 1896 1698 list prepend set;
#X obj 1896 1724 list trim;
#X obj 2062 1672 r resetall_main;
#X obj 2062 1698 list prepend set;
#X obj 2062 1724 list trim;
#X obj 2228 1672 r resetall_main;
#X obj 2228 1698 list prepend set;
#X obj 2228 1724 list trim;
#X obj 2394 1672 r resetall_main;
#X obj 2394 1698 list prepend set;
#X obj 2394 1724 list trim;
#X obj 2560 1672 r resetall_main;
#X obj 2560 1698 list prepend set;
#X obj 2560 1724 list trim;
#X obj 2726 1672 r resetall_main;
#X obj 2726 1698 list prepend set;
#X obj 2726 1724 list trim;
#X obj 2892 1672 r resetall_main;
#X obj 2892 1698 list prepend set;
#X obj 2892 1724 list trim;
#X connect 1 0 389 0;
#X connect 2 0 3 0;
#X connect 3 0 0 0;
#X connect 4 0 2 0;
#X connect 5 0 240 0;
#X connect 6 0 13 0;
#X connect 7 0 6 1;
#X connect 8 0 7 1;
#X connect 9 0 204 0;
#X connect 10 0 7 0;
#X connect 10 0 15 0;
#X connect 11 0 8 0;
#X connect 14 0 1 0;
#X connect 15 0 16 0;
#X connect 16 0 17 0;
#X connect 18 0 43 0;
#X connect 19 0 18 1;
#X connect 20 0 206 0;
#X connect 21 0 19 0;
#X connect 21 0 171 0;
#X connect 22 0 42 0;
#X connect 23 0 36 0;
#X connect 24 0 44 0;
#X connect 25 0 24 1;
#X connect 26 0 208 0;
#X connect 27 0 25 0;
#X connect 27 0 172 0;
#X connect 28 0 40 0;
#X connect 29 0 41 0;
#X connect 30 0 39 0;
#X connect 31 0 30 1;
#X connect 32 0 210 0;
#X connect 33 0 31 0;
#X connect 33 0 173 0;
#X connect 34 0 38 0;
#X connect 35 0 37 0;
#X connect 38 0 31 1;
#X connect 40 0 25 1;
#X connect 42 0 19 1;
#X connect 45 0 71 0;
#X connect 46 0 45 1;
#X connect 47 0 212 0;
#X connect 48 0 46 0;
#X connect 48 0 177 0;
#X connect 49 0 69 0;
#X connect 50 0 70 0;
#X connect 51 0 72 0;
#X connect 52 0 51 1;
#X connect 53 0 214 0;
#X connect 54 0 52 0;
#X connect 54 0 176 0;
#X connect 55 0 74 0;
#X connect 56 0 73 0;
#X connect 57 0 77 0;
#X connect 58 0 57 1;
#X connect 59 0 216 0;
#X connect 60 0 58 0;
#X connect 60 0 175 0;
#X connect 61 0 75 0;
#X connect 62 0 76 0;
#X connect 63 0 78 0;
#X connect 64 0 63 1;
#X connect 65 0 218 0;
#X connect 66 0 64 0;
#X connect 66 0 174 0;
#X connect 67 0 80 0;
#X connect 68 0 79 0;
#X connect 69 0 46 1;
#X connect 74 0 52 1;
#X connect 75 0 58 1;
#X connect 80 0 64 1;
#X connect 81 0 131 0;
#X connect 82 0 81 1;
#X connect 83 0 220 0;
#X connect 84 0 82 0;
#X connect 84 0 178 0;
#X connect 85 0 129 0;
#X connect 86 0 130 0;
#X connect 87 0 132 0;
#X connect 88 0 87 1;
#X connect 89 0 222 0;
#X connect 90 0 88 0;
#X connect 90 0 179 0;
#X connect 91 0 133 0;
#X connect 92 0 134 0;
#X connect 93 0 137 0;
#X connect 94 0 93 1;
#X connect 95 0 224 0;
#X connect 96 0 94 0;
#X connect 96 0 180 0;
#X connect 97 0 135 0;
#X connect 98 0 136 0;
#X connect 99 0 140 0;
#X connect 100 0 99 1;
#X connect 101 0 226 0;
#X connect 102 0 100 0;
#X connect 102 0 181 0;
#X connect 103 0 138 0;
#X connect 104 0 139 0;
#X connect 105 0 143 0;
#X connect 106 0 105 1;
#X connect 107 0 228 0;
#X connect 108 0 106 0;
#X connect 108 0 182 0;
#X connect 109 0 141 0;
#X connect 110 0 142 0;
#X connect 111 0 144 0;
#X connect 112 0 111 1;
#X connect 113 0 230 0;
#X connect 114 0 112 0;
#X connect 114 0 183 0;
#X connect 115 0 146 0;
#X connect 116 0 145 0;
#X connect 117 0 149 0;
#X connect 118 0 117 1;
#X connect 119 0 232 0;
#X connect 120 0 118 0;
#X connect 120 0 184 0;
#X connect 121 0 147 0;
#X connect 122 0 148 0;
#X connect 123 0 150 0;
#X connect 124 0 123 1;
#X connect 125 0 234 0;
#X connect 126 0 124 0;
#X connect 126 0 185 0;
#X connect 127 0 152 0;
#X connect 128 0 151 0;
#X connect 129 0 82 1;
#X connect 133 0 88 1;
#X connect 135 0 94 1;
#X connect 138 0 100 1;
#X connect 141 0 106 1;
#X connect 146 0 112 1;
#X connect 147 0 118 1;
#X connect 152 0 124 1;
#X connect 153 0 169 0;
#X connect 154 0 153 1;
#X connect 155 0 236 0;
#X connect 156 0 154 0;
#X connect 156 0 186 0;
#X connect 157 0 165 0;
#X connect 158 0 170 0;
#X connect 159 0 168 0;
#X connect 160 0 159 1;
#X connect 161 0 238 0;
#X connect 162 0 160 0;
#X connect 162 0 187 0;
#X connect 163 0 166 0;
#X connect 164 0 167 0;
#X connect 165 0 154 1;
#X connect 166 0 160 1;
#X connect 171 0 23 0;
#X connect 172 0 29 0;
#X connect 173 0 35 0;
#X connect 174 0 68 0;
#X connect 175 0 62 0;
#X connect 176 0 56 0;
#X connect 177 0 50 0;
#X connect 178 0 86 0;
#X connect 179 0 92 0;
#X connect 180 0 98 0;
#X connect 181 0 104 0;
#X connect 182 0 110 0;
#X connect 183 0 116 0;
#X connect 184 0 122 0;
#X connect 185 0 128 0;
#X connect 186 0 158 0;
#X connect 187 0 164 0;
#X connect 189 0 188 0;
#X connect 190 0 191 0;
#X connect 191 0 193 0;
#X connect 194 0 188 0;
#X connect 195 0 193 0;
#X connect 196 0 193 0;
#X connect 197 0 188 0;
#X connect 198 0 201 0;
#X connect 199 0 202 0;
#X connect 200 0 203 0;
#X connect 201 0 191 1;
#X connect 202 0 188 2;
#X connect 203 0 188 1;
#X connect 204 0 205 0;
#X connect 205 0 6 0;
#X connect 206 0 207 0;
#X connect 207 0 18 0;
#X connect 208 0 209 0;
#X connect 209 0 24 0;
#X connect 210 0 211 0;
#X connect 211 0 30 0;
#X connect 212 0 213 0;
#X connect 213 0 45 0;
#X connect 214 0 215 0;
#X connect 215 0 51 0;
#X connect 216 0 217 0;
#X connect 217 0 57 0;
#X connect 218 0 219 0;
#X connect 219 0 63 0;
#X connect 220 0 221 0;
#X connect 221 0 81 0;
#X connect 222 0 223 0;
#X connect 223 0 87 0;
#X connect 224 0 225 0;
#X connect 225 0 93 0;
#X connect 226 0 227 0;
#X connect 227 0 99 0;
#X connect 228 0 229 0;
#X connect 229 0 105 0;
#X connect 230 0 231 0;
#X connect 231 0 111 0;
#X connect 232 0 233 0;
#X connect 233 0 117 0;
#X connect 234 0 235 0;
#X connect 235 0 123 0;
#X connect 236 0 237 0;
#X connect 237 0 153 0;
#X connect 238 0 239 0;
#X connect 239 0 159 0;
#X connect 240 0 3 0;
#X connect 241 0 280 0;
#X connect 243 0 241 0;
#X connect 281 0 282 0;
#X connect 282 0 301 0;
#X connect 283 0 284 0;
#X connect 284 0 300 0;
#X connect 285 0 286 0;
#X connect 286 0 299 0;
#X connect 287 0 288 0;
#X connect 288 0 298 0;
#X connect 289 0 290 0;
#X connect 290 0 297 0;
#X connect 291 0 292 0;
#X connect 292 0 296 0;
#X connect 293 0 294 0;
#X connect 294 0 295 0;
#X connect 302 0 282 0;
#X connect 303 0 284 0;
#X connect 304 0 286 0;
#X connect 305 0 288 0;
#X connect 306 0 290 0;
#X connect 307 0 292 0;
#X connect 308 0 294 0;
#X connect 309 0 294 0;
#X connect 310 0 292 0;
#X connect 311 0 290 0;
#X connect 312 0 288 0;
#X connect 313 0 286 0;
#X connect 314 0 284 0;
#X connect 315 0 282 0;
#X connect 323 0 324 0;
#X connect 324 0 367 0;
#X connect 325 0 326 0;
#X connect 326 0 366 0;
#X connect 327 0 328 0;
#X connect 328 0 365 0;
#X connect 329 0 330 0;
#X connect 330 0 364 0;
#X connect 331 0 332 0;
#X connect 332 0 363 0;
#X connect 333 0 334 0;
#X connect 334 0 360 0;
#X connect 335 0 336 0;
#X connect 336 0 361 0;
#X connect 337 0 338 0;
#X connect 338 0 362 0;
#X connect 339 0 340 0;
#X connect 340 0 351 0;
#X connect 341 0 342 0;
#X connect 342 0 350 0;
#X connect 343 0 344 0;
#X connect 344 0 347 0;
#X connect 345 0 344 0;
#X connect 346 0 344 0;
#X connect 348 0 342 0;
#X connect 349 0 342 0;
#X connect 352 0 340 0;
#X connect 353 0 340 0;
#X connect 354 0 338 0;
#X connect 355 0 338 0;
#X connect 356 0 336 0;
#X connect 357 0 336 0;
#X connect 358 0 334 0;
#X connect 359 0 334 0;
#X connect 368 0 324 0;
#X connect 369 0 326 0;
#X connect 370 0 328 0;
#X connect 371 0 330 0;
#X connect 372 0 332 0;
#X connect 373 0 332 0;
#X connect 374 0 330 0;
#X connect 375 0 328 0;
#X connect 376 0 326 0;
#X connect 377 0 324 0;
#X connect 389 0 3 0;
#X connect 390 0 391 0;
#X connect 391 0 392 0;
#X connect 392 0 282 0;
#X connect 393 0 394 0;
#X connect 394 0 395 0;
#X connect 395 0 284 0;
#X connect 396 0 397 0;
#X connect 397 0 398 0;
#X connect 398 0 286 0;
#X connect 399 0 400 0;
#X connect 400 0 401 0;
#X connect 401 0 288 0;
#X connect 402 0 403 0;
#X connect 403 0 404 0;
#X connect 404 0 290 0;
#X connect 405 0 406 0;
#X connect 406 0 407 0;
#X connect 407 0 292 0;
#X connect 408 0 409 0;
#X connect 409 0 410 0;
#X connect 410 0 294 0;
#X connect 411 0 412 0;
#X connect 412 0 413 0;
#X connect 413 0 324 0;
#X connect 414 0 415 0;
#X connect 415 0 416 0;
#X connect 416 0 326 0;
#X connect 417 0 418 0;
#X connect 418 0 419 0;
#X connect 419 0 328 0;
#X connect 420 0 421 0;
#X connect 421 0 422 0;
#X connect 422 0 330 0;
#X connect 423 0 424 0;
#X connect 424 0 425 0;
#X connect 425 0 332 0;
#X connect 426 0 427 0;
#X connect 427 0 428 0;
#X connect 428 0 334 0;
#X connect 429 0 430 0;
#X connect 430 0 431 0;
#X connect 431 0 336 0;
#X connect 432 0 433 0;
#X connect 433 0 434 0;
#X connect 434 0 338 0;
#X connect 435 0 436 0;
#X connect 436 0 437 0;
#X connect 437 0 340 0;
#X connect 438 0 439 0;
#X connect 439 0 440 0;
#X connect 440 0 342 0;
#X connect 441 0 442 0;
#X connect 442 0 443 0;
#X connect 443 0 344 0;
