#N canvas 1635 224 831 774 10;
#X obj 278 355 ctlout;
#X obj 278 75 r midi_ch;
#X obj 278 101 midicc_inlet;
#X obj 258 47 cnv 16 15 15 empty empty Main\ Mix\ Level 20 12 0 20 #ffffff #404040 0;
#X obj 288 153 r resetall_level;
#X obj 278 179 s level_main_val;
#X obj 288 277 r resetall_level;
#X obj 278 225 r recall_main_level;
#X obj 278 725 send osc;
#X obj 278 699 oscformat /mix/main/0/matrix/fader;
#X obj 278 647 mtof_inlet;
#X obj 278 621 r level_main_val;
#X obj 48 75 r midi_ch;
#X obj 48 101 midicc_inlet;
#X obj 28 47 cnv 16 15 15 empty empty Recall 20 12 0 20 #ffffff #404040 0;
#X obj 48 129 s recall_main;
#X obj 558 355 ctlout;
#X obj 558 75 r midi_ch;
#X obj 558 101 midicc_inlet;
#X obj 538 47 cnv 16 15 15 empty empty Main\ Mix\ Mute 20 12 0 20 #ffffff #404040 0;
#X obj 558 725 send osc;
#X obj 558 225 r recall_main_mute;
#X obj 568 277 r resetall_mute;
#X obj 567 153 r resetall_mute;
#X obj 558 179 s mute_main_val;
#X obj 558 621 r mute_main_val;
#X obj 558 699 oscformat /mix/main/0/matrix/mute;
#X obj 558 647 / 127;
#X obj 838 355 ctlout;
#X obj 838 75 r midi_ch;
#X obj 838 101 midicc_inlet;
#X obj 818 47 cnv 16 15 15 empty empty Monitor\ Level 20 12 0 20 #ffffff #404040 0;
#X obj 848 153 r resetall_level;
#X obj 848 277 r resetall_level;
#X obj 838 725 send osc;
#X obj 838 647 mtof_inlet;
#X obj 1128 355 ctlout;
#X obj 1128 75 r midi_ch;
#X obj 1128 101 midicc_inlet;
#X obj 1108 47 cnv 16 15 15 empty empty Monitor\ Mute 20 12 0 20 #ffffff #404040 0;
#X obj 1128 725 send osc;
#X obj 1138 277 r resetall_mute;
#X obj 1137 153 r resetall_mute;
#X obj 1128 647 / 127;
#X obj 838 699 oscformat /mix/monitor/0/matrix/fader;
#X obj 838 179 s level_monitor_val;
#X obj 838 225 r recall_monitor_level;
#X obj 838 621 r level_monitor_val;
#X obj 1128 699 oscformat /mix/monitor/0/matrix/mute;
#X obj 1128 621 r mute_monitor_val;
#X obj 1128 225 r recall_monitor_mute;
#X obj 1128 179 s mute_monitor_val;
#X obj 134 75 r recall_cc;
#X floatatom 134 101 5 0 0 0 - - - 0;
#X text 168 100 CC#;
#X obj 364 75 r main_level_cc;
#X floatatom 364 101 5 0 0 0 - - - 0;
#X text 398 100 CC#;
#X floatatom 924 101 5 0 0 0 - - - 0;
#X text 958 100 CC#;
#X obj 924 75 r monitor_level_cc;
#X floatatom 644 101 5 0 0 0 - - - 0;
#X text 678 100 CC#;
#X floatatom 1214 101 5 0 0 0 - - - 0;
#X text 1248 100 CC#;
#X obj 644 75 r main_mute_cc;
#X obj 1214 75 r monitor_mute_cc;
#X obj 334 329 r midi_ch;
#X floatatom 334 355 5 0 0 0 - - - 0;
#X obj 616 328 r midi_ch;
#X floatatom 616 354 5 0 0 0 - - - 0;
#X obj 896 329 r midi_ch;
#X floatatom 896 355 5 0 0 0 - - - 0;
#X obj 1186 328 r midi_ch;
#X floatatom 1186 354 5 0 0 0 - - - 0;
#X obj 294 303 r main_level_cc;
#X floatatom 294 329 5 0 0 0 - - - 0;
#X floatatom 574 328 5 0 0 0 - - - 0;
#X obj 574 302 r main_mute_cc;
#X floatatom 1144 329 5 0 0 0 - - - 0;
#X obj 1144 303 r monitor_mute_cc;
#X floatatom 854 329 5 0 0 0 - - - 0;
#X obj 854 303 r monitor_level_cc;
#X msg 48 243 menusave;
#X obj 26 185 cnv 16 15 15 empty empty Autosave 20 12 0 20 #ffffff #404040 0;
#X obj 48 215 inlet;
#X obj 48 273 s pd-avb_master.pd;
#X obj 288 489 r bang;
#X msg 278 545 127;
#X obj 278 574 s recall_main_level;
#X obj 298 518 r recall_main;
#X obj 848 489 r bang;
#X msg 838 545 127;
#X obj 858 518 r recall_main;
#X obj 278 405 r level_main_val;
#X obj 838 405 r level_monitor_val;
#X obj 838 574 s recall_monitor_level;
#X obj 278 434 list prepend set;
#X obj 278 460 list trim;
#X obj 838 434 list prepend set;
#X obj 838 460 list trim;
#X obj 568 489 r bang;
#X msg 558 545 0;
#X obj 578 518 r recall_main;
#X obj 558 574 s recall_main_mute;
#X obj 558 434 list prepend set;
#X obj 558 460 list trim;
#X obj 1138 489 r bang;
#X msg 1128 545 0;
#X obj 1148 518 r recall_main;
#X obj 1128 574 s recall_monitor_mute;
#X obj 1128 434 list prepend set;
#X obj 1128 460 list trim;
#X obj 278 1115 ctlout;
#X obj 278 835 r midi_ch;
#X obj 278 861 midicc_inlet;
#X obj 258 807 cnv 16 15 15 empty empty EQ\ High\ Enable 20 12 0 20 #ffffff #404040 0;
#X obj 288 913 r resetall_eq_high_enable;
#X obj 278 939 s eq_high_enable_main_val;
#X obj 288 1037 r resetall_eq_high_enable;
#X obj 278 985 r recall_main_eq_high_enable;
#X obj 278 1485 send osc;
#X obj 278 1381 r eq_high_enable_main_val;
#X obj 364 835 r main_eq_high_enable_cc;
#X floatatom 364 861 5 0 0 0 - - - 0;
#X text 398 860 CC#;
#X obj 334 1089 r midi_ch;
#X floatatom 334 1115 5 0 0 0 - - - 0;
#X obj 294 1063 r main_eq_high_enable_cc;
#X floatatom 294 1089 5 0 0 0 - - - 0;
#X obj 288 1249 r bang;
#X msg 278 1305 0;
#X obj 278 1334 s recall_main_eq_high_enable;
#X obj 298 1278 r recall_main;
#X obj 278 1165 r eq_high_enable_main_val;
#X obj 278 1194 list prepend set;
#X obj 278 1220 list trim;
#X obj 278 1459 oscformat /mix/main/0/eq/highshelf/enable;
#X obj 288 127 r reset_main_level_trig;
#X obj 568 127 r reset_main_mute_trig;
#X obj 848 127 r reset_main_level_trig;
#X obj 1138 127 r reset_main_mute_trig;
#X obj 1136 251 r reset_main_mute_trig;
#X obj 846 251 r reset_main_level_trig;
#X obj 566 251 r reset_main_mute_trig;
#X obj 286 251 r reset_main_level_trig;
#X obj 288 887 r reset_main_eq_high_enable_trig;
#X obj 286 1011 r reset_main_eq_high_enable_trig;
#X obj 278 1407 / 127;
#X obj 558 1115 ctlout;
#X obj 558 835 r midi_ch;
#X obj 558 861 midicc_inlet;
#X obj 538 807 cnv 16 15 15 empty empty EQ\ High\ Gain 20 12 0 20 #ffffff #404040 0;
#X obj 568 913 r resetall_eq_high_gain;
#X obj 558 939 s eq_high_gain_main_val;
#X obj 568 1037 r resetall_eq_high_gain;
#X obj 558 985 r recall_main_eq_high_gain;
#X obj 558 1511 send osc;
#X obj 558 1381 r eq_high_gain_main_val;
#X obj 644 835 r main_eq_high_gain_cc;
#X floatatom 644 861 5 0 0 0 - - - 0;
#X text 678 860 CC#;
#X obj 614 1089 r midi_ch;
#X floatatom 614 1115 5 0 0 0 - - - 0;
#X obj 574 1063 r main_eq_high_gain_cc;
#X floatatom 574 1089 5 0 0 0 - - - 0;
#X obj 568 1249 r bang;
#X msg 558 1305 63;
#X obj 558 1334 s recall_main_eq_high_gain;
#X obj 578 1278 r recall_main;
#X obj 558 1165 r eq_high_gain_main_val;
#X obj 558 1194 list prepend set;
#X obj 558 1220 list trim;
#X obj 558 1485 oscformat /mix/main/0/eq/highshelf/gain;
#X obj 568 887 r reset_main_eq_high_gain_trig;
#X obj 566 1011 r reset_main_eq_high_gain_trig;
#X obj 838 1115 ctlout;
#X obj 838 835 r midi_ch;
#X obj 838 861 midicc_inlet;
#X obj 818 807 cnv 16 15 15 empty empty EQ\ High\ Freq 20 12 0 20 #ffffff #404040 0;
#X obj 848 913 r resetall_eq_high_freq;
#X obj 838 939 s eq_high_freq_main_val;
#X obj 848 1037 r resetall_eq_high_freq;
#X obj 838 985 r recall_main_eq_high_freq;
#X obj 838 1537 send osc;
#X obj 838 1381 r eq_high_freq_main_val;
#X obj 924 835 r main_eq_high_freq_cc;
#X floatatom 924 861 5 0 0 0 - - - 0;
#X text 958 860 CC#;
#X obj 894 1089 r midi_ch;
#X floatatom 894 1115 5 0 0 0 - - - 0;
#X obj 854 1063 r main_eq_high_freq_cc;
#X floatatom 854 1089 5 0 0 0 - - - 0;
#X obj 848 1249 r bang;
#X msg 838 1305 115;
#X obj 838 1334 s recall_main_eq_high_freq;
#X obj 858 1278 r recall_main;
#X obj 838 1165 r eq_high_freq_main_val;
#X obj 838 1194 list prepend set;
#X obj 838 1220 list trim;
#X obj 838 1511 oscformat /mix/main/0/eq/highshelf/freq;
#X obj 848 887 r reset_main_eq_high_freq_trig;
#X obj 846 1011 r reset_main_eq_high_freq_trig;
#X obj 1128 1115 ctlout;
#X obj 1128 835 r midi_ch;
#X obj 1128 861 midicc_inlet;
#X obj 1108 807 cnv 16 15 15 empty empty EQ\ High\ Mode 20 12 0 20 #ffffff #404040 0;
#X obj 1138 913 r resetall_eq_high_mode;
#X obj 1128 939 s eq_high_mode_main_val;
#X obj 1138 1037 r resetall_eq_high_mode;
#X obj 1128 985 r recall_main_eq_high_mode;
#X obj 1128 1459 send osc;
#X obj 1128 1381 r eq_high_mode_main_val;
#X obj 1214 835 r main_eq_high_mode_cc;
#X floatatom 1214 861 5 0 0 0 - - - 0;
#X text 1248 860 CC#;
#X obj 1184 1089 r midi_ch;
#X floatatom 1184 1115 5 0 0 0 - - - 0;
#X obj 1144 1063 r main_eq_high_mode_cc;
#X floatatom 1144 1089 5 0 0 0 - - - 0;
#X obj 1138 1249 r bang;
#X msg 1128 1305 127;
#X obj 1128 1334 s recall_main_eq_high_mode;
#X obj 1148 1278 r recall_main;
#X obj 1128 1165 r eq_high_mode_main_val;
#X obj 1128 1194 list prepend set;
#X obj 1128 1220 list trim;
#X obj 1128 1433 oscformat /mix/main/0/eq/highshelf/mode;
#X obj 1138 887 r reset_main_eq_high_mode_trig;
#X obj 1136 1011 r reset_main_eq_high_mode_trig;
#X obj 1128 1407 / 127;
#X obj 1418 1115 ctlout;
#X obj 1418 835 r midi_ch;
#X obj 1418 861 midicc_inlet;
#X obj 1398 807 cnv 16 15 15 empty empty EQ\ High\ BW 20 12 0 20 #ffffff #404040 0;
#X obj 1428 913 r resetall_eq_high_bw;
#X obj 1418 939 s eq_high_bw_main_val;
#X obj 1428 1037 r resetall_eq_high_bw;
#X obj 1418 985 r recall_main_eq_high_bw;
#X obj 1418 1511 send osc;
#X obj 1418 1381 r eq_high_bw_main_val;
#X obj 1504 835 r main_eq_high_bw_cc;
#X floatatom 1504 861 5 0 0 0 - - - 0;
#X text 1538 860 CC#;
#X obj 1474 1089 r midi_ch;
#X floatatom 1474 1115 5 0 0 0 - - - 0;
#X obj 1434 1063 r main_eq_high_bw_cc;
#X floatatom 1434 1089 5 0 0 0 - - - 0;
#X obj 1428 1249 r bang;
#X msg 1418 1305 42;
#X obj 1418 1334 s recall_main_eq_high_bw;
#X obj 1438 1278 r recall_main;
#X obj 1418 1165 r eq_high_bw_main_val;
#X obj 1418 1194 list prepend set;
#X obj 1418 1220 list trim;
#X obj 1418 1485 oscformat /mix/main/0/eq/highshelf/bw;
#X obj 1428 887 r reset_main_eq_high_bw_trig;
#X obj 1426 1011 r reset_main_eq_high_bw_trig;
#X obj 1418 1407 / 127;
#X obj 558 1407 / 127;
#X obj 558 1459 - 20;
#X obj 558 1433 * 40;
#X obj 838 1459 max 20;
#X obj 838 1433 * 20000;
#X obj 838 1407 mtof_inlet;
#X obj 1418 1459 max 0.01;
#X obj 1418 1433 * 3;
#X obj 278 1882 ctlout;
#X obj 278 1602 r midi_ch;
#X obj 278 1628 midicc_inlet;
#X obj 258 1574 cnv 16 15 15 empty empty EQ\ Mid1\ Enable 20 12 0 20 #ffffff #404040 0;
#X obj 288 1680 r resetall_eq_mid1_enable;
#X obj 278 1706 s eq_mid1_enable_main_val;
#X obj 288 1804 r resetall_eq_mid1_enable;
#X obj 278 1752 r recall_main_eq_mid1_enable;
#X obj 278 2252 send osc;
#X obj 278 2148 r eq_mid1_enable_main_val;
#X obj 364 1602 r main_eq_mid1_enable_cc;
#X floatatom 364 1628 5 0 0 0 - - - 0;
#X text 398 1627 CC#;
#X obj 334 1856 r midi_ch;
#X floatatom 334 1882 5 0 0 0 - - - 0;
#X obj 294 1830 r main_eq_mid1_enable_cc;
#X floatatom 294 1856 5 0 0 0 - - - 0;
#X obj 288 2016 r bang;
#X msg 278 2072 0;
#X obj 278 2101 s recall_main_eq_mid1_enable;
#X obj 298 2045 r recall_main;
#X obj 278 1932 r eq_mid1_enable_main_val;
#X obj 278 1961 list prepend set;
#X obj 278 1987 list trim;
#X obj 278 2226 oscformat /mix/main/0/eq/mid1/enable;
#X obj 288 1654 r reset_main_eq_mid1_enable_trig;
#X obj 286 1778 r reset_main_eq_mid1_enable_trig;
#X obj 278 2174 / 127;
#X obj 558 1882 ctlout;
#X obj 558 1602 r midi_ch;
#X obj 558 1628 midicc_inlet;
#X obj 538 1574 cnv 16 15 15 empty empty EQ\ Mid1\ Gain 20 12 0 20 #ffffff #404040 0;
#X obj 568 1680 r resetall_eq_mid1_gain;
#X obj 558 1706 s eq_mid1_gain_main_val;
#X obj 568 1804 r resetall_eq_mid1_gain;
#X obj 558 1752 r recall_main_eq_mid1_gain;
#X obj 558 2278 send osc;
#X obj 558 2148 r eq_mid1_gain_main_val;
#X obj 644 1602 r main_eq_mid1_gain_cc;
#X floatatom 644 1628 5 0 0 0 - - - 0;
#X text 678 1627 CC#;
#X obj 614 1856 r midi_ch;
#X floatatom 614 1882 5 0 0 0 - - - 0;
#X obj 574 1830 r main_eq_mid1_gain_cc;
#X floatatom 574 1856 5 0 0 0 - - - 0;
#X obj 568 2016 r bang;
#X msg 558 2072 63;
#X obj 558 2101 s recall_main_eq_mid1_gain;
#X obj 578 2045 r recall_main;
#X obj 558 1932 r eq_mid1_gain_main_val;
#X obj 558 1961 list prepend set;
#X obj 558 1987 list trim;
#X obj 558 2252 oscformat /mix/main/0/eq/mid1/gain;
#X obj 568 1654 r reset_main_eq_mid1_gain_trig;
#X obj 566 1778 r reset_main_eq_mid1_gain_trig;
#X obj 838 1882 ctlout;
#X obj 838 1602 r midi_ch;
#X obj 838 1628 midicc_inlet;
#X obj 818 1574 cnv 16 15 15 empty empty EQ\ Mid1\ Freq 20 12 0 20 #ffffff #404040 0;
#X obj 848 1680 r resetall_eq_mid1_freq;
#X obj 838 1706 s eq_mid1_freq_main_val;
#X obj 848 1804 r resetall_eq_mid1_freq;
#X obj 838 1752 r recall_main_eq_mid1_freq;
#X obj 838 2304 send osc;
#X obj 838 2148 r eq_mid1_freq_main_val;
#X obj 924 1602 r main_eq_mid1_freq_cc;
#X floatatom 924 1628 5 0 0 0 - - - 0;
#X text 958 1627 CC#;
#X obj 894 1856 r midi_ch;
#X floatatom 894 1882 5 0 0 0 - - - 0;
#X obj 854 1830 r main_eq_mid1_freq_cc;
#X floatatom 854 1856 5 0 0 0 - - - 0;
#X obj 848 2016 r bang;
#X msg 838 2072 82;
#X obj 838 2101 s recall_main_eq_mid1_freq;
#X obj 858 2045 r recall_main;
#X obj 838 1932 r eq_mid1_freq_main_val;
#X obj 838 1961 list prepend set;
#X obj 838 1987 list trim;
#X obj 838 2278 oscformat /mix/main/0/eq/mid1/freq;
#X obj 848 1654 r reset_main_eq_mid1_freq_trig;
#X obj 846 1778 r reset_main_eq_mid1_freq_trig;
#X obj 1128 1882 ctlout;
#X obj 1128 1602 r midi_ch;
#X obj 1128 1628 midicc_inlet;
#X obj 1108 1574 cnv 16 15 15 empty empty EQ\ Mid1\ BW 20 12 0 20 #ffffff #404040 0;
#X obj 1138 1680 r resetall_eq_mid1_bw;
#X obj 1128 1706 s eq_mid1_bw_main_val;
#X obj 1138 1804 r resetall_eq_mid1_bw;
#X obj 1128 1752 r recall_main_eq_mid1_bw;
#X obj 1128 2278 send osc;
#X obj 1128 2148 r eq_mid1_bw_main_val;
#X obj 1214 1602 r main_eq_mid1_bw_cc;
#X floatatom 1214 1628 5 0 0 0 - - - 0;
#X text 1248 1627 CC#;
#X obj 1184 1856 r midi_ch;
#X floatatom 1184 1882 5 0 0 0 - - - 0;
#X obj 1144 1830 r main_eq_mid1_bw_cc;
#X floatatom 1144 1856 5 0 0 0 - - - 0;
#X obj 1138 2016 r bang;
#X msg 1128 2072 42;
#X obj 1128 2101 s recall_main_eq_mid1_bw;
#X obj 1148 2045 r recall_main;
#X obj 1128 1932 r eq_mid1_bw_main_val;
#X obj 1128 1961 list prepend set;
#X obj 1128 1987 list trim;
#X obj 1128 2252 oscformat /mix/main/0/eq/mid1/bw;
#X obj 1138 1654 r reset_main_eq_mid1_bw_trig;
#X obj 1136 1778 r reset_main_eq_mid1_bw_trig;
#X obj 1128 2174 / 127;
#X obj 558 2174 / 127;
#X obj 558 2226 - 20;
#X obj 558 2200 * 40;
#X obj 838 2226 max 20;
#X obj 838 2200 * 20000;
#X obj 838 2174 mtof_inlet;
#X obj 1128 2226 max 0.01;
#X obj 1128 2200 * 3;
#X obj 278 2649 ctlout;
#X obj 278 2369 r midi_ch;
#X obj 278 2395 midicc_inlet;
#X obj 258 2341 cnv 16 15 15 empty empty EQ\ Mid2\ Enable 20 12 0 20 #ffffff #404040 0;
#X obj 288 2447 r resetall_eq_mid2_enable;
#X obj 278 2473 s eq_mid2_enable_main_val;
#X obj 288 2571 r resetall_eq_mid2_enable;
#X obj 278 2519 r recall_main_eq_mid2_enable;
#X obj 278 3019 send osc;
#X obj 278 2915 r eq_mid2_enable_main_val;
#X obj 364 2369 r main_eq_mid2_enable_cc;
#X floatatom 364 2395 5 0 0 0 - - - 0;
#X text 398 2394 CC#;
#X obj 334 2623 r midi_ch;
#X floatatom 334 2649 5 0 0 0 - - - 0;
#X obj 294 2597 r main_eq_mid2_enable_cc;
#X floatatom 294 2623 5 0 0 0 - - - 0;
#X obj 288 2783 r bang;
#X msg 278 2839 0;
#X obj 278 2868 s recall_main_eq_mid2_enable;
#X obj 298 2812 r recall_main;
#X obj 278 2699 r eq_mid2_enable_main_val;
#X obj 278 2728 list prepend set;
#X obj 278 2754 list trim;
#X obj 278 2993 oscformat /mix/main/0/eq/mid2/enable;
#X obj 288 2421 r reset_main_eq_mid2_enable_trig;
#X obj 286 2545 r reset_main_eq_mid2_enable_trig;
#X obj 278 2941 / 127;
#X obj 558 2649 ctlout;
#X obj 558 2369 r midi_ch;
#X obj 558 2395 midicc_inlet;
#X obj 538 2341 cnv 16 15 15 empty empty EQ\ Mid2\ Gain 20 12 0 20 #ffffff #404040 0;
#X obj 568 2447 r resetall_eq_mid2_gain;
#X obj 558 2473 s eq_mid2_gain_main_val;
#X obj 568 2571 r resetall_eq_mid2_gain;
#X obj 558 2519 r recall_main_eq_mid2_gain;
#X obj 558 3045 send osc;
#X obj 558 2915 r eq_mid2_gain_main_val;
#X obj 644 2369 r main_eq_mid2_gain_cc;
#X floatatom 644 2395 5 0 0 0 - - - 0;
#X text 678 2394 CC#;
#X obj 614 2623 r midi_ch;
#X floatatom 614 2649 5 0 0 0 - - - 0;
#X obj 574 2597 r main_eq_mid2_gain_cc;
#X floatatom 574 2623 5 0 0 0 - - - 0;
#X obj 568 2783 r bang;
#X msg 558 2839 63;
#X obj 558 2868 s recall_main_eq_mid2_gain;
#X obj 578 2812 r recall_main;
#X obj 558 2699 r eq_mid2_gain_main_val;
#X obj 558 2728 list prepend set;
#X obj 558 2754 list trim;
#X obj 558 3019 oscformat /mix/main/0/eq/mid2/gain;
#X obj 568 2421 r reset_main_eq_mid2_gain_trig;
#X obj 566 2545 r reset_main_eq_mid2_gain_trig;
#X obj 838 2649 ctlout;
#X obj 838 2369 r midi_ch;
#X obj 838 2395 midicc_inlet;
#X obj 818 2341 cnv 16 15 15 empty empty EQ\ Mid2\ Freq 20 12 0 20 #ffffff #404040 0;
#X obj 848 2447 r resetall_eq_mid2_freq;
#X obj 838 2473 s eq_mid2_freq_main_val;
#X obj 848 2571 r resetall_eq_mid2_freq;
#X obj 838 2519 r recall_main_eq_mid2_freq;
#X obj 838 3071 send osc;
#X obj 838 2915 r eq_mid2_freq_main_val;
#X obj 924 2369 r main_eq_mid2_freq_cc;
#X floatatom 924 2395 5 0 0 0 - - - 0;
#X text 958 2394 CC#;
#X obj 894 2623 r midi_ch;
#X floatatom 894 2649 5 0 0 0 - - - 0;
#X obj 854 2597 r main_eq_mid2_freq_cc;
#X floatatom 854 2623 5 0 0 0 - - - 0;
#X obj 848 2783 r bang;
#X msg 838 2839 103;
#X obj 838 2868 s recall_main_eq_mid2_freq;
#X obj 858 2812 r recall_main;
#X obj 838 2699 r eq_mid2_freq_main_val;
#X obj 838 2728 list prepend set;
#X obj 838 2754 list trim;
#X obj 838 3045 oscformat /mix/main/0/eq/mid2/freq;
#X obj 848 2421 r reset_main_eq_mid2_freq_trig;
#X obj 846 2545 r reset_main_eq_mid2_freq_trig;
#X obj 1128 2649 ctlout;
#X obj 1128 2369 r midi_ch;
#X obj 1128 2395 midicc_inlet;
#X obj 1108 2341 cnv 16 15 15 empty empty EQ\ Mid2\ BW 20 12 0 20 #ffffff #404040 0;
#X obj 1138 2447 r resetall_eq_mid2_bw;
#X obj 1128 2473 s eq_mid2_bw_main_val;
#X obj 1138 2571 r resetall_eq_mid2_bw;
#X obj 1128 2519 r recall_main_eq_mid2_bw;
#X obj 1128 3045 send osc;
#X obj 1128 2915 r eq_mid2_bw_main_val;
#X obj 1214 2369 r main_eq_mid2_bw_cc;
#X floatatom 1214 2395 5 0 0 0 - - - 0;
#X text 1248 2394 CC#;
#X obj 1184 2623 r midi_ch;
#X floatatom 1184 2649 5 0 0 0 - - - 0;
#X obj 1144 2597 r main_eq_mid2_bw_cc;
#X floatatom 1144 2623 5 0 0 0 - - - 0;
#X obj 1138 2783 r bang;
#X msg 1128 2839 42;
#X obj 1128 2868 s recall_main_eq_mid2_bw;
#X obj 1148 2812 r recall_main;
#X obj 1128 2699 r eq_mid2_bw_main_val;
#X obj 1128 2728 list prepend set;
#X obj 1128 2754 list trim;
#X obj 1128 3019 oscformat /mix/main/0/eq/mid2/bw;
#X obj 1138 2421 r reset_main_eq_mid2_bw_trig;
#X obj 1136 2545 r reset_main_eq_mid2_bw_trig;
#X obj 1128 2941 / 127;
#X obj 558 2941 / 127;
#X obj 558 2993 - 20;
#X obj 558 2967 * 40;
#X obj 838 2993 max 20;
#X obj 838 2967 * 20000;
#X obj 838 2941 mtof_inlet;
#X obj 1128 2993 max 0.01;
#X obj 1128 2967 * 3;
#X obj 278 3415 ctlout;
#X obj 278 3135 r midi_ch;
#X obj 278 3161 midicc_inlet;
#X obj 258 3107 cnv 16 15 15 empty empty EQ\ Low\ Enable 20 12 0 20 #ffffff #404040 0;
#X obj 288 3213 r resetall_eq_low_enable;
#X obj 278 3239 s eq_low_enable_main_val;
#X obj 288 3337 r resetall_eq_low_enable;
#X obj 278 3285 r recall_main_eq_low_enable;
#X obj 278 3785 send osc;
#X obj 278 3681 r eq_low_enable_main_val;
#X obj 364 3135 r main_eq_low_enable_cc;
#X floatatom 364 3161 5 0 0 0 - - - 0;
#X text 398 3160 CC#;
#X obj 334 3389 r midi_ch;
#X floatatom 334 3415 5 0 0 0 - - - 0;
#X obj 294 3363 r main_eq_low_enable_cc;
#X floatatom 294 3389 5 0 0 0 - - - 0;
#X obj 288 3549 r bang;
#X msg 278 3605 0;
#X obj 278 3634 s recall_main_eq_low_enable;
#X obj 298 3578 r recall_main;
#X obj 278 3465 r eq_low_enable_main_val;
#X obj 278 3494 list prepend set;
#X obj 278 3520 list trim;
#X obj 278 3759 oscformat /mix/main/0/eq/lowshelf/enable;
#X obj 288 3187 r reset_main_eq_low_enable_trig;
#X obj 286 3311 r reset_main_eq_low_enable_trig;
#X obj 278 3707 / 127;
#X obj 558 3415 ctlout;
#X obj 558 3135 r midi_ch;
#X obj 558 3161 midicc_inlet;
#X obj 538 3107 cnv 16 15 15 empty empty EQ\ Low\ Gain 20 12 0 20 #ffffff #404040 0;
#X obj 568 3213 r resetall_eq_low_gain;
#X obj 558 3239 s eq_low_gain_main_val;
#X obj 568 3337 r resetall_eq_low_gain;
#X obj 558 3285 r recall_main_eq_low_gain;
#X obj 558 3811 send osc;
#X obj 558 3681 r eq_low_gain_main_val;
#X obj 644 3135 r main_eq_low_gain_cc;
#X floatatom 644 3161 5 0 0 0 - - - 0;
#X text 678 3160 CC#;
#X obj 614 3389 r midi_ch;
#X floatatom 614 3415 5 0 0 0 - - - 0;
#X obj 574 3363 r main_eq_low_gain_cc;
#X floatatom 574 3389 5 0 0 0 - - - 0;
#X obj 568 3549 r bang;
#X msg 558 3605 63;
#X obj 558 3634 s recall_main_eq_low_gain;
#X obj 578 3578 r recall_main;
#X obj 558 3465 r eq_low_gain_main_val;
#X obj 558 3494 list prepend set;
#X obj 558 3520 list trim;
#X obj 558 3785 oscformat /mix/main/0/eq/lowshelf/gain;
#X obj 568 3187 r reset_main_eq_low_gain_trig;
#X obj 566 3311 r reset_main_eq_low_gain_trig;
#X obj 838 3415 ctlout;
#X obj 838 3135 r midi_ch;
#X obj 838 3161 midicc_inlet;
#X obj 818 3107 cnv 16 15 15 empty empty EQ\ Low\ Freq 20 12 0 20 #ffffff #404040 0;
#X obj 848 3213 r resetall_eq_low_freq;
#X obj 838 3239 s eq_low_freq_main_val;
#X obj 848 3337 r resetall_eq_low_freq;
#X obj 838 3285 r recall_main_eq_low_freq;
#X obj 838 3837 send osc;
#X obj 838 3681 r eq_low_freq_main_val;
#X obj 924 3135 r main_eq_low_freq_cc;
#X floatatom 924 3161 5 0 0 0 - - - 0;
#X text 958 3160 CC#;
#X obj 894 3389 r midi_ch;
#X floatatom 894 3415 5 0 0 0 - - - 0;
#X obj 854 3363 r main_eq_low_freq_cc;
#X floatatom 854 3389 5 0 0 0 - - - 0;
#X obj 848 3549 r bang;
#X msg 838 3605 47;
#X obj 838 3634 s recall_main_eq_low_freq;
#X obj 858 3578 r recall_main;
#X obj 838 3465 r eq_low_freq_main_val;
#X obj 838 3494 list prepend set;
#X obj 838 3520 list trim;
#X obj 838 3811 oscformat /mix/main/0/eq/lowshelf/freq;
#X obj 848 3187 r reset_main_eq_low_freq_trig;
#X obj 846 3311 r reset_main_eq_low_freq_trig;
#X obj 1128 3415 ctlout;
#X obj 1128 3135 r midi_ch;
#X obj 1128 3161 midicc_inlet;
#X obj 1108 3107 cnv 16 15 15 empty empty EQ\ Low\ Mode 20 12 0 20 #ffffff #404040 0;
#X obj 1138 3213 r resetall_eq_low_mode;
#X obj 1128 3239 s eq_low_mode_main_val;
#X obj 1138 3337 r resetall_eq_low_mode;
#X obj 1128 3285 r recall_main_eq_low_mode;
#X obj 1128 3759 send osc;
#X obj 1128 3681 r eq_low_mode_main_val;
#X obj 1214 3135 r main_eq_low_mode_cc;
#X floatatom 1214 3161 5 0 0 0 - - - 0;
#X text 1248 3160 CC#;
#X obj 1184 3389 r midi_ch;
#X floatatom 1184 3415 5 0 0 0 - - - 0;
#X obj 1144 3363 r main_eq_low_mode_cc;
#X floatatom 1144 3389 5 0 0 0 - - - 0;
#X obj 1138 3549 r bang;
#X msg 1128 3605 127;
#X obj 1128 3634 s recall_main_eq_low_mode;
#X obj 1148 3578 r recall_main;
#X obj 1128 3465 r eq_low_mode_main_val;
#X obj 1128 3494 list prepend set;
#X obj 1128 3520 list trim;
#X obj 1128 3733 oscformat /mix/main/0/eq/lowshelf/mode;
#X obj 1138 3187 r reset_main_eq_low_mode_trig;
#X obj 1136 3311 r reset_main_eq_low_mode_trig;
#X obj 1128 3707 / 127;
#X obj 1418 3415 ctlout;
#X obj 1418 3135 r midi_ch;
#X obj 1418 3161 midicc_inlet;
#X obj 1398 3107 cnv 16 15 15 empty empty EQ\ Low\ BW 20 12 0 20 #ffffff #404040 0;
#X obj 1428 3213 r resetall_eq_low_bw;
#X obj 1418 3239 s eq_low_bw_main_val;
#X obj 1428 3337 r resetall_eq_low_bw;
#X obj 1418 3285 r recall_main_eq_low_bw;
#X obj 1418 3811 send osc;
#X obj 1418 3681 r eq_low_bw_main_val;
#X obj 1504 3135 r main_eq_low_bw_cc;
#X floatatom 1504 3161 5 0 0 0 - - - 0;
#X text 1538 3160 CC#;
#X obj 1474 3389 r midi_ch;
#X floatatom 1474 3415 5 0 0 0 - - - 0;
#X obj 1434 3363 r main_eq_low_bw_cc;
#X floatatom 1434 3389 5 0 0 0 - - - 0;
#X obj 1428 3549 r bang;
#X msg 1418 3605 42;
#X obj 1418 3634 s recall_main_eq_low_bw;
#X obj 1438 3578 r recall_main;
#X obj 1418 3465 r eq_low_bw_main_val;
#X obj 1418 3494 list prepend set;
#X obj 1418 3520 list trim;
#X obj 1418 3785 oscformat /mix/main/0/eq/lowshelf/bw;
#X obj 1428 3187 r reset_main_eq_low_bw_trig;
#X obj 1426 3311 r reset_main_eq_low_bw_trig;
#X obj 1418 3707 / 127;
#X obj 558 3707 / 127;
#X obj 558 3759 - 20;
#X obj 558 3733 * 40;
#X obj 838 3759 max 20;
#X obj 838 3733 * 20000;
#X obj 838 3707 mtof_inlet;
#X obj 1418 3759 max 0.01;
#X obj 1418 3733 * 3;
#X obj 278 4189 ctlout;
#X obj 278 3909 r midi_ch;
#X obj 278 3935 midicc_inlet;
#X obj 258 3881 cnv 16 15 15 empty empty Leveler\ Enable 20 12 0 20 #ffffff #404040 0;
#X obj 288 3987 r resetall_leveler_enable;
#X obj 278 4013 s leveler_enable_main_val;
#X obj 288 4111 r resetall_leveler_enable;
#X obj 278 4059 r recall_main_leveler_enable;
#X obj 278 4559 send osc;
#X obj 278 4455 r leveler_enable_main_val;
#X obj 364 3909 r main_leveler_enable_cc;
#X floatatom 364 3935 5 0 0 0 - - - 0;
#X text 398 3934 CC#;
#X obj 334 4163 r midi_ch;
#X floatatom 334 4189 5 0 0 0 - - - 0;
#X obj 294 4137 r main_leveler_enable_cc;
#X floatatom 294 4163 5 0 0 0 - - - 0;
#X obj 288 4323 r bang;
#X msg 278 4379 0;
#X obj 278 4408 s recall_main_leveler_enable;
#X obj 298 4352 r recall_main;
#X obj 278 4239 r leveler_enable_main_val;
#X obj 278 4268 list prepend set;
#X obj 278 4294 list trim;
#X obj 288 3961 r reset_main_leveler_enable_trig;
#X obj 286 4085 r reset_main_leveler_enable_trig;
#X obj 278 4481 / 127;
#X obj 278 4533 oscformat /mix/main/0/leveler/enable;
#X obj 558 4189 ctlout;
#X obj 558 3909 r midi_ch;
#X obj 558 3935 midicc_inlet;
#X obj 538 3881 cnv 16 15 15 empty empty Leveler\ Reduction 20 12 0 20 #ffffff #404040 0;
#X obj 568 3987 r resetall_leveler_reduction;
#X obj 558 4013 s leveler_reduction_main_val;
#X obj 568 4111 r resetall_leveler_reduction;
#X obj 558 4059 r recall_main_leveler_reduction;
#X obj 558 4559 send osc;
#X obj 558 4455 r leveler_reduction_main_val;
#X obj 644 3909 r main_leveler_reduction_cc;
#X floatatom 644 3935 5 0 0 0 - - - 0;
#X text 678 3934 CC#;
#X obj 614 4163 r midi_ch;
#X floatatom 614 4189 5 0 0 0 - - - 0;
#X obj 574 4137 r main_leveler_reduction_cc;
#X floatatom 574 4163 5 0 0 0 - - - 0;
#X obj 568 4323 r bang;
#X msg 558 4379 25;
#X obj 558 4408 s recall_main_leveler_reduction;
#X obj 578 4352 r recall_main;
#X obj 558 4239 r leveler_reduction_main_val;
#X obj 558 4268 list prepend set;
#X obj 558 4294 list trim;
#X obj 568 3961 r reset_main_leveler_reduction_trig;
#X obj 566 4085 r reset_main_leveler_reduction_trig;
#X obj 558 4481 / 127;
#X obj 558 4533 oscformat /mix/main/0/leveler/reduction;
#X obj 838 4189 ctlout;
#X obj 838 3909 r midi_ch;
#X obj 838 3935 midicc_inlet;
#X obj 818 3881 cnv 16 15 15 empty empty Leveler\ Makeup 20 12 0 20 #ffffff #404040 0;
#X obj 848 3987 r resetall_leveler_makeup;
#X obj 838 4013 s leveler_makeup_main_val;
#X obj 848 4111 r resetall_leveler_makeup;
#X obj 838 4059 r recall_main_leveler_makeup;
#X obj 838 4559 send osc;
#X obj 838 4455 r leveler_makeup_main_val;
#X obj 924 3909 r main_leveler_makeup_cc;
#X floatatom 924 3935 5 0 0 0 - - - 0;
#X text 958 3934 CC#;
#X obj 894 4163 r midi_ch;
#X floatatom 894 4189 5 0 0 0 - - - 0;
#X obj 854 4137 r main_leveler_makeup_cc;
#X floatatom 854 4163 5 0 0 0 - - - 0;
#X obj 848 4323 r bang;
#X msg 838 4379 25;
#X obj 838 4408 s recall_main_leveler_makeup;
#X obj 858 4352 r recall_main;
#X obj 838 4239 r leveler_makeup_main_val;
#X obj 838 4268 list prepend set;
#X obj 838 4294 list trim;
#X obj 848 3961 r reset_main_leveler_makeup_trig;
#X obj 846 4085 r reset_main_leveler_makeup_trig;
#X obj 838 4481 / 127;
#X obj 838 4533 oscformat /mix/main/0/leveler/makeup;
#X obj 1128 4189 ctlout;
#X obj 1128 3909 r midi_ch;
#X obj 1128 3935 midicc_inlet;
#X obj 1108 3881 cnv 16 15 15 empty empty Leveler\ Limit 20 12 0 20 #ffffff #404040 0;
#X obj 1138 3987 r resetall_leveler_limit;
#X obj 1128 4013 s leveler_limit_main_val;
#X obj 1138 4111 r resetall_leveler_limit;
#X obj 1128 4059 r recall_main_leveler_limit;
#X obj 1128 4559 send osc;
#X obj 1128 4455 r leveler_limit_main_val;
#X obj 1214 3909 r main_leveler_limit_cc;
#X floatatom 1214 3935 5 0 0 0 - - - 0;
#X text 1248 3934 CC#;
#X obj 1184 4163 r midi_ch;
#X floatatom 1184 4189 5 0 0 0 - - - 0;
#X obj 1144 4137 r main_leveler_limit_cc;
#X floatatom 1144 4163 5 0 0 0 - - - 0;
#X obj 1138 4323 r bang;
#X msg 1128 4379 127;
#X obj 1128 4408 s recall_main_leveler_limit;
#X obj 1148 4352 r recall_main;
#X obj 1128 4239 r leveler_limit_main_val;
#X obj 1128 4268 list prepend set;
#X obj 1128 4294 list trim;
#X obj 1138 3961 r reset_main_leveler_limit_trig;
#X obj 1136 4085 r reset_main_leveler_limit_trig;
#X obj 1128 4481 / 127;
#X obj 1128 4533 oscformat /mix/main/0/leveler/limit;
#X obj 558 4507 * 100;
#X obj 838 4507 * 100;
#X obj 558 405 r mute_main_val;
#X obj 1128 405 r mute_monitor_val;
#X obj 558 673 == 1;
#X obj 1128 673 == 1;
#X obj 278 1433 == 1;
#X obj 278 4507 == 1;
#X obj 278 3733 == 1;
#X obj 278 2967 == 1;
#X obj 278 2200 == 1;
#X obj 1128 4507 == 1;
#X obj 838 1485 i;
#X obj 838 2252 i;
#X obj 838 3019 i;
#X obj 838 3785 i;
#X obj 1172 3707 == 0;
#X obj 1172 1407 == 0;
#X obj 278 673 level_inlet;
#X obj 838 673 level_inlet;
#X connect 1 0 2 0;
#X connect 2 0 5 0;
#X connect 4 0 5 0;
#X connect 6 0 0 0;
#X connect 7 0 0 0;
#X connect 9 0 8 0;
#X connect 10 0 779 0;
#X connect 11 0 10 0;
#X connect 12 0 13 0;
#X connect 13 0 15 0;
#X connect 17 0 18 0;
#X connect 18 0 24 0;
#X connect 21 0 16 0;
#X connect 22 0 16 0;
#X connect 23 0 24 0;
#X connect 25 0 27 0;
#X connect 26 0 20 0;
#X connect 27 0 765 0;
#X connect 29 0 30 0;
#X connect 30 0 45 0;
#X connect 32 0 45 0;
#X connect 33 0 28 0;
#X connect 35 0 780 0;
#X connect 37 0 38 0;
#X connect 38 0 51 0;
#X connect 41 0 36 0;
#X connect 42 0 51 0;
#X connect 43 0 766 0;
#X connect 44 0 34 0;
#X connect 46 0 28 0;
#X connect 47 0 35 0;
#X connect 48 0 40 0;
#X connect 49 0 43 0;
#X connect 50 0 36 0;
#X connect 52 0 53 0;
#X connect 53 0 13 1;
#X connect 55 0 56 0;
#X connect 56 0 2 1;
#X connect 58 0 30 1;
#X connect 60 0 58 0;
#X connect 61 0 18 1;
#X connect 63 0 38 1;
#X connect 65 0 61 0;
#X connect 66 0 63 0;
#X connect 67 0 68 0;
#X connect 68 0 0 2;
#X connect 69 0 70 0;
#X connect 70 0 16 2;
#X connect 71 0 72 0;
#X connect 72 0 28 2;
#X connect 73 0 74 0;
#X connect 74 0 36 2;
#X connect 75 0 76 0;
#X connect 76 0 0 1;
#X connect 77 0 16 1;
#X connect 78 0 77 0;
#X connect 79 0 36 1;
#X connect 80 0 79 0;
#X connect 81 0 28 1;
#X connect 82 0 81 0;
#X connect 83 0 86 0;
#X connect 85 0 83 0;
#X connect 87 0 88 0;
#X connect 88 0 89 0;
#X connect 90 0 88 0;
#X connect 91 0 92 0;
#X connect 92 0 96 0;
#X connect 93 0 92 0;
#X connect 94 0 97 0;
#X connect 95 0 99 0;
#X connect 97 0 98 0;
#X connect 98 0 88 0;
#X connect 99 0 100 0;
#X connect 100 0 92 0;
#X connect 101 0 102 0;
#X connect 102 0 104 0;
#X connect 103 0 102 0;
#X connect 105 0 106 0;
#X connect 106 0 102 0;
#X connect 107 0 108 0;
#X connect 108 0 110 0;
#X connect 109 0 108 0;
#X connect 111 0 112 0;
#X connect 112 0 108 0;
#X connect 114 0 115 0;
#X connect 115 0 118 0;
#X connect 117 0 118 0;
#X connect 119 0 113 0;
#X connect 120 0 113 0;
#X connect 122 0 148 0;
#X connect 123 0 124 0;
#X connect 124 0 115 1;
#X connect 126 0 127 0;
#X connect 127 0 113 2;
#X connect 128 0 129 0;
#X connect 129 0 113 1;
#X connect 130 0 131 0;
#X connect 131 0 132 0;
#X connect 133 0 131 0;
#X connect 134 0 135 0;
#X connect 135 0 136 0;
#X connect 136 0 131 0;
#X connect 137 0 121 0;
#X connect 138 0 5 0;
#X connect 139 0 24 0;
#X connect 140 0 45 0;
#X connect 141 0 51 0;
#X connect 142 0 36 0;
#X connect 143 0 28 0;
#X connect 144 0 16 0;
#X connect 145 0 0 0;
#X connect 146 0 118 0;
#X connect 147 0 113 0;
#X connect 148 0 767 0;
#X connect 150 0 151 0;
#X connect 151 0 154 0;
#X connect 153 0 154 0;
#X connect 155 0 149 0;
#X connect 156 0 149 0;
#X connect 158 0 259 0;
#X connect 159 0 160 0;
#X connect 160 0 151 1;
#X connect 162 0 163 0;
#X connect 163 0 149 2;
#X connect 164 0 165 0;
#X connect 165 0 149 1;
#X connect 166 0 167 0;
#X connect 167 0 168 0;
#X connect 169 0 167 0;
#X connect 170 0 171 0;
#X connect 171 0 172 0;
#X connect 172 0 167 0;
#X connect 173 0 157 0;
#X connect 174 0 154 0;
#X connect 175 0 149 0;
#X connect 177 0 178 0;
#X connect 178 0 181 0;
#X connect 180 0 181 0;
#X connect 182 0 176 0;
#X connect 183 0 176 0;
#X connect 185 0 264 0;
#X connect 186 0 187 0;
#X connect 187 0 178 1;
#X connect 189 0 190 0;
#X connect 190 0 176 2;
#X connect 191 0 192 0;
#X connect 192 0 176 1;
#X connect 193 0 194 0;
#X connect 194 0 195 0;
#X connect 196 0 194 0;
#X connect 197 0 198 0;
#X connect 198 0 199 0;
#X connect 199 0 194 0;
#X connect 200 0 184 0;
#X connect 201 0 181 0;
#X connect 202 0 176 0;
#X connect 204 0 205 0;
#X connect 205 0 208 0;
#X connect 207 0 208 0;
#X connect 209 0 203 0;
#X connect 210 0 203 0;
#X connect 212 0 230 0;
#X connect 213 0 214 0;
#X connect 214 0 205 1;
#X connect 216 0 217 0;
#X connect 217 0 203 2;
#X connect 218 0 219 0;
#X connect 219 0 203 1;
#X connect 220 0 221 0;
#X connect 221 0 222 0;
#X connect 223 0 221 0;
#X connect 224 0 225 0;
#X connect 225 0 226 0;
#X connect 226 0 221 0;
#X connect 227 0 211 0;
#X connect 228 0 208 0;
#X connect 229 0 203 0;
#X connect 230 0 778 0;
#X connect 232 0 233 0;
#X connect 233 0 236 0;
#X connect 235 0 236 0;
#X connect 237 0 231 0;
#X connect 238 0 231 0;
#X connect 240 0 258 0;
#X connect 241 0 242 0;
#X connect 242 0 233 1;
#X connect 244 0 245 0;
#X connect 245 0 231 2;
#X connect 246 0 247 0;
#X connect 247 0 231 1;
#X connect 248 0 249 0;
#X connect 249 0 250 0;
#X connect 251 0 249 0;
#X connect 252 0 253 0;
#X connect 253 0 254 0;
#X connect 254 0 249 0;
#X connect 255 0 239 0;
#X connect 256 0 236 0;
#X connect 257 0 231 0;
#X connect 258 0 266 0;
#X connect 259 0 261 0;
#X connect 260 0 173 0;
#X connect 261 0 260 0;
#X connect 262 0 773 0;
#X connect 263 0 262 0;
#X connect 264 0 263 0;
#X connect 265 0 255 0;
#X connect 266 0 265 0;
#X connect 268 0 269 0;
#X connect 269 0 272 0;
#X connect 271 0 272 0;
#X connect 273 0 267 0;
#X connect 274 0 267 0;
#X connect 276 0 294 0;
#X connect 277 0 278 0;
#X connect 278 0 269 1;
#X connect 280 0 281 0;
#X connect 281 0 267 2;
#X connect 282 0 283 0;
#X connect 283 0 267 1;
#X connect 284 0 285 0;
#X connect 285 0 286 0;
#X connect 287 0 285 0;
#X connect 288 0 289 0;
#X connect 289 0 290 0;
#X connect 290 0 285 0;
#X connect 291 0 275 0;
#X connect 292 0 272 0;
#X connect 293 0 267 0;
#X connect 294 0 771 0;
#X connect 296 0 297 0;
#X connect 297 0 300 0;
#X connect 299 0 300 0;
#X connect 301 0 295 0;
#X connect 302 0 295 0;
#X connect 304 0 377 0;
#X connect 305 0 306 0;
#X connect 306 0 297 1;
#X connect 308 0 309 0;
#X connect 309 0 295 2;
#X connect 310 0 311 0;
#X connect 311 0 295 1;
#X connect 312 0 313 0;
#X connect 313 0 314 0;
#X connect 315 0 313 0;
#X connect 316 0 317 0;
#X connect 317 0 318 0;
#X connect 318 0 313 0;
#X connect 319 0 303 0;
#X connect 320 0 300 0;
#X connect 321 0 295 0;
#X connect 323 0 324 0;
#X connect 324 0 327 0;
#X connect 326 0 327 0;
#X connect 328 0 322 0;
#X connect 329 0 322 0;
#X connect 331 0 382 0;
#X connect 332 0 333 0;
#X connect 333 0 324 1;
#X connect 335 0 336 0;
#X connect 336 0 322 2;
#X connect 337 0 338 0;
#X connect 338 0 322 1;
#X connect 339 0 340 0;
#X connect 340 0 341 0;
#X connect 342 0 340 0;
#X connect 343 0 344 0;
#X connect 344 0 345 0;
#X connect 345 0 340 0;
#X connect 346 0 330 0;
#X connect 347 0 327 0;
#X connect 348 0 322 0;
#X connect 350 0 351 0;
#X connect 351 0 354 0;
#X connect 353 0 354 0;
#X connect 355 0 349 0;
#X connect 356 0 349 0;
#X connect 358 0 376 0;
#X connect 359 0 360 0;
#X connect 360 0 351 1;
#X connect 362 0 363 0;
#X connect 363 0 349 2;
#X connect 364 0 365 0;
#X connect 365 0 349 1;
#X connect 366 0 367 0;
#X connect 367 0 368 0;
#X connect 369 0 367 0;
#X connect 370 0 371 0;
#X connect 371 0 372 0;
#X connect 372 0 367 0;
#X connect 373 0 357 0;
#X connect 374 0 354 0;
#X connect 375 0 349 0;
#X connect 376 0 384 0;
#X connect 377 0 379 0;
#X connect 378 0 319 0;
#X connect 379 0 378 0;
#X connect 380 0 774 0;
#X connect 381 0 380 0;
#X connect 382 0 381 0;
#X connect 383 0 373 0;
#X connect 384 0 383 0;
#X connect 386 0 387 0;
#X connect 387 0 390 0;
#X connect 389 0 390 0;
#X connect 391 0 385 0;
#X connect 392 0 385 0;
#X connect 394 0 412 0;
#X connect 395 0 396 0;
#X connect 396 0 387 1;
#X connect 398 0 399 0;
#X connect 399 0 385 2;
#X connect 400 0 401 0;
#X connect 401 0 385 1;
#X connect 402 0 403 0;
#X connect 403 0 404 0;
#X connect 405 0 403 0;
#X connect 406 0 407 0;
#X connect 407 0 408 0;
#X connect 408 0 403 0;
#X connect 409 0 393 0;
#X connect 410 0 390 0;
#X connect 411 0 385 0;
#X connect 412 0 770 0;
#X connect 414 0 415 0;
#X connect 415 0 418 0;
#X connect 417 0 418 0;
#X connect 419 0 413 0;
#X connect 420 0 413 0;
#X connect 422 0 495 0;
#X connect 423 0 424 0;
#X connect 424 0 415 1;
#X connect 426 0 427 0;
#X connect 427 0 413 2;
#X connect 428 0 429 0;
#X connect 429 0 413 1;
#X connect 430 0 431 0;
#X connect 431 0 432 0;
#X connect 433 0 431 0;
#X connect 434 0 435 0;
#X connect 435 0 436 0;
#X connect 436 0 431 0;
#X connect 437 0 421 0;
#X connect 438 0 418 0;
#X connect 439 0 413 0;
#X connect 441 0 442 0;
#X connect 442 0 445 0;
#X connect 444 0 445 0;
#X connect 446 0 440 0;
#X connect 447 0 440 0;
#X connect 449 0 500 0;
#X connect 450 0 451 0;
#X connect 451 0 442 1;
#X connect 453 0 454 0;
#X connect 454 0 440 2;
#X connect 455 0 456 0;
#X connect 456 0 440 1;
#X connect 457 0 458 0;
#X connect 458 0 459 0;
#X connect 460 0 458 0;
#X connect 461 0 462 0;
#X connect 462 0 463 0;
#X connect 463 0 458 0;
#X connect 464 0 448 0;
#X connect 465 0 445 0;
#X connect 466 0 440 0;
#X connect 468 0 469 0;
#X connect 469 0 472 0;
#X connect 471 0 472 0;
#X connect 473 0 467 0;
#X connect 474 0 467 0;
#X connect 476 0 494 0;
#X connect 477 0 478 0;
#X connect 478 0 469 1;
#X connect 480 0 481 0;
#X connect 481 0 467 2;
#X connect 482 0 483 0;
#X connect 483 0 467 1;
#X connect 484 0 485 0;
#X connect 485 0 486 0;
#X connect 487 0 485 0;
#X connect 488 0 489 0;
#X connect 489 0 490 0;
#X connect 490 0 485 0;
#X connect 491 0 475 0;
#X connect 492 0 472 0;
#X connect 493 0 467 0;
#X connect 494 0 502 0;
#X connect 495 0 497 0;
#X connect 496 0 437 0;
#X connect 497 0 496 0;
#X connect 498 0 775 0;
#X connect 499 0 498 0;
#X connect 500 0 499 0;
#X connect 501 0 491 0;
#X connect 502 0 501 0;
#X connect 504 0 505 0;
#X connect 505 0 508 0;
#X connect 507 0 508 0;
#X connect 509 0 503 0;
#X connect 510 0 503 0;
#X connect 512 0 530 0;
#X connect 513 0 514 0;
#X connect 514 0 505 1;
#X connect 516 0 517 0;
#X connect 517 0 503 2;
#X connect 518 0 519 0;
#X connect 519 0 503 1;
#X connect 520 0 521 0;
#X connect 521 0 522 0;
#X connect 523 0 521 0;
#X connect 524 0 525 0;
#X connect 525 0 526 0;
#X connect 526 0 521 0;
#X connect 527 0 511 0;
#X connect 528 0 508 0;
#X connect 529 0 503 0;
#X connect 530 0 769 0;
#X connect 532 0 533 0;
#X connect 533 0 536 0;
#X connect 535 0 536 0;
#X connect 537 0 531 0;
#X connect 538 0 531 0;
#X connect 540 0 641 0;
#X connect 541 0 542 0;
#X connect 542 0 533 1;
#X connect 544 0 545 0;
#X connect 545 0 531 2;
#X connect 546 0 547 0;
#X connect 547 0 531 1;
#X connect 548 0 549 0;
#X connect 549 0 550 0;
#X connect 551 0 549 0;
#X connect 552 0 553 0;
#X connect 553 0 554 0;
#X connect 554 0 549 0;
#X connect 555 0 539 0;
#X connect 556 0 536 0;
#X connect 557 0 531 0;
#X connect 559 0 560 0;
#X connect 560 0 563 0;
#X connect 562 0 563 0;
#X connect 564 0 558 0;
#X connect 565 0 558 0;
#X connect 567 0 646 0;
#X connect 568 0 569 0;
#X connect 569 0 560 1;
#X connect 571 0 572 0;
#X connect 572 0 558 2;
#X connect 573 0 574 0;
#X connect 574 0 558 1;
#X connect 575 0 576 0;
#X connect 576 0 577 0;
#X connect 578 0 576 0;
#X connect 579 0 580 0;
#X connect 580 0 581 0;
#X connect 581 0 576 0;
#X connect 582 0 566 0;
#X connect 583 0 563 0;
#X connect 584 0 558 0;
#X connect 586 0 587 0;
#X connect 587 0 590 0;
#X connect 589 0 590 0;
#X connect 591 0 585 0;
#X connect 592 0 585 0;
#X connect 594 0 612 0;
#X connect 595 0 596 0;
#X connect 596 0 587 1;
#X connect 598 0 599 0;
#X connect 599 0 585 2;
#X connect 600 0 601 0;
#X connect 601 0 585 1;
#X connect 602 0 603 0;
#X connect 603 0 604 0;
#X connect 605 0 603 0;
#X connect 606 0 607 0;
#X connect 607 0 608 0;
#X connect 608 0 603 0;
#X connect 609 0 593 0;
#X connect 610 0 590 0;
#X connect 611 0 585 0;
#X connect 612 0 777 0;
#X connect 614 0 615 0;
#X connect 615 0 618 0;
#X connect 617 0 618 0;
#X connect 619 0 613 0;
#X connect 620 0 613 0;
#X connect 622 0 640 0;
#X connect 623 0 624 0;
#X connect 624 0 615 1;
#X connect 626 0 627 0;
#X connect 627 0 613 2;
#X connect 628 0 629 0;
#X connect 629 0 613 1;
#X connect 630 0 631 0;
#X connect 631 0 632 0;
#X connect 633 0 631 0;
#X connect 634 0 635 0;
#X connect 635 0 636 0;
#X connect 636 0 631 0;
#X connect 637 0 621 0;
#X connect 638 0 618 0;
#X connect 639 0 613 0;
#X connect 640 0 648 0;
#X connect 641 0 643 0;
#X connect 642 0 555 0;
#X connect 643 0 642 0;
#X connect 644 0 776 0;
#X connect 645 0 644 0;
#X connect 646 0 645 0;
#X connect 647 0 637 0;
#X connect 648 0 647 0;
#X connect 650 0 651 0;
#X connect 651 0 654 0;
#X connect 653 0 654 0;
#X connect 655 0 649 0;
#X connect 656 0 649 0;
#X connect 658 0 675 0;
#X connect 659 0 660 0;
#X connect 660 0 651 1;
#X connect 662 0 663 0;
#X connect 663 0 649 2;
#X connect 664 0 665 0;
#X connect 665 0 649 1;
#X connect 666 0 667 0;
#X connect 667 0 668 0;
#X connect 669 0 667 0;
#X connect 670 0 671 0;
#X connect 671 0 672 0;
#X connect 672 0 667 0;
#X connect 673 0 654 0;
#X connect 674 0 649 0;
#X connect 675 0 768 0;
#X connect 676 0 657 0;
#X connect 678 0 679 0;
#X connect 679 0 682 0;
#X connect 681 0 682 0;
#X connect 683 0 677 0;
#X connect 684 0 677 0;
#X connect 686 0 703 0;
#X connect 687 0 688 0;
#X connect 688 0 679 1;
#X connect 690 0 691 0;
#X connect 691 0 677 2;
#X connect 692 0 693 0;
#X connect 693 0 677 1;
#X connect 694 0 695 0;
#X connect 695 0 696 0;
#X connect 697 0 695 0;
#X connect 698 0 699 0;
#X connect 699 0 700 0;
#X connect 700 0 695 0;
#X connect 701 0 682 0;
#X connect 702 0 677 0;
#X connect 703 0 761 0;
#X connect 704 0 685 0;
#X connect 706 0 707 0;
#X connect 707 0 710 0;
#X connect 709 0 710 0;
#X connect 711 0 705 0;
#X connect 712 0 705 0;
#X connect 714 0 731 0;
#X connect 715 0 716 0;
#X connect 716 0 707 1;
#X connect 718 0 719 0;
#X connect 719 0 705 2;
#X connect 720 0 721 0;
#X connect 721 0 705 1;
#X connect 722 0 723 0;
#X connect 723 0 724 0;
#X connect 725 0 723 0;
#X connect 726 0 727 0;
#X connect 727 0 728 0;
#X connect 728 0 723 0;
#X connect 729 0 710 0;
#X connect 730 0 705 0;
#X connect 731 0 762 0;
#X connect 732 0 713 0;
#X connect 734 0 735 0;
#X connect 735 0 738 0;
#X connect 737 0 738 0;
#X connect 739 0 733 0;
#X connect 740 0 733 0;
#X connect 742 0 759 0;
#X connect 743 0 744 0;
#X connect 744 0 735 1;
#X connect 746 0 747 0;
#X connect 747 0 733 2;
#X connect 748 0 749 0;
#X connect 749 0 733 1;
#X connect 750 0 751 0;
#X connect 751 0 752 0;
#X connect 753 0 751 0;
#X connect 754 0 755 0;
#X connect 755 0 756 0;
#X connect 756 0 751 0;
#X connect 757 0 738 0;
#X connect 758 0 733 0;
#X connect 759 0 772 0;
#X connect 760 0 741 0;
#X connect 761 0 704 0;
#X connect 762 0 732 0;
#X connect 763 0 105 0;
#X connect 764 0 111 0;
#X connect 765 0 26 0;
#X connect 766 0 48 0;
#X connect 767 0 137 0;
#X connect 768 0 676 0;
#X connect 769 0 527 0;
#X connect 770 0 409 0;
#X connect 771 0 291 0;
#X connect 772 0 760 0;
#X connect 773 0 200 0;
#X connect 774 0 346 0;
#X connect 775 0 464 0;
#X connect 776 0 582 0;
#X connect 777 0 609 0;
#X connect 778 0 227 0;
#X connect 779 0 9 0;
#X connect 780 0 44 0;
