#N canvas 286 130 227 170 12;
#X obj 20 69 expr round($f1);
#X obj 20 40 * 600;
#X obj 20 98 * 0.00166;
#X obj 20 11 inlet;
#X obj 20 127 outlet;
#X connect 0 0 2 0;
#X connect 1 0 0 0;
#X connect 2 0 4 0;
#X connect 3 0 1 0;
