#N canvas 623 337 853 759 12;
#X obj 60 133 bng 16 250 50 0 empty empty empty 0 -8 0 10 #fcfcfc #000000 #000000;
#X obj 210 279 tgl 15 0 empty empty empty 17 7 0 10 #fcfcfc #000000 #000000 0 1;
#X msg 220 134 disconnect;
#X obj 210 250 netsend -u -b;
#X msg 211 105 connect lp32.local 9998;
#X obj 230 163 receive osc;
#X obj 50 162 s bang;
#X obj 211 76 r bang;
#X msg 450 164 menusave;
#X obj 188 47 cnv 16 15 15 empty empty OSC\ Connection 20 12 0 20 #ffffff #404040 0;
#X obj 28 47 cnv 16 15 15 empty empty Bang 20 12 0 20 #ffffff #404040 0;
#X obj 428 47 cnv 16 15 15 empty empty Autosave 20 12 0 20 #ffffff #404040 0;
#X obj 450 194 s pd-lp32-avb.pd;
#X obj 182 529 avb_solo;
#X obj 609 48 cnv 16 15 15 empty empty Reset\ All\ OSC 20 12 0 20 #ffffff #404040 0;
#X obj 630 77 avb_reset_all;
#X obj 315 529 avb_mute;
#X obj 448 527 avb_master;
#X obj 48 529 avb_level;
#X obj 581 527 avb_reverb;
#X obj 49 707 avb_main;
#X obj 182 707 avb_aux_1-2;
#X obj 315 707 avb_aux_3-4;
#X obj 448 707 avb_aux_5-6;
#X obj 581 707 avb_aux_7-8;
#X obj 714 707 avb_aux_9-10;
#X obj 847 707 avb_aux_11-12;
#X obj 1110 707 avb_aux_reverb;
#X obj 1243 707 avb_group_1-2;
#X obj 1376 707 avb_group_3-4;
#X obj 1509 707 avb_group_5-6;
#X obj 182 885 avb_hpf_freq;
#X obj 182 1063 avb_gate_attack;
#X obj 315 1063 avb_gate_threshold;
#X obj 448 1063 avb_gate_release;
#X obj 182 1957 avb_comp_threshold;
#X obj 315 1957 avb_comp_ratio;
#X obj 448 1957 avb_comp_peak;
#X obj 581 1957 avb_comp_makeup;
#X obj 714 1957 avb_comp_trim;
#X obj 847 1957 avb_comp_attack;
#X obj 980 1957 avb_comp_release;
#X obj 182 1241 avb_eq_high_gain;
#X obj 315 1241 avb_eq_high_freq;
#X obj 448 1241 avb_eq_high_mode;
#X obj 581 1241 avb_eq_high_bw;
#X obj 182 1601 avb_eq_mid2_gain;
#X obj 315 1601 avb_eq_mid2_freq;
#X obj 448 1601 avb_eq_mid2_bw;
#X obj 182 1781 avb_eq_low_gain;
#X obj 315 1781 avb_eq_low_freq;
#X obj 448 1781 avb_eq_low_mode;
#X obj 581 1781 avb_eq_low_bw;
#X obj 49 885 avb_hpf_enable;
#X obj 49 1063 avb_gate_enable;
#X obj 49 1957 avb_comp_enable;
#X obj 49 1241 avb_eq_high_enable;
#X obj 49 1601 avb_eq_mid2_enable;
#X obj 230 221 list trim;
#X obj 230 192 list prepend send;
#X obj 50 75 loadbang;
#X obj 50 104 del 30000;
#X obj 450 106 metro 30000;
#X obj 49 500 delay;
#X obj 81 439 r bang;
#X obj 460 135 s metro;
#X obj 49 410 r metro;
#X obj 182 500 delay;
#X obj 214 439 r bang;
#X obj 182 410 r metro;
#X obj 315 500 delay;
#X obj 347 439 r bang;
#X obj 315 410 r metro;
#X obj 49 678 delay;
#X obj 81 617 r bang;
#X obj 49 588 r metro;
#X obj 182 678 delay;
#X obj 214 617 r bang;
#X obj 182 588 r metro;
#X obj 315 678 delay;
#X obj 347 617 r bang;
#X obj 315 588 r metro;
#X obj 448 678 delay;
#X obj 480 617 r bang;
#X obj 448 588 r metro;
#X obj 581 678 delay;
#X obj 613 617 r bang;
#X obj 581 588 r metro;
#X obj 714 678 delay;
#X obj 746 617 r bang;
#X obj 714 588 r metro;
#X obj 847 678 delay;
#X obj 879 617 r bang;
#X obj 847 588 r metro;
#X obj 1110 678 delay;
#X obj 1142 617 r bang;
#X obj 1110 588 r metro;
#X obj 1243 678 delay;
#X obj 1275 617 r bang;
#X obj 1243 588 r metro;
#X obj 1376 678 delay;
#X obj 1408 617 r bang;
#X obj 1376 588 r metro;
#X obj 1509 678 delay;
#X obj 1541 617 r bang;
#X obj 1509 588 r metro;
#X msg 81 647 800;
#X msg 214 647 900;
#X msg 347 647 1000;
#X msg 480 647 1100;
#X msg 613 647 1200;
#X msg 746 647 1300;
#X msg 879 647 1400;
#X obj 49 856 delay;
#X obj 81 795 r bang;
#X obj 49 766 r metro;
#X obj 182 856 delay;
#X obj 214 795 r bang;
#X obj 182 766 r metro;
#X obj 49 1034 delay;
#X obj 81 973 r bang;
#X obj 49 944 r metro;
#X obj 182 1034 delay;
#X obj 214 973 r bang;
#X obj 182 944 r metro;
#X obj 315 1034 delay;
#X obj 347 973 r bang;
#X obj 315 944 r metro;
#X obj 448 1034 delay;
#X obj 480 973 r bang;
#X obj 448 944 r metro;
#X obj 49 1212 delay;
#X obj 81 1151 r bang;
#X obj 49 1122 r metro;
#X obj 182 1212 delay;
#X obj 214 1151 r bang;
#X obj 182 1122 r metro;
#X obj 315 1212 delay;
#X obj 347 1151 r bang;
#X obj 315 1122 r metro;
#X obj 448 1212 delay;
#X obj 480 1151 r bang;
#X obj 448 1122 r metro;
#X obj 581 1212 delay;
#X obj 613 1151 r bang;
#X obj 581 1122 r metro;
#X text 46 1099 EQ High;
#X text 46 921 Gate;
#X text 46 743 HPF;
#X text 46 565 Main/Aux/Groups;
#X obj 49 1392 delay;
#X obj 81 1331 r bang;
#X obj 49 1302 r metro;
#X obj 182 1392 delay;
#X obj 214 1331 r bang;
#X obj 182 1302 r metro;
#X obj 315 1392 delay;
#X obj 347 1331 r bang;
#X obj 315 1302 r metro;
#X obj 448 1392 delay;
#X obj 480 1331 r bang;
#X obj 448 1302 r metro;
#X text 46 1279 EQ Mid1;
#X obj 182 1421 avb_eq_mid1_gain;
#X obj 315 1421 avb_eq_mid1_freq;
#X obj 448 1421 avb_eq_mid1_bw;
#X obj 49 1421 avb_eq_mid1_enable;
#X obj 49 1572 delay;
#X obj 81 1511 r bang;
#X obj 49 1482 r metro;
#X obj 182 1572 delay;
#X obj 214 1511 r bang;
#X obj 182 1482 r metro;
#X obj 315 1572 delay;
#X obj 347 1511 r bang;
#X obj 315 1482 r metro;
#X obj 448 1572 delay;
#X obj 480 1511 r bang;
#X obj 448 1482 r metro;
#X text 46 1459 EQ Mid2;
#X obj 49 1752 delay;
#X obj 81 1691 r bang;
#X obj 49 1662 r metro;
#X obj 182 1752 delay;
#X obj 214 1691 r bang;
#X obj 182 1662 r metro;
#X obj 315 1752 delay;
#X obj 347 1691 r bang;
#X obj 315 1662 r metro;
#X obj 448 1752 delay;
#X obj 480 1691 r bang;
#X obj 448 1662 r metro;
#X obj 581 1752 delay;
#X obj 613 1691 r bang;
#X obj 581 1662 r metro;
#X text 46 1639 EQ Low;
#X obj 49 1781 avb_eq_low_enable;
#X obj 49 1928 delay;
#X obj 81 1867 r bang;
#X obj 49 1838 r metro;
#X obj 182 1928 delay;
#X obj 214 1867 r bang;
#X obj 182 1838 r metro;
#X obj 315 1928 delay;
#X obj 347 1867 r bang;
#X obj 315 1838 r metro;
#X obj 448 1928 delay;
#X obj 480 1867 r bang;
#X obj 448 1838 r metro;
#X obj 581 1928 delay;
#X obj 613 1867 r bang;
#X obj 581 1838 r metro;
#X obj 714 1928 delay;
#X obj 746 1867 r bang;
#X obj 714 1838 r metro;
#X obj 847 1928 delay;
#X obj 879 1867 r bang;
#X obj 847 1838 r metro;
#X obj 980 1928 delay;
#X obj 1012 1867 r bang;
#X obj 980 1838 r metro;
#X text 46 1815 Compressor;
#X text 46 386 Channel/Master/Reverb;
#X obj 448 498 delay;
#X obj 480 437 r bang;
#X obj 448 408 r metro;
#X obj 581 498 delay;
#X obj 613 437 r bang;
#X obj 581 408 r metro;
#X msg 81 469 300;
#X msg 214 469 400;
#X msg 347 469 500;
#X msg 480 467 600;
#X msg 613 467 700;
#X obj 29 357 cnv 16 15 15 empty empty AVB\ Channel\ Save 20 12 0 20 #ffffff #404040 0;
#X obj 450 77 r bang;
#X obj 609 143 cnv 16 15 15 empty empty Reset\ Settings 20 12 0 20 #ffffff #404040 0;
#X obj 609 216 cnv 16 15 15 empty empty MIDI\ Settings 20 12 0 20 #ffffff #404040 0;
#X obj 630 171 avb_reset_settings;
#X obj 630 244 avb_midi_settings;
#X obj 630 106 avb_send_reset_all;
#X obj 980 678 delay;
#X obj 1012 617 r bang;
#X obj 980 588 r metro;
#X obj 980 707 avb_aux_13-14;
#X msg 1012 647 1500;
#X msg 1142 647 1600;
#X msg 1275 647 1700;
#X msg 1408 647 1800;
#X msg 1541 647 1900;
#X msg 81 825 2000;
#X msg 214 825 2100;
#X msg 81 1003 2200;
#X msg 214 1003 2300;
#X msg 347 1003 2400;
#X msg 480 1003 2500;
#X msg 81 1181 2600;
#X msg 214 1181 2700;
#X msg 347 1181 2800;
#X msg 480 1181 2900;
#X msg 613 1181 3000;
#X msg 81 1361 3100;
#X msg 214 1361 3200;
#X msg 347 1361 3300;
#X msg 480 1361 3400;
#X msg 81 1541 3500;
#X msg 214 1541 3600;
#X msg 347 1541 3700;
#X msg 480 1541 3800;
#X msg 81 1721 3900;
#X msg 214 1721 4000;
#X msg 347 1721 4100;
#X msg 480 1721 4200;
#X msg 613 1721 4300;
#X msg 81 1897 4400;
#X msg 214 1897 4500;
#X msg 347 1897 4600;
#X msg 480 1897 4700;
#X msg 613 1897 4800;
#X msg 746 1897 4900;
#X msg 879 1897 5000;
#X msg 1012 1897 5100;
#X connect 0 0 6 0;
#X connect 2 0 3 0;
#X connect 3 0 1 0;
#X connect 4 0 3 0;
#X connect 5 0 59 0;
#X connect 7 0 4 0;
#X connect 8 0 12 0;
#X connect 58 0 3 0;
#X connect 59 0 58 0;
#X connect 60 0 61 0;
#X connect 61 0 6 0;
#X connect 62 0 8 0;
#X connect 62 0 65 0;
#X connect 63 0 18 0;
#X connect 64 0 229 0;
#X connect 66 0 63 0;
#X connect 67 0 13 0;
#X connect 68 0 230 0;
#X connect 69 0 67 0;
#X connect 70 0 16 0;
#X connect 71 0 231 0;
#X connect 72 0 70 0;
#X connect 73 0 20 0;
#X connect 74 0 106 0;
#X connect 75 0 73 0;
#X connect 76 0 21 0;
#X connect 77 0 107 0;
#X connect 78 0 76 0;
#X connect 79 0 22 0;
#X connect 80 0 108 0;
#X connect 81 0 79 0;
#X connect 82 0 23 0;
#X connect 83 0 109 0;
#X connect 84 0 82 0;
#X connect 85 0 24 0;
#X connect 86 0 110 0;
#X connect 87 0 85 0;
#X connect 88 0 25 0;
#X connect 89 0 111 0;
#X connect 90 0 88 0;
#X connect 91 0 26 0;
#X connect 92 0 112 0;
#X connect 93 0 91 0;
#X connect 94 0 27 0;
#X connect 95 0 246 0;
#X connect 96 0 94 0;
#X connect 97 0 28 0;
#X connect 98 0 247 0;
#X connect 99 0 97 0;
#X connect 100 0 29 0;
#X connect 101 0 248 0;
#X connect 102 0 100 0;
#X connect 103 0 30 0;
#X connect 104 0 249 0;
#X connect 105 0 103 0;
#X connect 106 0 73 1;
#X connect 107 0 76 1;
#X connect 108 0 79 1;
#X connect 109 0 82 1;
#X connect 110 0 85 1;
#X connect 111 0 88 1;
#X connect 112 0 91 1;
#X connect 113 0 53 0;
#X connect 114 0 250 0;
#X connect 115 0 113 0;
#X connect 116 0 31 0;
#X connect 117 0 251 0;
#X connect 118 0 116 0;
#X connect 119 0 54 0;
#X connect 120 0 252 0;
#X connect 121 0 119 0;
#X connect 122 0 32 0;
#X connect 123 0 253 0;
#X connect 124 0 122 0;
#X connect 125 0 33 0;
#X connect 126 0 254 0;
#X connect 127 0 125 0;
#X connect 128 0 34 0;
#X connect 129 0 255 0;
#X connect 130 0 128 0;
#X connect 131 0 56 0;
#X connect 132 0 256 0;
#X connect 133 0 131 0;
#X connect 134 0 42 0;
#X connect 135 0 257 0;
#X connect 136 0 134 0;
#X connect 137 0 43 0;
#X connect 138 0 258 0;
#X connect 139 0 137 0;
#X connect 140 0 44 0;
#X connect 141 0 259 0;
#X connect 142 0 140 0;
#X connect 143 0 45 0;
#X connect 144 0 260 0;
#X connect 145 0 143 0;
#X connect 150 0 166 0;
#X connect 151 0 261 0;
#X connect 152 0 150 0;
#X connect 153 0 163 0;
#X connect 154 0 262 0;
#X connect 155 0 153 0;
#X connect 156 0 164 0;
#X connect 157 0 263 0;
#X connect 158 0 156 0;
#X connect 159 0 165 0;
#X connect 160 0 264 0;
#X connect 161 0 159 0;
#X connect 167 0 57 0;
#X connect 168 0 265 0;
#X connect 169 0 167 0;
#X connect 170 0 46 0;
#X connect 171 0 266 0;
#X connect 172 0 170 0;
#X connect 173 0 47 0;
#X connect 174 0 267 0;
#X connect 175 0 173 0;
#X connect 176 0 48 0;
#X connect 177 0 268 0;
#X connect 178 0 176 0;
#X connect 180 0 196 0;
#X connect 181 0 269 0;
#X connect 182 0 180 0;
#X connect 183 0 49 0;
#X connect 184 0 270 0;
#X connect 185 0 183 0;
#X connect 186 0 50 0;
#X connect 187 0 271 0;
#X connect 188 0 186 0;
#X connect 189 0 51 0;
#X connect 190 0 272 0;
#X connect 191 0 189 0;
#X connect 192 0 52 0;
#X connect 193 0 273 0;
#X connect 194 0 192 0;
#X connect 197 0 55 0;
#X connect 198 0 274 0;
#X connect 199 0 197 0;
#X connect 200 0 35 0;
#X connect 201 0 275 0;
#X connect 202 0 200 0;
#X connect 203 0 36 0;
#X connect 204 0 276 0;
#X connect 205 0 203 0;
#X connect 206 0 37 0;
#X connect 207 0 277 0;
#X connect 208 0 206 0;
#X connect 209 0 38 0;
#X connect 210 0 278 0;
#X connect 211 0 209 0;
#X connect 212 0 39 0;
#X connect 213 0 279 0;
#X connect 214 0 212 0;
#X connect 215 0 40 0;
#X connect 216 0 280 0;
#X connect 217 0 215 0;
#X connect 218 0 41 0;
#X connect 219 0 281 0;
#X connect 220 0 218 0;
#X connect 223 0 17 0;
#X connect 224 0 232 0;
#X connect 225 0 223 0;
#X connect 226 0 19 0;
#X connect 227 0 233 0;
#X connect 228 0 226 0;
#X connect 229 0 63 1;
#X connect 230 0 67 1;
#X connect 231 0 70 1;
#X connect 232 0 223 1;
#X connect 233 0 226 1;
#X connect 235 0 62 0;
#X connect 241 0 244 0;
#X connect 242 0 245 0;
#X connect 243 0 241 0;
#X connect 245 0 241 1;
#X connect 246 0 94 1;
#X connect 247 0 97 1;
#X connect 248 0 100 1;
#X connect 249 0 103 0;
#X connect 250 0 113 1;
#X connect 251 0 116 1;
#X connect 252 0 119 1;
#X connect 253 0 122 1;
#X connect 254 0 125 1;
#X connect 255 0 128 1;
#X connect 256 0 131 1;
#X connect 257 0 134 1;
#X connect 258 0 137 1;
#X connect 259 0 140 1;
#X connect 260 0 143 1;
#X connect 261 0 150 1;
#X connect 262 0 153 1;
#X connect 263 0 156 1;
#X connect 264 0 159 1;
#X connect 265 0 167 1;
#X connect 266 0 170 1;
#X connect 267 0 173 1;
#X connect 268 0 176 1;
#X connect 269 0 180 1;
#X connect 270 0 183 1;
#X connect 271 0 186 1;
#X connect 272 0 189 1;
#X connect 273 0 192 1;
#X connect 274 0 197 1;
#X connect 275 0 200 1;
#X connect 276 0 203 1;
#X connect 277 0 206 1;
#X connect 278 0 209 1;
#X connect 279 0 212 1;
#X connect 280 0 215 1;
#X connect 281 0 218 1;
