#N canvas 144 418 700 668 12;
#X obj 130 78 ctlin;
#X floatatom 80 268 5 0 0 0 - - - 0;
#X text 239 137 Midi Channel;
#X text 236 239 CC #;
#X text 34 267 Value;
#X obj 124 268 spigot;
#X obj 163 238 ==;
#X obj 124 307 outlet;
#X obj 181 210 inlet;
#X obj 126 181 spigot;
#X obj 163 136 ==;
#X obj 181 107 inlet;
#X floatatom 195 136 5 0 0 0 - - - 0;
#X floatatom 193 238 5 0 0 0 - - - 0;
#X connect 0 0 1 0;
#X connect 0 0 9 0;
#X connect 0 1 6 0;
#X connect 0 2 10 0;
#X connect 5 0 7 0;
#X connect 6 0 5 1;
#X connect 8 0 6 1;
#X connect 8 0 13 0;
#X connect 9 0 5 0;
#X connect 10 0 9 1;
#X connect 11 0 10 1;
#X connect 11 0 12 0;
