#N canvas 563 229 213 241 12;
#X obj 39 47 mtof;
#X obj 39 76 / 600;
#X obj 39 105 / 20.9;
#X obj 39 18 inlet;
#X obj 39 134 outlet;
#X connect 0 0 1 0;
#X connect 1 0 2 0;
#X connect 2 0 4 0;
#X connect 3 0 0 0;
